{
.appVersion = "3151";
.formatVersion = 3;
axes = (
{
name = Slant;
tag = slnt;
}
);
classes = (
{
automatic = 1;
code = "A Aacute Abreve Acircumflex Adieresis Agrave Amacron Aogonek Aring Atilde AE AEacute B Bdotaccent C Cacute Ccaron Ccedilla Ccircumflex Cdotaccent D Eth Dcaron Dcroat E Eacute Ebreve Ecaron Ecircumflex Edieresis Edotaccent Egrave Emacron Eogonek F Fdotaccent G Gbreve Gcaron Gcircumflex Gcommaaccent Gdotaccent H Hbar Hcircumflex Hdotaccent I IJ Iacute Ibreve Icircumflex Idieresis Idotaccent Igrave Imacron Iogonek Itilde J Jcircumflex K Kcommaaccent L Lacute Lcaron Lcommaaccent Ldot Lslash M N Nacute Ncaron Ncommaaccent Ntilde Eng O Oacute Obreve Ocircumflex Odieresis Odotbelow Ograve Ohungarumlaut Omacron Oslash Oslashacute Otilde OE P Thorn Q R Racute Rcaron Rcommaaccent S Sacute Scaron Scedilla Scircumflex Scommaaccent Germandbls T Tbar Tcaron Tcedilla Tcommaaccent U Uacute Ubreve Ucircumflex Udieresis Ugrave Uhungarumlaut Umacron Uogonek Uring Utilde V W Wacute Wcircumflex Wdieresis Wgrave X Y Yacute Ycircumflex Ydieresis Ygrave Z Zacute Zcaron Zdotaccent Delta Omega";
name = Uppercase;
}
);
customParameters = (
{
name = "Use Typo Metrics";
value = 1;
},
{
name = fsType;
value = (
);
},
{
name = panose;
value = (
2,
11,
0,
3,
4,
2,
2,
6,
2,
3
);
},
{
name = unicodeRanges;
value = (
0,
1,
2,
3,
4,
5,
6,
7,
29,
31,
32,
33,
35,
36,
37,
38,
45,
47,
62
);
},
{
name = codePageRanges;
value = (
"1252",
"1250",
"1254",
"1257",
"bit 29"
);
},
{
name = "Write DisplayStrings";
value = 0;
},
{
name = "Write lastChange";
value = 0;
},
{
name = "Export Mac Name Table Entries";
value = 0;
},
{
name = "Use Typo Metrics";
value = 1;
},
{
name = "Use Extension Kerning";
value = 1;
}
);
date = "2022-09-24 20:32:01 +0000";
familyName = "Uncut Plan8";
featurePrefixes = (
{
automatic = 1;
code = "languagesystem DFLT dflt;

languagesystem latn dflt;
languagesystem latn ROM;
languagesystem latn MOL;
languagesystem latn CAT;
";
name = Languagesystems;
}
);

glyphs = (
{
glyphname = A;
layers = (
{
anchors = (
{
name = bottom;
pos = (330,0);
},
{
name = ogonek;
pos = (645,10);
},
{
name = top;
pos = (330,700);
}
);
layerId = m002;
shapes = (
{
closed = 1;
nodes = (
(640,0,l),
(400,700,l),
(291,700,l),
(531,0,l)
);
},
{
closed = 1;
nodes = (
(129,0,l),
(369,700,l),
(260,700,l),
(20,0,l)
);
},
{
closed = 1;
nodes = (
(511,185,l),
(511,275,l),
(153,275,l),
(153,185,l)
);
}
);
width = 660;
},
{
anchors = (
{
name = bottom;
pos = (281,0);
},
{
name = ogonek;
pos = (597,10);
},
{
name = top;
pos = (379,700);
}
);
layerId = m003;
shapes = (
{
closed = 1;
nodes = (
(605,0,l),
(463,700,l),
(354,700,l),
(496,0,l)
);
},
{
closed = 1;
nodes = (
(94,0,l),
(432,700,l),
(323,700,l),
(-15,0,l)
);
},
{
closed = 1;
nodes = (
(502,185,l),
(514,275,l),
(156,275,l),
(144,185,l)
);
}
);
width = 660;
}
);
unicode = 65;
},
{
glyphname = AE;
layers = (
{
anchors = (
{
name = bottom;
pos = (330,0);
},
{
name = top;
pos = (330,700);
}
);
layerId = m002;
shapes = (
{
closed = 1;
nodes = (
(441,0,l),
(441,700,l),
(331,700,l),
(331,0,l)
);
},
{
closed = 1;
nodes = (
(637,0,l),
(637,90,l),
(369,90,l),
(369,0,l)
);
},
{
closed = 1;
nodes = (
(607,305,l),
(607,395,l),
(369,395,l),
(369,305,l)
);
},
{
closed = 1;
nodes = (
(637,610,l),
(637,700,l),
(213,700,l),
(213,610,l)
);
},
{
closed = 1;
nodes = (
(137,0,l),
(287,700,l),
(173,700,l),
(23,0,l)
);
},
{
closed = 1;
nodes = (
(414,185,l),
(414,275,l),
(136,275,l),
(136,185,l)
);
}
);
width = 660;
},
{
anchors = (
{
name = bottom;
pos = (295,0);
},
{
name = top;
pos = (393,700);
}
);
layerId = m003;
shapes = (
{
closed = 1;
nodes = (
(406,0,l),
(504,700,l),
(394,700,l),
(296,0,l)
);
},
{
closed = 1;
nodes = (
(602,0,l),
(614,90,l),
(346,90,l),
(334,0,l)
);
},
{
closed = 1;
nodes = (
(615,305,l),
(627,395,l),
(389,395,l),
(377,305,l)
);
},
{
closed = 1;
nodes = (
(688,610,l),
(700,700,l),
(276,700,l),
(264,610,l)
);
},
{
closed = 1;
nodes = (
(102,0,l),
(350,700,l),
(236,700,l),
(-12,0,l)
);
},
{
closed = 1;
nodes = (
(405,185,l),
(417,275,l),
(139,275,l),
(127,185,l)
);
}
);
width = 660;
}
);
metricLeft = "=|";
metricWidth = A;
unicode = 198;
},
{
glyphname = B;
layers = (
{
anchors = (
{
name = bottom;
pos = (330,0);
},
{
name = center;
pos = (330,350);
},
{
name = top;
pos = (330,700);
}
);
layerId = m002;
shapes = (
{
closed = 1;
nodes = (
(381,0,ls),
(511,0,o),
(594,71,o),
(594,183,cs),
(594,303,o),
(499,373,o),
(335,373,c),
(335,333,l),
(479,333,o),
(565,400,o),
(565,513,cs),
(565,628,o),
(475,700,o),
(331,700,cs),
(112,700,l),
(112,610,l),
(341,610,ls),
(412,610,o),
(455,570,o),
(455,503,cs),
(455,436,o),
(412,396,o),
(341,396,cs),
(112,396,l),
(112,306,l),
(341,306,ls),
(431,306,o),
(484,266,o),
(484,199,cs),
(484,132,o),
(429,90,o),
(341,90,cs),
(112,90,l),
(112,0,l)
);
},
{
closed = 1;
nodes = (
(176,0,l),
(176,700,l),
(66,700,l),
(66,0,l)
);
}
);
width = 660;
},
{
anchors = (
{
name = bottom;
pos = (294,0);
},
{
name = center;
pos = (343,350);
},
{
name = top;
pos = (392,700);
}
);
layerId = m003;
shapes = (
{
closed = 1;
nodes = (
(345,0,ls),
(487,0,o),
(586,83,o),
(586,201,cs),
(586,311,o),
(501,373,o),
(351,373,c),
(346,333,l),
(505,333,o),
(603,405,o),
(603,521,cs),
(603,629,o),
(519,700,o),
(393,700,cs),
(174,700,l),
(162,610,l),
(391,610,ls),
(453,610,o),
(491,574,o),
(491,516,cs),
(491,446,o),
(436,396,o),
(360,396,cs),
(131,396,l),
(119,306,l),
(348,306,ls),
(428,306,o),
(477,269,o),
(477,207,cs),
(477,136,o),
(414,90,o),
(317,90,cs),
(88,90,l),
(76,0,l)
);
},
{
closed = 1;
nodes = (
(140,0,l),
(238,700,l),
(128,700,l),
(30,0,l)
);
}
);
width = 660;
}
);
metricLeft = "=|";
metricWidth = A;
unicode = 66;
},
{
glyphname = C;
layers = (
{
anchors = (
{
name = bottom;
pos = (339,0);
},
{
name = top;
pos = (339,700);
}
);
layerId = m002;
shapes = (
{
closed = 1;
nodes = (
(505,-16,o),
(608,70,o),
(627,209,c),
(516,209,l),
(501,126,o),
(439,74,o),
(353,74,cs),
(233,74,o),
(161,177,o),
(161,349,cs),
(161,522,o),
(233,626,o),
(354,626,cs),
(439,626,o),
(501,574,o),
(516,492,c),
(627,492,l),
(609,631,o),
(505,716,o),
(355,716,cs),
(165,716,o),
(51,579,o),
(51,351,cs),
(51,122,o),
(166,-16,o),
(355,-16,cs)
);
}
);
width = 660;
},
{
anchors = (
{
name = bottom;
pos = (297,0);
},
{
name = top;
pos = (395,700);
}
);
layerId = m003;
shapes = (
{
closed = 1;
nodes = (
(470,-16,o),
(587,77,o),
(623,209,c),
(512,209,l),
(487,130,o),
(416,74,o),
(341,74,cs),
(237,74,o),
(173,160,o),
(173,300,cs),
(173,491,o),
(274,626,o),
(416,626,cs),
(493,626,o),
(541,579,o),
(552,492,c),
(663,492,l),
(654,629,o),
(560,716,o),
(419,716,cs),
(210,716,o),
(62,545,o),
(62,303,cs),
(62,107,o),
(170,-16,o),
(340,-16,cs)
);
}
);
width = 660;
}
);
metricRight = "=o*.5";
metricWidth = A;
unicode = 67;
},
{
glyphname = D;
layers = (
{
anchors = (
{
name = bottom;
pos = (344,0);
},
{
name = center;
pos = (344,350);
},
{
name = top;
pos = (344,700);
}
);
layerId = m002;
shapes = (
{
closed = 1;
nodes = (
(318,0,ls),
(502,0,o),
(614,132,o),
(614,350,cs),
(614,568,o),
(502,700,o),
(318,700,cs),
(143,700,l),
(143,610,l),
(297,610,ls),
(426,610,o),
(504,512,o),
(504,350,cs),
(504,188,o),
(426,90,o),
(297,90,cs),
(143,90,l),
(143,0,l)
);
},
{
closed = 1;
nodes = (
(184,0,l),
(184,700,l),
(74,700,l),
(74,0,l)
);
}
);
width = 660;
},
{
anchors = (
{
name = bottom;
pos = (309,0);
},
{
name = center;
pos = (358,350);
},
{
name = top;
pos = (407,700);
}
);
layerId = m003;
shapes = (
{
closed = 1;
nodes = (
(274,0,ls),
(484,0,o),
(634,166,o),
(634,400,cs),
(634,586,o),
(538,700,o),
(381,700,cs),
(206,700,l),
(194,610,l),
(381,610,ls),
(471,610,o),
(523,534,o),
(523,400,cs),
(523,214,o),
(424,90,o),
(274,90,cs),
(120,90,l),
(108,0,l)
);
},
{
closed = 1;
nodes = (
(149,0,l),
(247,700,l),
(137,700,l),
(39,0,l)
);
}
);
width = 660;
}
);
metricLeft = "=l";
metricWidth = A;
unicode = 68;
},
{
glyphname = Eth;
layers = (
{
layerId = m002;
shapes = (
{
pos = (18,0);
ref = D;
},
{
closed = 1;
nodes = (
(348,310,l),
(348,390,l),
(28,390,l),
(28,310,l)
);
}
);
width = 660;
},
{
layerId = m003;
shapes = (
{
pos = (23,0);
ref = D;
},
{
closed = 1;
nodes = (
(347,310,l),
(359,390,l),
(39,390,l),
(27,310,l)
);
}
);
width = 660;
}
);
metricLeft = "=|";
metricWidth = A;
unicode = 208;
},
{
glyphname = E;
layers = (
{
anchors = (
{
name = bottom;
pos = (330,0);
},
{
name = ogonek;
pos = (571,10);
},
{
name = top;
pos = (330,700);
},
{
name = topleft;
pos = (30,700);
}
);
layerId = m002;
shapes = (
{
closed = 1;
nodes = (
(207,0,l),
(207,700,l),
(97,700,l),
(97,0,l)
);
},
{
closed = 1;
nodes = (
(563,0,l),
(563,90,l),
(135,90,l),
(135,0,l)
);
},
{
closed = 1;
nodes = (
(533,305,l),
(533,395,l),
(135,395,l),
(135,305,l)
);
},
{
closed = 1;
nodes = (
(563,610,l),
(563,700,l),
(135,700,l),
(135,610,l)
);
}
);
width = 660;
},
{
anchors = (
{
name = bottom;
pos = (295,0);
},
{
name = ogonek;
pos = (537,10);
},
{
name = top;
pos = (393,700);
},
{
name = topleft;
pos = (93,700);
}
);
layerId = m003;
shapes = (
{
closed = 1;
nodes = (
(172,0,l),
(270,700,l),
(160,700,l),
(62,0,l)
);
},
{
closed = 1;
nodes = (
(528,0,l),
(540,90,l),
(112,90,l),
(100,0,l)
);
},
{
closed = 1;
nodes = (
(541,305,l),
(553,395,l),
(155,395,l),
(143,305,l)
);
},
{
closed = 1;
nodes = (
(614,610,l),
(626,700,l),
(198,700,l),
(186,610,l)
);
}
);
width = 660;
}
);
metricLeft = "=|";
metricWidth = A;
unicode = 69;
},
{
glyphname = F;
layers = (
{
anchors = (
{
name = bottom;
pos = (330,0);
},
{
name = top;
pos = (330,700);
}
);
layerId = m002;
shapes = (
{
closed = 1;
nodes = (
(207,0,l),
(207,700,l),
(97,700,l),
(97,0,l)
);
},
{
closed = 1;
nodes = (
(533,305,l),
(533,395,l),
(135,395,l),
(135,305,l)
);
},
{
closed = 1;
nodes = (
(563,610,l),
(563,700,l),
(135,700,l),
(135,610,l)
);
}
);
width = 660;
},
{
anchors = (
{
name = bottom;
pos = (295,0);
},
{
name = top;
pos = (393,700);
}
);
layerId = m003;
shapes = (
{
closed = 1;
nodes = (
(172,0,l),
(270,700,l),
(160,700,l),
(62,0,l)
);
},
{
closed = 1;
nodes = (
(541,305,l),
(553,395,l),
(155,395,l),
(143,305,l)
);
},
{
closed = 1;
nodes = (
(614,610,l),
(626,700,l),
(198,700,l),
(186,610,l)
);
}
);
width = 660;
}
);
metricLeft = "=|";
metricWidth = A;
unicode = 70;
},
{
glyphname = G;
layers = (
{
anchors = (
{
name = bottom;
pos = (330,0);
},
{
name = top;
pos = (330,700);
}
);
layerId = m002;
shapes = (
{
closed = 1;
nodes = (
(450,-16,o),
(523,73,o),
(523,219,c),
(493,269,l),
(493,148,o),
(436,74,o),
(343,74,cs),
(233,74,o),
(167,177,o),
(167,345,cs),
(167,520,o),
(238,626,o),
(348,626,cs),
(425,626,o),
(478,575,o),
(492,492,c),
(603,492,l),
(584,631,o),
(491,716,o),
(350,716,cs),
(170,716,o),
(57,576,o),
(57,343,cs),
(57,121,o),
(160,-16,o),
(321,-16,cs)
);
},
{
closed = 1;
nodes = (
(603,0,l),
(603,325,l),
(493,325,l),
(493,168,l),
(522,0,l)
);
},
{
closed = 1;
nodes = (
(603,265,l),
(603,355,l),
(285,355,l),
(285,265,l)
);
}
);
width = 660;
},
{
anchors = (
{
name = bottom;
pos = (314,0);
},
{
name = top;
pos = (412,700);
}
);
layerId = m003;
shapes = (
{
closed = 1;
nodes = (
(406,-16,o),
(502,81,o),
(522,219,c),
(499,269,l),
(483,156,o),
(409,74,o),
(323,74,cs),
(234,74,o),
(177,161,o),
(177,298,cs),
(177,480,o),
(275,626,o),
(398,626,cs),
(470,626,o),
(518,577,o),
(529,492,c),
(640,492,l),
(632,627,o),
(538,716,o),
(403,716,cs),
(212,716,o),
(66,534,o),
(66,294,cs),
(66,107,o),
(154,-16,o),
(288,-16,cs)
);
},
{
closed = 1;
nodes = (
(571,0,l),
(616,325,l),
(506,325,l),
(484,168,l),
(490,0,l)
);
},
{
closed = 1;
nodes = (
(608,265,l),
(621,355,l),
(303,355,l),
(290,265,l)
);
}
);
width = 660;
}
);
metricLeft = "=|";
metricWidth = A;
unicode = 71;
},
{
glyphname = H;
layers = (
{
anchors = (
{
name = bottom;
pos = (330,0);
},
{
name = center;
pos = (330,350);
},
{
name = top;
pos = (330,700);
},
{
name = topleft;
pos = (30,700);
}
);
layerId = m002;
shapes = (
{
closed = 1;
nodes = (
(561,0,l),
(561,700,l),
(451,700,l),
(451,0,l)
);
},
{
closed = 1;
nodes = (
(209,0,l),
(209,700,l),
(99,700,l),
(99,0,l)
);
},
{
closed = 1;
nodes = (
(515,305,l),
(515,395,l),
(137,395,l),
(137,305,l)
);
}
);
width = 660;
},
{
anchors = (
{
name = bottom;
pos = (295,0);
},
{
name = center;
pos = (344,350);
},
{
name = top;
pos = (393,700);
},
{
name = topleft;
pos = (93,700);
}
);
layerId = m003;
shapes = (
{
closed = 1;
nodes = (
(526,0,l),
(624,700,l),
(514,700,l),
(416,0,l)
);
},
{
closed = 1;
nodes = (
(174,0,l),
(272,700,l),
(162,700,l),
(64,0,l)
);
},
{
closed = 1;
nodes = (
(523,305,l),
(535,395,l),
(157,395,l),
(145,305,l)
);
}
);
width = 660;
}
);
metricLeft = "=|";
metricWidth = A;
unicode = 72;
},
{
glyphname = Hbar;
layers = (
{
layerId = m002;
shapes = (
{
ref = H;
},
{
closed = 1;
nodes = (
(626,500,l),
(626,580,l),
(34,580,l),
(34,500,l)
);
}
);
width = 660;
},
{
layerId = m003;
shapes = (
{
pos = (14,0);
ref = H;
},
{
closed = 1;
nodes = (
(661,500,l),
(672,580,l),
(80,580,l),
(69,500,l)
);
}
);
width = 660;
}
);
metricLeft = "=|";
metricWidth = A;
unicode = 294;
},
{
glyphname = I;
layers = (
{
anchors = (
{
name = bottom;
pos = (330,0);
},
{
name = ogonek;
pos = (537,10);
},
{
name = top;
pos = (330,700);
},
{
name = topleft;
pos = (30,700);
}
);
layerId = m002;
shapes = (
{
closed = 1;
nodes = (
(385,0,l),
(385,700,l),
(275,700,l),
(275,0,l)
);
},
{
closed = 1;
nodes = (
(529,610,l),
(529,700,l),
(131,700,l),
(131,610,l)
);
},
{
closed = 1;
nodes = (
(529,0,l),
(529,90,l),
(131,90,l),
(131,0,l)
);
}
);
width = 660;
},
{
anchors = (
{
name = bottom;
pos = (296,0);
},
{
name = ogonek;
pos = (504,10);
},
{
name = top;
pos = (394,700);
},
{
name = topleft;
pos = (94,700);
}
);
layerId = m003;
shapes = (
{
closed = 1;
nodes = (
(351,0,l),
(449,700,l),
(339,700,l),
(241,0,l)
);
},
{
closed = 1;
nodes = (
(581,610,l),
(593,700,l),
(195,700,l),
(183,610,l)
);
},
{
closed = 1;
nodes = (
(495,0,l),
(507,90,l),
(109,90,l),
(97,0,l)
);
}
);
width = 660;
}
);
metricLeft = "=|";
metricWidth = A;
unicode = 73;
},
{
glyphname = IJ;
layers = (
{
anchors = (
{
name = bottom;
pos = (330,0);
},
{
name = ogonek;
pos = (-74,10);
},
{
name = top;
pos = (390,700);
},
{
name = topleft;
pos = (-630,700);
}
);
layerId = m002;
shapes = (
{
closed = 1;
nodes = (
(214,310,l),
(214,700,l),
(104,700,l),
(104,310,l)
);
},
{
closed = 1;
nodes = (
(489,-16,o),
(576,73,o),
(576,235,cs),
(576,700,l),
(466,700,l),
(466,235,ls),
(466,130,o),
(420,74,o),
(333,74,cs),
(258,74,o),
(214,115,o),
(214,185,c),
(104,185,l),
(104,58,o),
(188,-16,o),
(332,-16,cs)
);
},
{
closed = 1;
nodes = (
(529,610,l),
(529,700,l),
(326,700,l),
(326,610,l)
);
}
);
width = 660;
},
{
anchors = (
{
name = bottom;
pos = (295,0);
},
{
name = ogonek;
pos = (-108,10);
},
{
name = top;
pos = (453,700);
},
{
name = topleft;
pos = (-567,700);
}
);
layerId = m003;
shapes = (
{
closed = 1;
nodes = (
(222,310,l),
(277,700,l),
(167,700,l),
(112,310,l)
);
},
{
closed = 1;
nodes = (
(448,-16,o),
(552,80,o),
(574,235,cs),
(639,700,l),
(529,700,l),
(464,235,ls),
(450,137,o),
(388,74,o),
(306,74,cs),
(237,74,o),
(196,119,o),
(205,185,c),
(95,185,l),
(78,69,o),
(165,-16,o),
(302,-16,cs)
);
},
{
closed = 1;
nodes = (
(580,610,l),
(592,700,l),
(389,700,l),
(377,610,l)
);
}
);
width = 660;
}
);
metricRight = "=J";
metricWidth = A;
unicode = 306;
},
{
glyphname = J;
layers = (
{
anchors = (
{
name = bottom;
pos = (330,0);
},
{
name = top;
pos = (390,700);
}
);
layerId = m002;
shapes = (
{
closed = 1;
nodes = (
(482,-16,o),
(576,79,o),
(576,235,cs),
(576,700,l),
(466,700,l),
(466,235,ls),
(466,135,o),
(413,74,o),
(326,74,cs),
(244,74,o),
(194,127,o),
(194,215,c),
(84,215,l),
(84,71,o),
(176,-16,o),
(326,-16,cs)
);
},
{
closed = 1;
nodes = (
(529,610,l),
(529,700,l),
(161,700,l),
(161,610,l)
);
}
);
width = 660;
},
{
anchors = (
{
name = bottom;
pos = (295,0);
},
{
name = top;
pos = (453,700);
}
);
layerId = m003;
shapes = (
{
closed = 1;
nodes = (
(446,-16,o),
(552,81,o),
(574,235,cs),
(639,700,l),
(529,700,l),
(464,235,ls),
(450,137,o),
(386,74,o),
(302,74,cs),
(223,74,o),
(177,131,o),
(189,215,c),
(79,215,l),
(60,81,o),
(153,-16,o),
(299,-16,cs)
);
},
{
closed = 1;
nodes = (
(580,610,l),
(592,700,l),
(224,700,l),
(212,610,l)
);
}
);
width = 660;
}
);
metricLeft = "=|";
metricWidth = A;
unicode = 74;
},
{
glyphname = K;
layers = (
{
anchors = (
{
name = bottom;
pos = (330,0);
},
{
name = top;
pos = (330,700);
}
);
layerId = m002;
shapes = (
{
closed = 1;
nodes = (
(591,700,l),
(456,700,l),
(96,319,l),
(135,210,l)
);
},
{
closed = 1;
nodes = (
(169,0,l),
(169,700,l),
(59,700,l),
(59,0,l)
);
},
{
closed = 1;
nodes = (
(601,0,l),
(299,415,l),
(218,354,l),
(476,0,l)
);
}
);
width = 660;
},
{
anchors = (
{
name = bottom;
pos = (295,0);
},
{
name = top;
pos = (393,700);
}
);
layerId = m003;
shapes = (
{
closed = 1;
nodes = (
(654,700,l),
(519,700,l),
(106,319,l),
(129,210,l)
);
},
{
closed = 1;
nodes = (
(134,0,l),
(232,700,l),
(122,700,l),
(24,0,l)
);
},
{
closed = 1;
nodes = (
(566,0,l),
(322,415,l),
(233,354,l),
(441,0,l)
);
}
);
width = 660;
}
);
metricLeft = "=|";
metricWidth = A;
unicode = 75;
},
{
glyphname = L;
layers = (
{
anchors = (
{
name = bottom;
pos = (330,0);
},
{
name = center;
pos = (330,350);
},
{
name = top;
pos = (151,700);
},
{
name = topright;
pos = (630,700);
}
);
layerId = m002;
shapes = (
{
closed = 1;
nodes = (
(207,0,l),
(207,700,l),
(97,700,l),
(97,0,l)
);
},
{
closed = 1;
nodes = (
(563,0,l),
(563,90,l),
(135,90,l),
(135,0,l)
);
}
);
width = 660;
},
{
anchors = (
{
name = bottom;
pos = (295,0);
},
{
name = center;
pos = (344,350);
},
{
name = top;
pos = (214,700);
},
{
name = topright;
pos = (693,700);
}
);
layerId = m003;
shapes = (
{
closed = 1;
nodes = (
(172,0,l),
(270,700,l),
(160,700,l),
(62,0,l)
);
},
{
closed = 1;
nodes = (
(528,0,l),
(540,90,l),
(112,90,l),
(100,0,l)
);
}
);
width = 660;
}
);
metricLeft = "=|";
metricWidth = A;
unicode = 76;
},
{
glyphname = Lslash;
layers = (
{
layerId = m002;
shapes = (
{
ref = L;
},
{
closed = 1;
nodes = (
(377,374,l),
(349,449,l),
(11,326,l),
(38,251,l)
);
}
);
width = 660;
},
{
layerId = m003;
shapes = (
{
ref = L;
},
{
closed = 1;
nodes = (
(380,374,l),
(363,449,l),
(8,326,l),
(24,251,l)
);
}
);
width = 660;
}
);
metricRight = L;
metricWidth = A;
unicode = 321;
},
{
glyphname = M;
layers = (
{
anchors = (
{
name = bottom;
pos = (330,0);
},
{
name = top;
pos = (330,700);
}
);
layerId = m002;
shapes = (
{
closed = 1;
nodes = (
(186,0,l),
(186,545,l),
(154,572,l),
(278,270,l),
(383,270,l),
(506,572,l),
(474,545,l),
(474,0,l),
(580,0,l),
(580,700,l),
(474,700,l),
(315,335,l),
(347,335,l),
(186,700,l),
(80,700,l),
(80,0,l)
);
}
);
width = 660;
},
{
anchors = (
{
name = bottom;
pos = (295,0);
},
{
name = top;
pos = (393,700);
}
);
layerId = m003;
shapes = (
{
closed = 1;
nodes = (
(151,0,l),
(227,545,l),
(199,572,l),
(281,270,l),
(386,270,l),
(551,572,l),
(515,545,l),
(439,0,l),
(545,0,l),
(643,700,l),
(537,700,l),
(327,335,l),
(359,335,l),
(249,700,l),
(143,700,l),
(45,0,l)
);
}
);
width = 660;
}
);
metricLeft = "=|";
metricWidth = A;
unicode = 77;
},
{
glyphname = N;
layers = (
{
anchors = (
{
name = bottom;
pos = (330,0);
},
{
name = top;
pos = (330,700);
}
);
layerId = m002;
shapes = (
{
closed = 1;
nodes = (
(553,0,l),
(212,700,l),
(107,700,l),
(448,0,l)
);
},
{
closed = 1;
nodes = (
(212,0,l),
(212,700,l),
(102,700,l),
(102,0,l)
);
},
{
closed = 1;
nodes = (
(558,0,l),
(558,700,l),
(448,700,l),
(448,0,l)
);
}
);
width = 660;
},
{
anchors = (
{
name = bottom;
pos = (295,0);
},
{
name = top;
pos = (393,700);
}
);
layerId = m003;
shapes = (
{
closed = 1;
nodes = (
(518,0,l),
(275,700,l),
(170,700,l),
(413,0,l)
);
},
{
closed = 1;
nodes = (
(177,0,l),
(275,700,l),
(165,700,l),
(67,0,l)
);
},
{
closed = 1;
nodes = (
(523,0,l),
(621,700,l),
(511,700,l),
(413,0,l)
);
}
);
width = 660;
}
);
metricLeft = "=|";
metricWidth = A;
unicode = 78;
},
{
glyphname = Eng;
layers = (
{
layerId = m002;
shapes = (
{
closed = 1;
nodes = (
(553,0,l),
(212,700,l),
(107,700,l),
(448,0,l)
);
},
{
closed = 1;
nodes = (
(212,0,l),
(212,700,l),
(102,700,l),
(102,0,l)
);
},
{
closed = 1;
nodes = (
(558,0,l),
(558,700,l),
(448,700,l),
(448,0,l)
);
},
{
closed = 1;
nodes = (
(418,-216,ls),
(502,-216,o),
(558,-153,o),
(558,-60,cs),
(558,0,l),
(458,0,l),
(458,-60,ls),
(458,-105,o),
(430,-136,o),
(388,-136,cs),
(318,-136,l),
(318,-216,l)
);
}
);
width = 660;
},
{
layerId = m003;
shapes = (
{
closed = 1;
nodes = (
(518,0,l),
(275,700,l),
(170,700,l),
(413,0,l)
);
},
{
closed = 1;
nodes = (
(177,0,l),
(275,700,l),
(165,700,l),
(67,0,l)
);
},
{
closed = 1;
nodes = (
(523,0,l),
(621,700,l),
(511,700,l),
(413,0,l)
);
},
{
closed = 1;
nodes = (
(352,-216,ls),
(436,-216,o),
(501,-153,o),
(514,-60,cs),
(523,0,l),
(423,0,l),
(414,-60,ls),
(408,-105,o),
(375,-136,o),
(334,-136,cs),
(264,-136,l),
(252,-216,l)
);
}
);
width = 660;
}
);
metricLeft = "=|";
metricWidth = A;
unicode = 330;
},
{
glyphname = O;
layers = (
{
anchors = (
{
name = bottom;
pos = (330,0);
},
{
name = center;
pos = (330,350);
},
{
name = ogonek;
pos = (586,10);
},
{
name = top;
pos = (330,700);
},
{
name = topleft;
pos = (30,700);
},
{
name = topright;
pos = (630,700);
}
);
layerId = m002;
shapes = (
{
closed = 1;
nodes = (
(530,-16,o),
(600,128,o),
(600,350,cs),
(600,572,o),
(530,716,o),
(330,716,cs),
(130,716,o),
(60,572,o),
(60,350,cs),
(60,128,o),
(130,-16,o),
(330,-16,cs)
);
},
{
closed = 1;
nodes = (
(211,74,o),
(170,175,o),
(170,350,cs),
(170,525,o),
(211,626,o),
(330,626,cs),
(449,626,o),
(490,525,o),
(490,350,cs),
(490,175,o),
(449,74,o),
(330,74,cs)
);
}
);
width = 660;
},
{
anchors = (
{
name = bottom;
pos = (309,0);
},
{
name = center;
pos = (358,350);
},
{
name = ogonek;
pos = (566,10);
},
{
name = top;
pos = (407,700);
},
{
name = topleft;
pos = (107,700);
},
{
name = topright;
pos = (707,700);
}
);
layerId = m003;
shapes = (
{
closed = 1;
nodes = (
(497,-16,o),
(622,151,o),
(622,398,cs),
(622,600,o),
(533,716,o),
(377,716,cs),
(192,716,o),
(66,548,o),
(66,302,cs),
(66,100,o),
(155,-16,o),
(311,-16,cs)
);
},
{
closed = 1;
nodes = (
(221,74,o),
(175,146,o),
(175,293,cs),
(175,501,o),
(249,626,o),
(373,626,cs),
(470,626,o),
(513,558,o),
(513,407,cs),
(513,198,o),
(439,74,o),
(315,74,cs)
);
}
);
width = 660;
}
);
metricLeft = "=|";
metricWidth = A;
unicode = 79;
},
{
glyphname = Oslash;
layers = (
{
anchors = (
{
name = bottom;
pos = (330,0);
},
{
name = top;
pos = (330,700);
}
);
layerId = m002;
shapes = (
{
ref = O;
},
{
closed = 1;
nodes = (
(110,-16,l),
(622,662,l),
(549,716,l),
(38,38,l)
);
}
);
width = 660;
},
{
anchors = (
{
name = bottom;
pos = (344,0);
},
{
name = top;
pos = (344,700);
}
);
layerId = m003;
shapes = (
{
ref = O;
},
{
closed = 1;
nodes = (
(73,-16,l),
(680,662,l),
(614,716,l),
(8,38,l)
);
}
);
width = 660;
}
);
metricLeft = "=|";
metricWidth = A;
unicode = 216;
},
{
glyphname = OE;
layers = (
{
layerId = m002;
shapes = (
{
closed = 1;
nodes = (
(623,0,l),
(623,90,l),
(287,90,ls),
(195,90,o),
(147,179,o),
(147,350,cs),
(147,521,o),
(195,610,o),
(287,610,cs),
(623,610,l),
(623,700,l),
(267,700,ls),
(126,700,o),
(37,565,o),
(37,350,cs),
(37,135,o),
(126,0,o),
(267,0,cs)
);
},
{
closed = 1;
nodes = (
(427,0,l),
(427,700,l),
(317,700,l),
(317,0,l)
);
},
{
closed = 1;
nodes = (
(593,305,l),
(593,395,l),
(355,395,l),
(355,305,l)
);
}
);
width = 660;
},
{
layerId = m003;
shapes = (
{
closed = 1;
nodes = (
(591,0,l),
(603,90,l),
(267,90,ls),
(198,90,o),
(157,166,o),
(157,292,cs),
(157,470,o),
(238,610,o),
(341,610,cs),
(677,610,l),
(689,700,l),
(341,700,ls),
(176,700,o),
(47,523,o),
(47,296,cs),
(47,113,o),
(131,0,o),
(267,0,cs)
);
},
{
closed = 1;
nodes = (
(395,0,l),
(493,700,l),
(383,700,l),
(285,0,l)
);
},
{
closed = 1;
nodes = (
(604,305,l),
(616,395,l),
(378,395,l),
(366,305,l)
);
}
);
width = 660;
}
);
metricLeft = "=|";
metricWidth = A;
unicode = 338;
},
{
glyphname = P;
layers = (
{
anchors = (
{
name = bottom;
pos = (330,0);
},
{
name = top;
pos = (330,700);
}
);
layerId = m002;
shapes = (
{
closed = 1;
nodes = (
(354,276,ls),
(487,276,o),
(584,365,o),
(584,488,cs),
(584,611,o),
(486,700,o),
(350,700,cs),
(122,700,l),
(122,610,l),
(360,610,ls),
(426,610,o),
(474,558,o),
(474,488,cs),
(474,418,o),
(426,366,o),
(360,366,cs),
(122,366,l),
(122,276,l)
);
},
{
closed = 1;
nodes = (
(186,0,l),
(186,700,l),
(76,700,l),
(76,0,l)
);
}
);
width = 660;
},
{
anchors = (
{
name = bottom;
pos = (295,0);
},
{
name = top;
pos = (393,700);
}
);
layerId = m003;
shapes = (
{
closed = 1;
nodes = (
(358,276,ls),
(511,276,o),
(619,372,o),
(619,509,cs),
(619,626,o),
(540,700,o),
(413,700,cs),
(185,700,l),
(173,610,l),
(413,610,ls),
(471,610,o),
(509,568,o),
(509,504,cs),
(509,422,o),
(447,366,o),
(358,366,cs),
(138,366,l),
(126,276,l)
);
},
{
closed = 1;
nodes = (
(151,0,l),
(249,700,l),
(139,700,l),
(41,0,l)
);
}
);
width = 660;
}
);
metricLeft = "=|";
metricWidth = A;
unicode = 80;
},
{
glyphname = Thorn;
layers = (
{
anchors = (
{
name = bottom;
pos = (330,0);
},
{
name = top;
pos = (330,700);
}
);
layerId = m002;
shapes = (
{
closed = 1;
nodes = (
(354,138,ls),
(487,138,o),
(584,227,o),
(584,350,cs),
(584,473,o),
(486,562,o),
(350,562,cs),
(122,562,l),
(122,472,l),
(360,472,ls),
(426,472,o),
(474,420,o),
(474,350,cs),
(474,280,o),
(426,228,o),
(360,228,cs),
(122,228,l),
(122,138,l)
);
},
{
closed = 1;
nodes = (
(186,0,l),
(186,700,l),
(76,700,l),
(76,0,l)
);
}
);
width = 660;
},
{
anchors = (
{
name = bottom;
pos = (295,0);
},
{
name = top;
pos = (393,700);
}
);
layerId = m003;
shapes = (
{
closed = 1;
nodes = (
(338,138,ls),
(471,138,o),
(581,227,o),
(598,350,cs),
(615,473,o),
(530,562,o),
(394,562,cs),
(166,562,l),
(153,472,l),
(391,472,ls),
(457,472,o),
(498,420,o),
(488,350,cs),
(478,280,o),
(423,228,o),
(357,228,cs),
(119,228,l),
(106,138,l)
);
},
{
closed = 1;
nodes = (
(151,0,l),
(249,700,l),
(139,700,l),
(41,0,l)
);
}
);
width = 660;
}
);
metricLeft = "=|";
metricWidth = A;
unicode = 222;
},
{
glyphname = Q;
layers = (
{
anchors = (
{
name = bottom;
pos = (320,0);
},
{
name = top;
pos = (320,700);
}
);
layerId = m002;
shapes = (
{
ref = O;
},
{
closed = 1;
nodes = (
(386,278,l),
(313,224,l),
(518,-46,l),
(590,8,l)
);
}
);
width = 660;
},
{
anchors = (
{
name = bottom;
pos = (271,0);
},
{
name = top;
pos = (369,700);
}
);
layerId = m003;
shapes = (
{
ref = O;
},
{
closed = 1;
nodes = (
(376,278,l),
(295,224,l),
(462,-46,l),
(542,8,l)
);
}
);
width = 660;
}
);
metricLeft = "=|";
metricWidth = A;
unicode = 81;
},
{
glyphname = R;
layers = (
{
anchors = (
{
name = bottom;
pos = (330,0);
},
{
name = top;
pos = (330,700);
}
);
layerId = m002;
shapes = (
{
closed = 1;
nodes = (
(347,276,ls),
(476,276,o),
(577,359,o),
(577,488,cs),
(577,619,o),
(474,700,o),
(343,700,cs),
(114,700,l),
(114,610,l),
(353,610,ls),
(422,610,o),
(467,557,o),
(467,488,cs),
(467,419,o),
(422,366,o),
(353,366,cs),
(114,366,l),
(114,276,l)
);
},
{
closed = 1;
nodes = (
(178,0,l),
(178,700,l),
(68,700,l),
(68,0,l)
);
},
{
closed = 1;
nodes = (
(592,0,l),
(382,330,l),
(262,330,l),
(472,0,l)
);
}
);
width = 660;
},
{
anchors = (
{
name = bottom;
pos = (295,0);
},
{
name = top;
pos = (393,700);
}
);
layerId = m003;
shapes = (
{
closed = 1;
nodes = (
(358,276,ls),
(511,276,o),
(619,372,o),
(619,509,cs),
(619,626,o),
(540,700,o),
(413,700,cs),
(185,700,l),
(173,610,l),
(413,610,ls),
(471,610,o),
(509,568,o),
(509,504,cs),
(509,422,o),
(447,366,o),
(358,366,cs),
(138,366,l),
(126,276,l)
);
},
{
closed = 1;
nodes = (
(143,0,l),
(241,700,l),
(131,700,l),
(33,0,l)
);
},
{
closed = 1;
nodes = (
(557,0,l),
(393,330,l),
(273,330,l),
(437,0,l)
);
}
);
width = 660;
}
);
metricLeft = "=|";
metricWidth = A;
unicode = 82;
},
{
glyphname = S;
layers = (
{
anchors = (
{
name = bottom;
pos = (330,0);
},
{
name = top;
pos = (330,700);
}
);
layerId = m002;
shapes = (
{
closed = 1;
nodes = (
(504,-16,o),
(603,62,o),
(602,188,cs),
(601,293,o),
(532,374,o),
(418,398,cs),
(301,423,ls),
(235,437,o),
(198,475,o),
(198,527,cs),
(198,588,o),
(249,626,o),
(332,626,cs),
(418,626,o),
(473,585,o),
(477,517,c),
(587,517,l),
(576,642,o),
(480,716,o),
(329,716,cs),
(181,716,o),
(88,641,o),
(88,523,cs),
(88,426,o),
(149,353,o),
(255,331,cs),
(374,306,ls),
(447,291,o),
(491,246,o),
(492,186,cs),
(493,118,o),
(437,74,o),
(347,74,cs),
(250,74,o),
(184,124,o),
(168,208,c),
(58,208,l),
(69,69,o),
(176,-16,o),
(344,-16,cs)
);
}
);
width = 660;
},
{
anchors = (
{
name = bottom;
pos = (294,0);
},
{
name = top;
pos = (392,700);
}
);
layerId = m003;
shapes = (
{
closed = 1;
nodes = (
(486,-16,o),
(594,71,o),
(594,204,cs),
(594,303,o),
(535,377,o),
(438,398,cs),
(324,423,ls),
(267,435,o),
(235,469,o),
(235,517,cs),
(235,582,o),
(294,626,o),
(382,626,cs),
(461,626,o),
(503,591,o),
(513,517,c),
(623,517,l),
(615,644,o),
(527,716,o),
(379,716,cs),
(223,716,o),
(123,635,o),
(123,510,cs),
(123,418,o),
(177,350,o),
(265,331,cs),
(381,306,ls),
(446,292,o),
(483,253,o),
(483,198,cs),
(483,125,o),
(416,74,o),
(320,74,cs),
(229,74,o),
(176,119,o),
(161,208,c),
(51,208,l),
(53,68,o),
(154,-16,o),
(319,-16,cs)
);
}
);
width = 660;
}
);
metricLeft = "=|";
metricWidth = A;
unicode = 83;
},
{
glyphname = Germandbls;
layers = (
{
anchors = (
{
name = bottom;
pos = (330,0);
},
{
name = top;
pos = (330,700);
}
);
layerId = m002;
shapes = (
{
closed = 1;
nodes = (
(378,0,ls),
(511,0,o),
(606,79,o),
(606,190,cs),
(606,303,o),
(507,382,o),
(354,391,c),
(383,348,l),
(532,538,l),
(532,598,l),
(470,675,o),
(386,716,o),
(292,716,cs),
(152,716,o),
(54,625,o),
(54,495,cs),
(54,0,l),
(164,0,l),
(164,485,ls),
(164,568,o),
(219,626,o),
(298,626,cs),
(349,626,o),
(396,602,o),
(432,558,c),
(308,400,l),
(308,310,l),
(425,310,o),
(496,266,o),
(496,195,cs),
(496,133,o),
(443,90,o),
(368,90,cs),
(275,90,l),
(275,0,l)
);
}
);
width = 660;
},
{
anchors = (
{
name = bottom;
pos = (294,0);
},
{
name = top;
pos = (392,700);
}
);
layerId = m003;
shapes = (
{
closed = 1;
nodes = (
(342,0,ls),
(496,0,o),
(599,82,o),
(599,204,cs),
(599,314,o),
(516,383,o),
(373,391,c),
(396,348,l),
(571,538,l),
(580,598,l),
(527,678,o),
(453,716,o),
(354,716,cs),
(208,716,o),
(107,633,o),
(87,495,cs),
(18,0,l),
(128,0,l),
(196,485,ls),
(208,572,o),
(266,626,o),
(349,626,cs),
(402,626,o),
(442,604,o),
(474,558,c),
(328,400,l),
(315,310,l),
(431,310,o),
(488,276,o),
(488,206,cs),
(488,137,o),
(429,90,o),
(342,90,cs),
(251,90,l),
(239,0,l)
);
}
);
width = 660;
}
);
metricLeft = "=|";
metricWidth = A;
unicode = 7838;
},
{
glyphname = T;
layers = (
{
anchors = (
{
name = bottom;
pos = (330,0);
},
{
name = center;
pos = (330,350);
},
{
name = top;
pos = (330,700);
}
);
layerId = m002;
shapes = (
{
closed = 1;
nodes = (
(385,0,l),
(385,700,l),
(275,700,l),
(275,0,l)
);
},
{
closed = 1;
nodes = (
(615,610,l),
(615,700,l),
(45,700,l),
(45,610,l)
);
}
);
width = 660;
},
{
anchors = (
{
name = bottom;
pos = (295,0);
},
{
name = center;
pos = (344,350);
},
{
name = top;
pos = (393,700);
}
);
layerId = m003;
shapes = (
{
closed = 1;
nodes = (
(350,0,l),
(448,700,l),
(338,700,l),
(240,0,l)
);
},
{
closed = 1;
nodes = (
(666,610,l),
(678,700,l),
(108,700,l),
(96,610,l)
);
}
);
width = 660;
}
);
metricLeft = "=|";
metricWidth = A;
unicode = 84;
},
{
glyphname = Tbar;
layers = (
{
layerId = m002;
shapes = (
{
ref = T;
},
{
closed = 1;
nodes = (
(490,310,l),
(490,390,l),
(170,390,l),
(170,310,l)
);
}
);
width = 660;
},
{
layerId = m003;
shapes = (
{
ref = T;
},
{
closed = 1;
nodes = (
(484,310,l),
(496,390,l),
(176,390,l),
(164,310,l)
);
}
);
width = 660;
}
);
metricLeft = "=|";
metricWidth = A;
unicode = 358;
},
{
glyphname = U;
layers = (
{
anchors = (
{
name = bottom;
pos = (330,0);
},
{
name = ogonek;
pos = (452,10);
},
{
name = top;
pos = (330,700);
},
{
name = topright;
pos = (630,700);
}
);
layerId = m002;
shapes = (
{
closed = 1;
nodes = (
(472,-16,o),
(576,90,o),
(576,235,cs),
(576,700,l),
(466,700,l),
(466,235,ls),
(466,141,o),
(410,74,o),
(330,74,cs),
(250,74,o),
(194,141,o),
(194,235,cs),
(194,700,l),
(84,700,l),
(84,235,ls),
(84,90,o),
(188,-16,o),
(330,-16,cs)
);
}
);
width = 660;
},
{
anchors = (
{
name = bottom;
pos = (295,0);
},
{
name = ogonek;
pos = (418,10);
},
{
name = top;
pos = (393,700);
},
{
name = topright;
pos = (693,700);
}
);
layerId = m003;
shapes = (
{
closed = 1;
nodes = (
(447,-16,o),
(552,82,o),
(574,235,cs),
(639,700,l),
(529,700,l),
(464,235,ls),
(451,138,o),
(388,74,o),
(305,74,cs),
(223,74,o),
(179,137,o),
(192,235,cs),
(257,700,l),
(147,700,l),
(82,235,ls),
(61,89,o),
(154,-16,o),
(303,-16,cs)
);
}
);
width = 660;
}
);
metricLeft = "=|";
metricWidth = A;
unicode = 85;
},
{
glyphname = V;
layers = (
{
anchors = (
{
name = bottom;
pos = (330,0);
},
{
name = top;
pos = (330,700);
}
);
layerId = m002;
shapes = (
{
closed = 1;
nodes = (
(405,0,l),
(635,700,l),
(525,700,l),
(295,0,l)
);
},
{
closed = 1;
nodes = (
(365,0,l),
(135,700,l),
(25,700,l),
(255,0,l)
);
}
);
width = 660;
},
{
anchors = (
{
name = bottom;
pos = (295,0);
},
{
name = top;
pos = (393,700);
}
);
layerId = m003;
shapes = (
{
closed = 1;
nodes = (
(370,0,l),
(698,700,l),
(588,700,l),
(260,0,l)
);
},
{
closed = 1;
nodes = (
(330,0,l),
(198,700,l),
(88,700,l),
(220,0,l)
);
}
);
width = 660;
}
);
metricLeft = "=|";
metricWidth = A;
unicode = 86;
},
{
glyphname = W;
layers = (
{
anchors = (
{
name = bottom;
pos = (330,0);
},
{
name = top;
pos = (330,700);
}
);
layerId = m002;
shapes = (
{
closed = 1;
nodes = (
(80,0,l),
(186,0,l),
(347,365,l),
(315,365,l),
(474,0,l),
(580,0,l),
(580,700,l),
(474,700,l),
(474,155,l),
(506,128,l),
(383,430,l),
(278,430,l),
(154,128,l),
(186,155,l),
(186,700,l),
(80,700,l)
);
}
);
width = 660;
},
{
anchors = (
{
name = bottom;
pos = (295,0);
},
{
name = top;
pos = (393,700);
}
);
layerId = m003;
shapes = (
{
closed = 1;
nodes = (
(45,0,l),
(151,0,l),
(363,365,l),
(331,365,l),
(439,0,l),
(545,0,l),
(643,700,l),
(537,700,l),
(461,155,l),
(489,128,l),
(408,430,l),
(303,430,l),
(137,128,l),
(173,155,l),
(249,700,l),
(143,700,l)
);
}
);
width = 660;
}
);
metricLeft = "=|";
metricWidth = A;
unicode = 87;
},
{
glyphname = X;
layers = (
{
anchors = (
{
name = bottom;
pos = (330,0);
},
{
name = top;
pos = (330,700);
}
);
layerId = m002;
shapes = (
{
closed = 1;
nodes = (
(195,0,l),
(585,700,l),
(465,700,l),
(75,0,l)
);
},
{
closed = 1;
nodes = (
(585,0,l),
(195,700,l),
(75,700,l),
(465,0,l)
);
}
);
width = 660;
},
{
anchors = (
{
name = bottom;
pos = (295,0);
},
{
name = top;
pos = (393,700);
}
);
layerId = m003;
shapes = (
{
closed = 1;
nodes = (
(160,0,l),
(648,700,l),
(528,700,l),
(40,0,l)
);
},
{
closed = 1;
nodes = (
(550,0,l),
(258,700,l),
(138,700,l),
(430,0,l)
);
}
);
width = 660;
}
);
metricLeft = "=|";
metricWidth = A;
unicode = 88;
},
{
glyphname = Y;
layers = (
{
anchors = (
{
name = bottom;
pos = (330,0);
},
{
name = top;
pos = (330,700);
},
{
name = topleft;
pos = (20,700);
}
);
layerId = m002;
shapes = (
{
closed = 1;
nodes = (
(385,0,l),
(385,260,l),
(645,700,l),
(535,700,l),
(307,314,l),
(353,314,l),
(125,700,l),
(15,700,l),
(275,260,l),
(275,0,l)
);
}
);
width = 660;
},
{
anchors = (
{
name = bottom;
pos = (295,0);
},
{
name = top;
pos = (393,700);
},
{
name = topleft;
pos = (83,700);
}
);
layerId = m003;
shapes = (
{
closed = 1;
nodes = (
(350,0,l),
(386,260,l),
(708,700,l),
(598,700,l),
(316,314,l),
(362,314,l),
(188,700,l),
(78,700,l),
(276,260,l),
(240,0,l)
);
}
);
width = 660;
}
);
metricLeft = "=|";
metricWidth = A;
unicode = 89;
},
{
glyphname = Z;
layers = (
{
anchors = (
{
name = bottom;
pos = (330,0);
},
{
name = center;
pos = (330,350);
},
{
name = top;
pos = (330,700);
}
);
layerId = m002;
shapes = (
{
closed = 1;
nodes = (
(574,600,l),
(574,700,l),
(86,700,l),
(86,610,l),
(459,610,l),
(86,100,l),
(86,0,l),
(574,0,l),
(574,90,l),
(201,90,l)
);
}
);
width = 660;
},
{
anchors = (
{
name = bottom;
pos = (295,0);
},
{
name = center;
pos = (344,350);
},
{
name = top;
pos = (393,700);
}
);
layerId = m003;
shapes = (
{
closed = 1;
nodes = (
(623,600,l),
(637,700,l),
(149,700,l),
(137,610,l),
(510,610,l),
(65,100,l),
(51,0,l),
(539,0,l),
(551,90,l),
(178,90,l)
);
}
);
width = 660;
}
);
metricLeft = "=|";
metricWidth = A;
unicode = 90;
},
{
glyphname = a;
layers = (
{
anchors = (
{
name = bottom;
pos = (309,0);
},
{
name = ogonek;
pos = (545,10);
},
{
name = top;
pos = (329,500);
}
);
layerId = m002;
shapes = (
{
closed = 1;
nodes = (
(537,0,l),
(537,361,ls),
(537,455,o),
(451,516,o),
(320,516,cs),
(190,516,o),
(102,455,o),
(102,364,c),
(202,364,l),
(202,408,o),
(246,436,o),
(316,436,cs),
(391,436,o),
(437,405,o),
(437,354,cs),
(437,0,l)
);
},
{
closed = 1;
nodes = (
(382,-16,o),
(467,63,o),
(467,170,c),
(437,210,l),
(437,128,o),
(369,64,o),
(282,64,cs),
(222,64,o),
(181,97,o),
(181,145,cs),
(181,194,o),
(223,225,o),
(307,233,cs),
(388,241,ls),
(448,247,o),
(487,282,o),
(487,328,c),
(437,354,l),
(437,332,o),
(417,317,o),
(387,314,cs),
(289,305,ls),
(157,293,o),
(81,233,o),
(81,142,cs),
(81,50,o),
(158,-16,o),
(265,-16,cs)
);
}
);
width = 660;
},
{
anchors = (
{
name = bottom;
pos = (272,0);
},
{
name = ogonek;
pos = (509,10);
},
{
name = top;
pos = (362,500);
}
);
layerId = m003;
shapes = (
{
closed = 1;
nodes = (
(500,0,l),
(551,361,ls),
(564,455,o),
(483,516,o),
(344,516,cs),
(213,516,o),
(130,461,o),
(116,364,c),
(216,364,l),
(222,411,o),
(264,436,o),
(338,436,cs),
(415,436,o),
(456,410,o),
(451,365,c),
(400,0,l)
);
},
{
closed = 1;
nodes = (
(352,-16,o),
(433,56,o),
(449,170,c),
(429,210,l),
(417,121,o),
(353,64,o),
(266,64,cs),
(202,64,o),
(163,95,o),
(163,146,cs),
(163,198,o),
(204,223,o),
(303,233,cs),
(385,241,ls),
(449,247,o),
(489,278,o),
(496,328,c),
(451,365,l),
(447,335,o),
(422,316,o),
(381,313,cs),
(295,305,ls),
(138,290,o),
(62,238,o),
(62,141,cs),
(62,47,o),
(133,-16,o),
(239,-16,cs)
);
}
);
width = 660;
}
);
metricLeft = "=o*1.25";
metricWidth = A;
unicode = 97;
},
{
glyphname = ae;
layers = (
{
anchors = (
{
name = bottom;
pos = (330,0);
},
{
name = top;
pos = (330,500);
}
);
layerId = m002;
shapes = (
{
closed = 1;
nodes = (
(545,-16,o),
(612,43,o),
(627,130,c),
(526,130,l),
(517,91,o),
(489,64,o),
(450,64,cs),
(373,64,o),
(362,154,o),
(362,244,cs),
(362,340,o),
(374,436,o),
(456,436,cs),
(530,436,o),
(531,347,o),
(531,261,c),
(573,300,l),
(302,300,l),
(302,220,l),
(634,220,l),
(634,250,ls),
(634,389,o),
(582,516,o),
(459,516,cs),
(334,516,o),
(282,388,o),
(282,247,cs),
(282,109,o),
(335,-16,o),
(457,-16,cs)
);
},
{
closed = 1;
nodes = (
(266,-16,o),
(332,61,o),
(332,160,c),
(282,210,l),
(282,135,o),
(258,64,o),
(192,64,cs),
(152,64,o),
(126,98,o),
(126,141,cs),
(126,191,o),
(166,223,o),
(218,230,cs),
(276,238,o),
(322,273,o),
(322,328,c),
(282,354,l),
(282,318,o),
(243,305,o),
(203,302,cs),
(104,294,o),
(26,233,o),
(26,138,cs),
(26,51,o),
(85,-16,o),
(170,-16,cs)
);
},
{
closed = 1;
nodes = (
(362,140,l),
(362,361,ls),
(362,450,o),
(298,516,o),
(209,516,cs),
(117,516,o),
(47,454,o),
(47,364,c),
(147,364,l),
(147,404,o),
(173,436,o),
(212,436,cs),
(255,436,o),
(282,399,o),
(282,354,cs),
(282,140,l)
);
}
);
width = 660;
},
{
anchors = (
{
name = bottom;
pos = (298,0);
},
{
name = top;
pos = (368,500);
}
);
layerId = m003;
shapes = (
{
closed = 1;
nodes = (
(526,-16,o),
(585,41,o),
(612,130,c),
(511,130,l),
(500,89,o),
(472,64,o),
(432,64,cs),
(361,64,o),
(357,140,o),
(357,199,cs),
(357,333,o),
(378,436,o),
(468,436,cs),
(550,436,o),
(547,351,o),
(534,261,c),
(582,300,l),
(312,300,l),
(301,220,l),
(632,220,l),
(636,250,ls),
(655,393,o),
(610,516,o),
(479,516,cs),
(338,516,o),
(280,375,o),
(280,222,cs),
(280,86,o),
(326,-16,o),
(440,-16,cs)
);
},
{
closed = 1;
nodes = (
(238,-16,o),
(292,44,o),
(310,160,c),
(267,210,l),
(251,104,o),
(227,64,o),
(178,64,cs),
(137,64,o),
(111,92,o),
(111,137,cs),
(111,188,o),
(146,222,o),
(209,230,cs),
(274,238,o),
(315,273,o),
(324,328,c),
(289,368,l),
(283,327,o),
(250,305,o),
(188,301,cs),
(79,293,o),
(9,228,o),
(9,133,cs),
(9,45,o),
(69,-16,o),
(154,-16,cs)
);
},
{
closed = 1;
nodes = (
(337,140,l),
(369,361,ls),
(382,450,o),
(321,516,o),
(224,516,cs),
(133,516,o),
(68,458,o),
(54,364,c),
(154,364,l),
(160,408,o),
(188,436,o),
(228,436,cs),
(268,436,o),
(294,407,o),
(289,368,cs),
(257,140,l)
);
}
);
width = 660;
}
);
metricLeft = "=|";
metricWidth = A;
unicode = 230;
},
{
glyphname = b;
layers = (
{
anchors = (
{
name = bottom;
pos = (345,0);
},
{
name = center;
pos = (345,250);
},
{
name = top;
pos = (345,500);
}
);
layerId = m002;
shapes = (
{
closed = 1;
nodes = (
(502,-16,o),
(595,92,o),
(595,250,cs),
(595,407,o),
(502,516,o),
(368,516,cs),
(249,516,o),
(160,432,o),
(160,320,cs),
(160,180,ls),
(160,68,o),
(249,-16,o),
(368,-16,cs)
);
},
{
closed = 1;
nodes = (
(195,0,l),
(195,700,l),
(95,700,l),
(95,0,l)
);
},
{
closed = 1;
nodes = (
(260,64,o),
(195,142,o),
(195,250,cs),
(195,358,o),
(260,436,o),
(349,436,cs),
(436,436,o),
(495,361,o),
(495,250,cs),
(495,139,o),
(436,64,o),
(349,64,cs)
);
}
);
width = 660;
},
{
anchors = (
{
name = bottom;
pos = (304,0);
},
{
name = center;
pos = (339,250);
},
{
name = top;
pos = (374,500);
}
);
layerId = m003;
shapes = (
{
closed = 1;
nodes = (
(495,-16,o),
(597,98,o),
(597,266,cs),
(597,419,o),
(514,516,o),
(385,516,cs),
(270,516,o),
(185,440,o),
(168,320,cs),
(148,180,ls),
(132,67,o),
(214,-16,o),
(343,-16,cs)
);
},
{
closed = 1;
nodes = (
(154,0,l),
(252,700,l),
(152,700,l),
(54,0,l)
);
},
{
closed = 1;
nodes = (
(245,64,o),
(191,128,o),
(191,234,cs),
(191,353,o),
(260,436,o),
(357,436,cs),
(443,436,o),
(496,370,o),
(496,262,cs),
(496,142,o),
(431,64,o),
(333,64,cs)
);
}
);
width = 660;
}
);
metricRight = "=o";
metricWidth = A;
unicode = 98;
},
{
glyphname = c;
layers = (
{
anchors = (
{
name = bottom;
pos = (330,0);
},
{
name = top;
pos = (330,500);
}
);
layerId = m002;
shapes = (
{
closed = 1;
nodes = (
(468,-16,o),
(559,58,o),
(573,170,c),
(472,170,l),
(464,106,o),
(413,64,o),
(345,64,cs),
(253,64,o),
(187,142,o),
(187,250,cs),
(187,358,o),
(252,436,o),
(343,436,cs),
(410,436,o),
(461,394,o),
(471,330,c),
(573,330,l),
(559,442,o),
(468,516,o),
(347,516,cs),
(197,516,o),
(87,403,o),
(87,250,cs),
(87,97,o),
(197,-16,o),
(347,-16,cs)
);
}
);
width = 660;
},
{
anchors = (
{
name = bottom;
pos = (296,0);
},
{
name = top;
pos = (366,500);
}
);
layerId = m003;
shapes = (
{
closed = 1;
nodes = (
(444,-16,o),
(533,52,o),
(564,170,c),
(463,170,l),
(445,103,o),
(394,64,o),
(326,64,cs),
(240,64,o),
(187,126,o),
(187,229,cs),
(187,349,o),
(260,436,o),
(362,436,cs),
(430,436,o),
(473,398,o),
(484,330,c),
(586,330,l),
(578,445,o),
(493,516,o),
(365,516,cs),
(201,516,o),
(86,397,o),
(86,229,cs),
(86,79,o),
(178,-16,o),
(322,-16,cs)
);
}
);
width = 660;
}
);
metricLeft = "=|";
metricWidth = A;
unicode = 99;
},
{
glyphname = d;
layers = (
{
anchors = (
{
name = bottom;
pos = (315,0);
},
{
name = center;
pos = (315,250);
},
{
name = top;
pos = (666,500);
},
{
name = topright;
pos = (615,800);
}
);
layerId = m002;
shapes = (
{
closed = 1;
nodes = (
(565,0,l),
(565,700,l),
(465,700,l),
(465,0,l)
);
},
{
closed = 1;
nodes = (
(411,-16,o),
(500,68,o),
(500,180,cs),
(500,320,ls),
(500,432,o),
(411,516,o),
(292,516,cs),
(158,516,o),
(65,407,o),
(65,250,cs),
(65,92,o),
(158,-16,o),
(292,-16,cs)
);
},
{
closed = 1;
nodes = (
(224,64,o),
(165,139,o),
(165,250,cs),
(165,361,o),
(224,436,o),
(311,436,cs),
(400,436,o),
(465,358,o),
(465,250,cs),
(465,142,o),
(400,64,o),
(311,64,cs)
);
}
);
width = 660;
},
{
anchors = (
{
name = bottom;
pos = (287,0);
},
{
name = center;
pos = (322,250);
},
{
name = top;
pos = (708,500);
},
{
name = topright;
pos = (699,800);
}
);
layerId = m003;
shapes = (
{
closed = 1;
nodes = (
(537,0,l),
(635,700,l),
(535,700,l),
(437,0,l)
);
},
{
closed = 1;
nodes = (
(390,-16,o),
(475,60,o),
(492,180,cs),
(512,320,ls),
(528,433,o),
(446,516,o),
(317,516,cs),
(165,516,o),
(63,402,o),
(63,234,cs),
(63,81,o),
(146,-16,o),
(275,-16,cs)
);
},
{
closed = 1;
nodes = (
(216,64,o),
(164,130,o),
(164,238,cs),
(164,357,o),
(229,436,o),
(327,436,cs),
(415,436,o),
(469,372,o),
(469,266,cs),
(469,147,o),
(400,64,o),
(303,64,cs)
);
}
);
width = 660;
}
);
metricLeft = "=o";
metricWidth = A;
unicode = 100;
},
{
glyphname = eth;
layers = (
{
anchors = (
{
name = bottom;
pos = (315,0);
},
{
name = top;
pos = (315,800);
}
);
layerId = m002;
shapes = (
{
closed = 1;
nodes = (
(465,-16,o),
(565,104,o),
(565,287,cs),
(565,485,o),
(455,661,o),
(276,748,c),
(216,688,l),
(381,608,o),
(473,471,o),
(473,306,c),
(487,306,l),
(487,422,o),
(413,500,o),
(303,500,cs),
(168,500,o),
(65,388,o),
(65,242,cs),
(65,93,o),
(170,-16,o),
(313,-16,cs)
);
},
{
closed = 1;
nodes = (
(227,64,o),
(165,138,o),
(165,242,cs),
(165,346,o),
(227,420,o),
(315,420,cs),
(403,420,o),
(465,346,o),
(465,242,cs),
(465,138,o),
(403,64,o),
(315,64,cs)
);
},
{
closed = 1;
nodes = (
(516,638,l),
(493,700,l),
(173,590,l),
(195,528,l)
);
}
);
width = 660;
},
{
anchors = (
{
name = bottom;
pos = (279,0);
},
{
name = top;
pos = (391,800);
}
);
layerId = m003;
shapes = (
{
closed = 1;
nodes = (
(464,-16,o),
(574,121,o),
(574,339,cs),
(574,527,o),
(493,671,o),
(345,748,c),
(277,688,l),
(415,616,o),
(484,509,o),
(484,365,c),
(496,341,l),
(496,439,o),
(429,500,o),
(322,500,cs),
(171,500,o),
(60,379,o),
(60,216,cs),
(60,71,o),
(146,-16,o),
(287,-16,cs)
);
},
{
closed = 1;
nodes = (
(206,64,o),
(160,118,o),
(160,215,cs),
(160,335,o),
(231,420,o),
(331,420,cs),
(414,420,o),
(465,362,o),
(465,266,cs),
(465,149,o),
(390,64,o),
(288,64,cs)
);
},
{
closed = 1;
nodes = (
(569,638,l),
(555,700,l),
(220,590,l),
(233,528,l)
);
}
);
width = 660;
}
);
metricLeft = "=o";
metricWidth = A;
unicode = 240;
},
{
glyphname = dcroat;
layers = (
{
layerId = m002;
shapes = (
{
ref = d;
},
{
closed = 1;
nodes = (
(615,579,l),
(615,636,l),
(315,636,l),
(315,579,l)
);
}
);
width = 660;
},
{
layerId = m003;
shapes = (
{
ref = d;
},
{
closed = 1;
nodes = (
(667,579,l),
(675,636,l),
(375,636,l),
(367,579,l)
);
}
);
width = 660;
}
);
metricLeft = "=d";
metricWidth = A;
unicode = 273;
},
{
glyphname = e;
layers = (
{
anchors = (
{
name = bottom;
pos = (330,0);
},
{
name = ogonek;
pos = (484,10);
},
{
name = top;
pos = (330,500);
}
);
layerId = m002;
shapes = (
{
closed = 1;
nodes = (
(470,-16,o),
(554,41,o),
(569,130,c),
(468,130,l),
(458,89,o),
(416,64,o),
(357,64,cs),
(254,64,o),
(184,140,o),
(184,254,cs),
(184,360,o),
(245,436,o),
(330,436,cs),
(414,436,o),
(473,363,o),
(473,261,c),
(515,300,l),
(124,300,l),
(124,220,l),
(576,220,l),
(576,250,ls),
(576,404,o),
(473,516,o),
(331,516,cs),
(189,516,o),
(84,403,o),
(84,251,cs),
(84,93,o),
(194,-16,o),
(354,-16,cs)
);
}
);
width = 660;
},
{
anchors = (
{
name = bottom;
pos = (296,0);
},
{
name = ogonek;
pos = (451,10);
},
{
name = top;
pos = (366,500);
}
);
layerId = m003;
shapes = (
{
closed = 1;
nodes = (
(443,-16,o),
(524,36,o),
(553,130,c),
(452,130,l),
(435,87,o),
(395,64,o),
(335,64,cs),
(239,64,o),
(184,124,o),
(184,228,cs),
(184,348,o),
(257,436,o),
(356,436,cs),
(444,436,o),
(491,367,o),
(475,261,c),
(523,300,l),
(132,300,l),
(121,220,l),
(573,220,l),
(577,250,ls),
(598,405,o),
(507,516,o),
(357,516,cs),
(199,516,o),
(83,393,o),
(83,224,cs),
(83,74,o),
(175,-16,o),
(327,-16,cs)
);
}
);
width = 660;
}
);
metricLeft = "=|";
metricWidth = A;
unicode = 101;
},
{
glyphname = f;
layers = (
{
anchors = (
{
name = bottom;
pos = (330,0);
},
{
name = top;
pos = (360,700);
}
);
layerId = m002;
shapes = (
{
closed = 1;
nodes = (
(350,0,l),
(350,570,l),
(350,609,o),
(383,636,o),
(430,636,c),
(560,636,l),
(560,716,l),
(400,716,l),
(313,716,o),
(250,659,o),
(250,580,c),
(250,0,l)
);
},
{
closed = 1;
nodes = (
(560,420,l),
(560,500,l),
(120,500,l),
(120,420,l)
);
}
);
width = 660;
},
{
anchors = (
{
name = bottom;
pos = (281,0);
},
{
name = top;
pos = (409,700);
}
);
layerId = m003;
shapes = (
{
closed = 1;
nodes = (
(301,0,l),
(381,570,ls),
(387,611,o),
(420,636,o),
(470,636,cs),
(600,636,l),
(611,716,l),
(451,716,ls),
(358,716,o),
(294,664,o),
(282,580,cs),
(201,0,l)
);
},
{
closed = 1;
nodes = (
(570,420,l),
(581,500,l),
(141,500,l),
(130,420,l)
);
}
);
width = 660;
}
);
metricWidth = A;
unicode = 102;
},
{
glyphname = g;
layers = (
{
anchors = (
{
name = bottom;
pos = (330,-200);
},
{
name = top;
pos = (330,500);
}
);
layerId = m002;
shapes = (
{
closed = 1;
nodes = (
(469,-216,o),
(580,-125,o),
(580,0,cs),
(580,500,l),
(480,500,l),
(480,0,ls),
(480,-79,o),
(410,-136,o),
(314,-136,cs),
(251,-136,o),
(210,-111,o),
(199,-66,c),
(99,-66,l),
(109,-158,o),
(192,-216,o),
(315,-216,cs)
);
},
{
closed = 1;
nodes = (
(425,-16,o),
(515,68,o),
(515,180,cs),
(515,320,ls),
(515,432,o),
(426,516,o),
(308,516,cs),
(173,516,o),
(80,408,o),
(80,250,cs),
(80,92,o),
(173,-16,o),
(307,-16,cs)
);
},
{
closed = 1;
nodes = (
(239,64,o),
(180,139,o),
(180,250,cs),
(180,361,o),
(239,436,o),
(326,436,cs),
(415,436,o),
(480,358,o),
(480,250,cs),
(480,142,o),
(415,64,o),
(326,64,cs)
);
}
);
width = 660;
},
{
anchors = (
{
name = bottom;
pos = (273,-200);
},
{
name = top;
pos = (371,500);
}
);
layerId = m003;
shapes = (
{
closed = 1;
nodes = (
(423,-216,o),
(532,-134,o),
(551,0,cs),
(621,500,l),
(521,500,l),
(451,0,ls),
(439,-83,o),
(370,-136,o),
(270,-136,cs),
(202,-136,o),
(165,-112,o),
(161,-66,c),
(61,-66,l),
(58,-159,o),
(136,-216,o),
(266,-216,cs)
);
},
{
closed = 1;
nodes = (
(404,-16,o),
(489,60,o),
(506,180,cs),
(526,320,ls),
(542,433,o),
(460,516,o),
(331,516,cs),
(179,516,o),
(77,402,o),
(77,234,cs),
(77,81,o),
(160,-16,o),
(289,-16,cs)
);
},
{
closed = 1;
nodes = (
(230,64,o),
(178,130,o),
(178,238,cs),
(178,357,o),
(243,436,o),
(341,436,cs),
(429,436,o),
(483,372,o),
(483,266,cs),
(483,147,o),
(414,64,o),
(317,64,cs)
);
}
);
width = 660;
}
);
metricLeft = "=|";
metricWidth = A;
unicode = 103;
},
{
glyphname = h;
layers = (
{
anchors = (
{
name = bottom;
pos = (330,0);
},
{
name = center;
pos = (330,400);
},
{
name = top;
pos = (149,700);
}
);
layerId = m002;
shapes = (
{
closed = 1;
nodes = (
(561,0,l),
(561,339,ls),
(561,443,o),
(481,516,o),
(367,516,cs),
(256,516,o),
(173,447,o),
(173,353,c),
(199,280,l),
(199,364,o),
(262,427,o),
(345,426,cs),
(413,425,o),
(461,381,o),
(461,319,cs),
(461,0,l)
);
},
{
closed = 1;
nodes = (
(199,0,l),
(199,700,l),
(99,700,l),
(99,0,l)
);
}
);
width = 660;
},
{
anchors = (
{
name = bottom;
pos = (295,0);
},
{
name = center;
pos = (351,400);
},
{
name = top;
pos = (212,700);
}
);
layerId = m003;
shapes = (
{
closed = 1;
nodes = (
(526,0,l),
(573,339,ls),
(588,442,o),
(514,516,o),
(394,516,cs),
(283,516,o),
(202,453,o),
(187,353,c),
(203,280,l),
(216,370,o),
(278,427,o),
(362,426,cs),
(435,425,o),
(479,381,o),
(471,319,cs),
(426,0,l)
);
},
{
closed = 1;
nodes = (
(164,0,l),
(262,700,l),
(162,700,l),
(64,0,l)
);
}
);
width = 660;
}
);
metricLeft = "=|";
metricWidth = A;
unicode = 104;
},
{
glyphname = hbar;
layers = (
{
layerId = m002;
shapes = (
{
ref = h;
},
{
closed = 1;
nodes = (
(349,579,l),
(349,636,l),
(49,636,l),
(49,579,l)
);
}
);
width = 660;
},
{
layerId = m003;
shapes = (
{
ref = h;
},
{
closed = 1;
nodes = (
(391,579,l),
(399,636,l),
(99,636,l),
(91,579,l)
);
}
);
width = 660;
}
);
metricRight = "=h";
metricWidth = A;
unicode = 295;
},
{
glyphname = idotless;
layers = (
{
anchors = (
{
name = bottom;
pos = (330,0);
},
{
name = ogonek;
pos = (574,10);
},
{
name = top;
pos = (330,500);
}
);
layerId = m002;
shapes = (
{
closed = 1;
nodes = (
(380,0,l),
(380,500,l),
(280,500,l),
(280,0,l)
);
},
{
closed = 1;
nodes = (
(94,0,l),
(566,0,l),
(566,90,l),
(94,90,l)
);
},
{
closed = 1;
nodes = (
(124,410,l),
(319,410,l),
(319,500,l),
(124,500,l)
);
}
);
width = 660;
},
{
anchors = (
{
name = bottom;
pos = (296,0);
},
{
name = ogonek;
pos = (541,10);
},
{
name = top;
pos = (366,500);
}
);
layerId = m003;
shapes = (
{
closed = 1;
nodes = (
(346,0,l),
(416,500,l),
(316,500,l),
(246,0,l)
);
},
{
closed = 1;
nodes = (
(60,0,l),
(532,0,l),
(544,90,l),
(72,90,l)
);
},
{
closed = 1;
nodes = (
(147,410,l),
(342,410,l),
(355,500,l),
(160,500,l)
);
}
);
width = 660;
}
);
metricLeft = "=|";
metricWidth = A;
unicode = 305;
},
{
glyphname = ij;
layers = (
{
anchors = (
{
name = bottom;
pos = (899,-200);
},
{
name = ogonek;
pos = (458,10);
},
{
name = top;
pos = (934,745);
}
);
layerId = m002;
shapes = (
{
closed = 1;
nodes = (
(244,0,l),
(244,500,l),
(144,500,l),
(144,0,l)
);
},
{
closed = 1;
nodes = (
(8,0,l),
(380,0,l),
(380,90,l),
(8,90,l)
);
},
{
closed = 1;
nodes = (
(38,410,l),
(183,410,l),
(183,500,l),
(38,500,l)
);
},
{
closed = 1;
nodes = (
(259,615,l),
(259,755,l),
(129,755,l),
(129,615,l)
);
},
{
closed = 1;
nodes = (
(427,-216,ls),
(554,-216,o),
(637,-158,o),
(637,-70,cs),
(637,500,l),
(537,500,l),
(537,-60,ls),
(537,-106,o),
(494,-136,o),
(427,-136,cs),
(297,-136,l),
(297,-216,l)
);
},
{
closed = 1;
nodes = (
(380,410,l),
(561,410,l),
(561,500,l),
(380,500,l)
);
},
{
closed = 1;
nodes = (
(652,615,l),
(652,755,l),
(522,755,l),
(522,615,l)
);
}
);
width = 660;
},
{
anchors = (
{
name = bottom;
pos = (836,-200);
},
{
name = ogonek;
pos = (424,10);
},
{
name = top;
pos = (1004,745);
}
);
layerId = m003;
shapes = (
{
closed = 1;
nodes = (
(209,0,l),
(279,500,l),
(179,500,l),
(109,0,l)
);
},
{
closed = 1;
nodes = (
(-27,0,l),
(345,0,l),
(357,90,l),
(-15,90,l)
);
},
{
closed = 1;
nodes = (
(60,410,l),
(205,410,l),
(218,500,l),
(73,500,l)
);
},
{
closed = 1;
nodes = (
(310,615,l),
(330,755,l),
(200,755,l),
(180,615,l)
);
},
{
closed = 1;
nodes = (
(362,-216,ls),
(497,-216,o),
(579,-164,o),
(592,-70,cs),
(672,500,l),
(572,500,l),
(494,-60,ls),
(486,-109,o),
(444,-136,o),
(373,-136,cs),
(243,-136,l),
(231,-216,l)
);
},
{
closed = 1;
nodes = (
(402,410,l),
(584,410,l),
(596,500,l),
(415,500,l)
);
},
{
closed = 1;
nodes = (
(704,615,l),
(723,755,l),
(593,755,l),
(574,615,l)
);
}
);
width = 660;
}
);
metricLeft = "=|";
metricWidth = A;
unicode = 307;
},
{
glyphname = jdotless;
layers = (
{
anchors = (
{
name = bottom;
pos = (375,-200);
},
{
name = top;
pos = (410,500);
}
);
layerId = m002;
shapes = (
{
closed = 1;
nodes = (
(250,-216,ls),
(377,-216,o),
(460,-158,o),
(460,-70,cs),
(460,500,l),
(360,500,l),
(360,-60,ls),
(360,-106,o),
(317,-136,o),
(250,-136,cs),
(80,-136,l),
(80,-216,l)
);
},
{
closed = 1;
nodes = (
(129,410,l),
(384,410,l),
(384,500,l),
(129,500,l)
);
}
);
width = 660;
},
{
anchors = (
{
name = bottom;
pos = (308,-200);
},
{
name = top;
pos = (441,500);
}
);
layerId = m003;
shapes = (
{
closed = 1;
nodes = (
(180,-216,ls),
(317,-216,o),
(398,-165,o),
(411,-70,cs),
(491,500,l),
(391,500,l),
(312,-60,ls),
(306,-109,o),
(263,-136,o),
(192,-136,cs),
(22,-136,l),
(10,-216,l)
);
},
{
closed = 1;
nodes = (
(147,410,l),
(402,410,l),
(415,500,l),
(160,500,l)
);
}
);
width = 660;
}
);
metricLeft = "=g";
metricWidth = A;
unicode = 567;
},
{
glyphname = k;
layers = (
{
anchors = (
{
name = bottom;
pos = (333,0);
},
{
name = top;
pos = (333,800);
}
);
layerId = m002;
shapes = (
{
closed = 1;
nodes = (
(581,500,l),
(454,500,l),
(159,220,l),
(219,148,l)
);
},
{
closed = 1;
nodes = (
(231,0,l),
(231,720,l),
(131,720,l),
(131,0,l)
);
},
{
closed = 1;
nodes = (
(595,0,l),
(373,330,l),
(281,296,l),
(478,0,l)
);
}
);
width = 660;
},
{
anchors = (
{
name = bottom;
pos = (302,0);
},
{
name = top;
pos = (414,800);
}
);
layerId = m003;
shapes = (
{
closed = 1;
nodes = (
(620,500,l),
(493,500,l),
(159,220,l),
(209,148,l)
);
},
{
closed = 1;
nodes = (
(200,0,l),
(301,720,l),
(201,720,l),
(100,0,l)
);
},
{
closed = 1;
nodes = (
(564,0,l),
(388,330,l),
(291,296,l),
(447,0,l)
);
}
);
width = 660;
}
);
metricRight = "=o";
metricWidth = A;
unicode = 107;
},
{
glyphname = l;
layers = (
{
anchors = (
{
name = bottom;
pos = (360,0);
},
{
name = center;
pos = (302,400);
},
{
name = top;
pos = (491,500);
},
{
name = topright;
pos = (602,800);
}
);
layerId = m002;
shapes = (
{
closed = 1;
nodes = (
(74,630,l),
(269,630,l),
(269,720,l),
(74,720,l)
);
},
{
closed = 1;
nodes = (
(530,0,l),
(530,80,l),
(410,80,ls),
(363,80,o),
(330,107,o),
(330,146,cs),
(330,720,l),
(230,720,l),
(230,136,ls),
(230,57,o),
(293,0,o),
(380,0,cs)
);
}
);
width = 660;
},
{
anchors = (
{
name = bottom;
pos = (325,0);
},
{
name = center;
pos = (323,400);
},
{
name = top;
pos = (526,500);
},
{
name = topright;
pos = (679,800);
}
);
layerId = m003;
shapes = (
{
closed = 1;
nodes = (
(128,630,l),
(323,630,l),
(335,720,l),
(140,720,l)
);
},
{
closed = 1;
nodes = (
(495,0,l),
(506,80,l),
(386,80,ls),
(340,80,o),
(310,108,o),
(316,146,cs),
(396,720,l),
(296,720,l),
(214,136,ls),
(203,58,o),
(259,0,o),
(345,0,cs)
);
}
);
width = 660;
}
);
metricLeft = "=h*0.75";
metricWidth = A;
unicode = 108;
},
{
glyphname = lslash;
layers = (
{
layerId = m002;
shapes = (
{
ref = l;
},
{
closed = 1;
nodes = (
(462,377,l),
(435,452,l),
(134,343,l),
(162,267,l)
);
}
);
width = 660;
},
{
layerId = m003;
shapes = (
{
ref = l;
},
{
closed = 1;
nodes = (
(466,377,l),
(449,452,l),
(133,343,l),
(150,267,l)
);
}
);
width = 660;
}
);
metricLeft = l;
metricWidth = A;
unicode = 322;
},
{
glyphname = m;
layers = (
{
anchors = (
{
name = bottom;
pos = (330,0);
},
{
name = top;
pos = (330,500);
}
);
layerId = m002;
shapes = (
{
closed = 1;
nodes = (
(611,0,l),
(611,339,ls),
(611,447,o),
(562,516,o),
(485,516,cs),
(401,516,o),
(344,435,o),
(344,317,c),
(378,254,l),
(378,374,o),
(401,427,o),
(453,426,cs),
(494,425,o),
(513,391,o),
(513,319,cs),
(513,0,l)
);
},
{
closed = 1;
nodes = (
(146,0,l),
(148,500,l),
(49,500,l),
(49,0,l)
);
},
{
closed = 1;
nodes = (
(378,0,l),
(378,339,ls),
(378,446,o),
(329,516,o),
(253,516,cs),
(174,516,o),
(123,438,o),
(123,317,c),
(147,254,l),
(147,384,o),
(163,427,o),
(212,426,cs),
(258,425,o),
(282,388,o),
(282,319,cs),
(282,0,l)
);
}
);
width = 660;
},
{
anchors = (
{
name = bottom;
pos = (296,0);
},
{
name = top;
pos = (366,500);
}
);
layerId = m003;
shapes = (
{
closed = 1;
nodes = (
(576,0,l),
(623,339,ls),
(639,446,o),
(596,516,o),
(513,516,cs),
(429,516,o),
(371,444,o),
(353,317,c),
(379,254,l),
(397,386,o),
(419,427,o),
(470,426,cs),
(517,425,o),
(533,391,o),
(523,319,cs),
(478,0,l)
);
},
{
closed = 1;
nodes = (
(112,0,l),
(184,500,l),
(85,500,l),
(15,0,l)
);
},
{
closed = 1;
nodes = (
(344,0,l),
(391,339,ls),
(406,447,o),
(365,516,o),
(284,516,cs),
(204,516,o),
(151,446,o),
(133,317,c),
(149,254,l),
(168,392,o),
(185,427,o),
(232,426,cs),
(283,425,o),
(303,390,o),
(293,319,cs),
(248,0,l)
);
}
);
width = 660;
}
);
metricLeft = "=|";
metricWidth = A;
unicode = 109;
},
{
glyphname = n;
layers = (
{
anchors = (
{
name = bottom;
pos = (330,0);
},
{
name = top;
pos = (330,500);
}
);
layerId = m002;
shapes = (
{
closed = 1;
nodes = (
(561,0,l),
(561,339,ls),
(561,443,o),
(481,516,o),
(367,516,cs),
(256,516,o),
(173,447,o),
(173,353,c),
(199,280,l),
(199,364,o),
(262,427,o),
(345,426,cs),
(413,425,o),
(461,381,o),
(461,319,cs),
(461,0,l)
);
},
{
closed = 1;
nodes = (
(199,0,l),
(199,500,l),
(99,500,l),
(99,0,l)
);
}
);
width = 660;
},
{
anchors = (
{
name = bottom;
pos = (295,0);
},
{
name = top;
pos = (365,500);
}
);
layerId = m003;
shapes = (
{
closed = 1;
nodes = (
(526,0,l),
(573,339,ls),
(588,442,o),
(514,516,o),
(394,516,cs),
(283,516,o),
(202,453,o),
(187,353,c),
(203,280,l),
(216,370,o),
(278,427,o),
(362,426,cs),
(435,425,o),
(479,381,o),
(471,319,cs),
(426,0,l)
);
},
{
closed = 1;
nodes = (
(164,0,l),
(234,500,l),
(134,500,l),
(64,0,l)
);
}
);
width = 660;
}
);
metricLeft = "=|";
metricWidth = A;
unicode = 110;
},
{
glyphname = eng;
layers = (
{
layerId = m002;
shapes = (
{
closed = 1;
nodes = (
(461,-60,ls),
(461,-105,o),
(433,-136,o),
(391,-136,cs),
(321,-136,l),
(321,-216,l),
(421,-216,ls),
(505,-216,o),
(561,-153,o),
(561,-60,cs),
(561,339,ls),
(561,443,o),
(481,516,o),
(367,516,cs),
(256,516,o),
(173,447,o),
(173,353,c),
(199,280,l),
(199,364,o),
(262,427,o),
(345,426,cs),
(413,425,o),
(461,381,o),
(461,319,cs)
);
},
{
closed = 1;
nodes = (
(199,0,l),
(199,500,l),
(99,500,l),
(99,0,l)
);
}
);
width = 660;
},
{
layerId = m003;
shapes = (
{
closed = 1;
nodes = (
(417,-60,ls),
(411,-105,o),
(379,-136,o),
(337,-136,cs),
(267,-136,l),
(255,-216,l),
(355,-216,ls),
(439,-216,o),
(504,-153,o),
(517,-60,cs),
(573,339,ls),
(588,443,o),
(518,516,o),
(404,516,cs),
(293,516,o),
(201,447,o),
(187,353,c),
(203,280,l),
(215,364,o),
(287,427,o),
(370,426,cs),
(438,425,o),
(479,381,o),
(471,319,cs)
);
},
{
closed = 1;
nodes = (
(164,0,l),
(234,500,l),
(134,500,l),
(64,0,l)
);
}
);
width = 660;
}
);
metricLeft = "=|";
metricWidth = A;
unicode = 331;
},
{
glyphname = o;
layers = (
{
anchors = (
{
name = bottom;
pos = (330,0);
},
{
name = center;
pos = (330,250);
},
{
name = ogonek;
pos = (594,10);
},
{
name = top;
pos = (330,500);
},
{
name = topright;
pos = (640,500);
}
);
layerId = m002;
shapes = (
{
closed = 1;
nodes = (
(483,-16,o),
(595,96,o),
(595,250,cs),
(595,404,o),
(483,516,o),
(330,516,cs),
(177,516,o),
(65,404,o),
(65,250,cs),
(65,96,o),
(177,-16,o),
(330,-16,cs)
);
},
{
closed = 1;
nodes = (
(234,64,o),
(165,142,o),
(165,250,cs),
(165,358,o),
(234,436,o),
(330,436,cs),
(426,436,o),
(495,358,o),
(495,250,cs),
(495,142,o),
(426,64,o),
(330,64,cs)
);
}
);
width = 660;
},
{
anchors = (
{
name = bottom;
pos = (295,0);
},
{
name = center;
pos = (330,250);
},
{
name = ogonek;
pos = (560,10);
},
{
name = top;
pos = (365,500);
},
{
name = topright;
pos = (675,500);
}
);
layerId = m003;
shapes = (
{
closed = 1;
nodes = (
(479,-16,o),
(598,101,o),
(598,267,cs),
(598,419,o),
(501,516,o),
(349,516,cs),
(180,516,o),
(62,399,o),
(62,233,cs),
(62,81,o),
(159,-16,o),
(311,-16,cs)
);
},
{
closed = 1;
nodes = (
(220,64,o),
(163,127,o),
(163,231,cs),
(163,350,o),
(240,436,o),
(348,436,cs),
(440,436,o),
(497,373,o),
(497,269,cs),
(497,150,o),
(420,64,o),
(312,64,cs)
);
}
);
width = 660;
}
);
metricLeft = "=|";
metricWidth = A;
unicode = 111;
},
{
glyphname = oslash;
layers = (
{
anchors = (
{
name = top;
pos = (330,500);
}
);
layerId = m002;
shapes = (
{
ref = o;
},
{
closed = 1;
nodes = (
(122,-16,l),
(595,458,l),
(539,515,l),
(65,41,l)
);
}
);
width = 660;
},
{
anchors = (
{
name = top;
pos = (365,500);
}
);
layerId = m003;
shapes = (
{
ref = o;
},
{
closed = 1;
nodes = (
(85,-16,l),
(624,458,l),
(576,515,l),
(36,41,l)
);
}
);
width = 660;
}
);
metricLeft = "=|";
metricWidth = A;
unicode = 248;
},
{
glyphname = oe;
layers = (
{
layerId = m002;
shapes = (
{
closed = 1;
nodes = (
(547,-16,o),
(614,43,o),
(629,130,c),
(528,130,l),
(519,91,o),
(491,64,o),
(452,64,cs),
(375,64,o),
(364,154,o),
(364,244,cs),
(364,340,o),
(376,436,o),
(458,436,cs),
(532,436,o),
(533,347,o),
(533,261,c),
(575,300,l),
(304,300,l),
(304,220,l),
(636,220,l),
(636,250,ls),
(636,389,o),
(584,516,o),
(461,516,cs),
(336,516,o),
(284,388,o),
(284,247,cs),
(284,109,o),
(337,-16,o),
(459,-16,cs)
);
},
{
closed = 1;
nodes = (
(305,-16,o),
(364,81,o),
(364,250,cs),
(364,420,o),
(306,516,o),
(203,516,cs),
(95,516,o),
(24,410,o),
(24,250,cs),
(24,90,o),
(95,-16,o),
(203,-16,cs)
);
},
{
closed = 1;
nodes = (
(145,64,o),
(124,113,o),
(124,250,cs),
(124,387,o),
(145,436,o),
(204,436,cs),
(263,436,o),
(284,387,o),
(284,250,cs),
(284,113,o),
(263,64,o),
(204,64,cs)
);
}
);
width = 660;
},
{
layerId = m003;
shapes = (
{
closed = 1;
nodes = (
(535,-16,o),
(594,41,o),
(621,130,c),
(520,130,l),
(509,89,o),
(481,64,o),
(441,64,cs),
(370,64,o),
(366,140,o),
(366,199,cs),
(366,333,o),
(387,436,o),
(477,436,cs),
(559,436,o),
(556,351,o),
(543,261,c),
(591,300,l),
(321,300,l),
(310,220,l),
(641,220,l),
(645,250,ls),
(664,393,o),
(619,516,o),
(488,516,cs),
(347,516,o),
(289,375,o),
(289,222,cs),
(289,86,o),
(335,-16,o),
(449,-16,cs)
);
},
{
closed = 1;
nodes = (
(283,-16,o),
(366,112,o),
(366,285,cs),
(366,428,o),
(310,516,o),
(217,516,cs),
(103,516,o),
(15,385,o),
(15,215,cs),
(15,74,o),
(75,-16,o),
(170,-16,cs)
);
},
{
closed = 1;
nodes = (
(134,64,o),
(112,112,o),
(112,205,cs),
(112,339,o),
(158,436,o),
(219,436,cs),
(264,436,o),
(288,383,o),
(288,291,cs),
(288,162,o),
(241,64,o),
(178,64,cs)
);
}
);
width = 660;
}
);
metricLeft = "=|";
metricWidth = A;
unicode = 339;
},
{
glyphname = p;
layers = (
{
anchors = (
{
name = bottom;
pos = (345,0);
},
{
name = top;
pos = (345,500);
}
);
layerId = m002;
shapes = (
{
closed = 1;
nodes = (
(195,-200,l),
(195,500,l),
(95,500,l),
(95,-200,l)
);
},
{
closed = 1;
nodes = (
(502,-16,o),
(595,92,o),
(595,250,cs),
(595,407,o),
(502,516,o),
(368,516,cs),
(249,516,o),
(160,432,o),
(160,320,cs),
(160,180,ls),
(160,68,o),
(249,-16,o),
(368,-16,cs)
);
},
{
closed = 1;
nodes = (
(260,64,o),
(195,142,o),
(195,250,cs),
(195,358,o),
(260,436,o),
(349,436,cs),
(436,436,o),
(495,361,o),
(495,250,cs),
(495,139,o),
(436,64,o),
(349,64,cs)
);
}
);
width = 660;
},
{
anchors = (
{
name = bottom;
pos = (303,0);
},
{
name = top;
pos = (373,500);
}
);
layerId = m003;
shapes = (
{
closed = 1;
nodes = (
(125,-200,l),
(223,500,l),
(123,500,l),
(25,-200,l)
);
},
{
closed = 1;
nodes = (
(495,-16,o),
(597,98,o),
(597,266,cs),
(597,419,o),
(514,516,o),
(385,516,cs),
(270,516,o),
(185,440,o),
(168,320,cs),
(148,180,ls),
(132,67,o),
(214,-16,o),
(343,-16,cs)
);
},
{
closed = 1;
nodes = (
(245,64,o),
(191,128,o),
(191,234,cs),
(191,353,o),
(260,436,o),
(357,436,cs),
(443,436,o),
(496,370,o),
(496,262,cs),
(496,142,o),
(431,64,o),
(333,64,cs)
);
}
);
width = 660;
}
);
metricRight = "=o";
metricWidth = A;
unicode = 112;
},
{
glyphname = thorn;
layers = (
{
anchors = (
{
name = bottom;
pos = (345,0);
},
{
name = top;
pos = (345,500);
}
);
layerId = m002;
shapes = (
{
closed = 1;
nodes = (
(513,-16,o),
(595,102,o),
(595,250,cs),
(595,398,o),
(513,516,o),
(365,516,cs),
(246,516,o),
(160,439,o),
(160,320,cs),
(160,180,ls),
(160,61,o),
(246,-16,o),
(365,-16,cs)
);
},
{
closed = 1;
nodes = (
(195,-200,l),
(195,700,l),
(95,700,l),
(95,-200,l)
);
},
{
closed = 1;
nodes = (
(246,64,o),
(195,151,o),
(195,250,cs),
(195,349,o),
(246,436,o),
(345,436,cs),
(444,436,o),
(495,349,o),
(495,250,cs),
(495,151,o),
(444,64,o),
(345,64,cs)
);
}
);
width = 660;
},
{
anchors = (
{
name = bottom;
pos = (304,0);
},
{
name = top;
pos = (374,500);
}
);
layerId = m003;
shapes = (
{
closed = 1;
nodes = (
(495,-16,o),
(597,98,o),
(597,266,cs),
(597,419,o),
(514,516,o),
(385,516,cs),
(270,516,o),
(185,440,o),
(168,320,cs),
(148,180,ls),
(132,67,o),
(214,-16,o),
(343,-16,cs)
);
},
{
closed = 1;
nodes = (
(126,-200,l),
(252,700,l),
(152,700,l),
(26,-200,l)
);
},
{
closed = 1;
nodes = (
(245,64,o),
(191,128,o),
(191,234,cs),
(191,353,o),
(260,436,o),
(357,436,cs),
(443,436,o),
(496,370,o),
(496,262,cs),
(496,142,o),
(431,64,o),
(333,64,cs)
);
}
);
width = 660;
}
);
metricRight = "=o";
metricWidth = A;
unicode = 254;
},
{
glyphname = q;
layers = (
{
anchors = (
{
name = bottom;
pos = (315,0);
},
{
name = top;
pos = (315,500);
}
);
layerId = m002;
shapes = (
{
closed = 1;
nodes = (
(565,-200,l),
(565,500,l),
(465,500,l),
(465,-200,l)
);
},
{
closed = 1;
nodes = (
(411,-16,o),
(500,68,o),
(500,180,cs),
(500,320,ls),
(500,432,o),
(411,516,o),
(292,516,cs),
(158,516,o),
(65,407,o),
(65,250,cs),
(65,92,o),
(158,-16,o),
(292,-16,cs)
);
},
{
closed = 1;
nodes = (
(224,64,o),
(165,139,o),
(165,250,cs),
(165,361,o),
(224,436,o),
(311,436,cs),
(400,436,o),
(465,358,o),
(465,250,cs),
(465,142,o),
(400,64,o),
(311,64,cs)
);
}
);
width = 660;
},
{
anchors = (
{
name = bottom;
pos = (287,0);
},
{
name = top;
pos = (357,500);
}
);
layerId = m003;
shapes = (
{
closed = 1;
nodes = (
(509,-200,l),
(607,500,l),
(507,500,l),
(409,-200,l)
);
},
{
closed = 1;
nodes = (
(390,-16,o),
(475,60,o),
(492,180,cs),
(512,320,ls),
(528,433,o),
(446,516,o),
(317,516,cs),
(165,516,o),
(63,402,o),
(63,234,cs),
(63,81,o),
(146,-16,o),
(275,-16,cs)
);
},
{
closed = 1;
nodes = (
(216,64,o),
(164,130,o),
(164,238,cs),
(164,357,o),
(229,436,o),
(327,436,cs),
(415,436,o),
(469,372,o),
(469,266,cs),
(469,147,o),
(400,64,o),
(303,64,cs)
);
}
);
width = 660;
}
);
metricLeft = "=o";
metricWidth = A;
unicode = 113;
},
{
glyphname = r;
layers = (
{
anchors = (
{
name = bottom;
pos = (330,0);
},
{
name = top;
pos = (330,500);
}
);
layerId = m002;
shapes = (
{
closed = 1;
nodes = (
(330,326,o),
(386,410,o),
(474,410,cs),
(581,410,l),
(581,500,l),
(474,500,ls),
(369,500,o),
(294,407,o),
(294,277,c),
(330,194,l)
);
},
{
closed = 1;
nodes = (
(330,0,l),
(330,349,l),
(304,349,l),
(304,500,l),
(230,500,l),
(230,0,l)
);
},
{
closed = 1;
nodes = (
(79,0,l),
(501,0,l),
(501,90,l),
(79,90,l)
);
},
{
closed = 1;
nodes = (
(109,410,l),
(304,410,l),
(304,500,l),
(109,500,l)
);
}
);
width = 660;
},
{
anchors = (
{
name = bottom;
pos = (296,0);
},
{
name = top;
pos = (366,500);
}
);
layerId = m003;
shapes = (
{
closed = 1;
nodes = (
(343,336,o),
(403,410,o),
(497,410,cs),
(604,410,l),
(617,500,l),
(510,500,ls),
(397,500,o),
(319,417,o),
(299,277,c),
(323,194,l)
);
},
{
closed = 1;
nodes = (
(296,0,l),
(345,349,l),
(319,349,l),
(340,500,l),
(266,500,l),
(196,0,l)
);
},
{
closed = 1;
nodes = (
(45,0,l),
(467,0,l),
(479,90,l),
(57,90,l)
);
},
{
closed = 1;
nodes = (
(132,410,l),
(327,410,l),
(340,500,l),
(145,500,l)
);
}
);
width = 660;
}
);
metricLeft = "=|";
metricWidth = A;
unicode = 114;
},
{
glyphname = s;
layers = (
{
anchors = (
{
name = bottom;
pos = (330,0);
},
{
name = top;
pos = (330,500);
}
);
layerId = m002;
shapes = (
{
closed = 1;
nodes = (
(474,-16,o),
(564,45,o),
(564,139,cs),
(564,220,o),
(498,280,o),
(397,291,cs),
(308,301,ls),
(247,307,o),
(215,331,o),
(215,369,cs),
(215,413,o),
(259,440,o),
(330,440,cs),
(400,440,o),
(445,413,o),
(456,366,c),
(556,366,l),
(552,458,o),
(466,516,o),
(334,516,cs),
(202,516,o),
(115,457,o),
(115,366,cs),
(115,290,o),
(175,233,o),
(267,223,cs),
(351,214,ls),
(429,204,o),
(464,181,o),
(464,139,cs),
(464,92,o),
(416,64,o),
(338,64,cs),
(256,64,o),
(205,95,o),
(196,149,c),
(96,149,l),
(102,48,o),
(195,-16,o),
(336,-16,cs)
);
}
);
width = 660;
},
{
anchors = (
{
name = bottom;
pos = (294,0);
},
{
name = top;
pos = (364,500);
}
);
layerId = m003;
shapes = (
{
closed = 1;
nodes = (
(459,-16,o),
(549,45,o),
(549,143,cs),
(549,224,o),
(493,281,o),
(402,291,cs),
(314,301,ls),
(258,307,o),
(230,329,o),
(230,366,cs),
(230,412,o),
(277,440,o),
(353,440,cs),
(423,440,o),
(462,416,o),
(471,366,c),
(571,366,l),
(566,462,o),
(487,516,o),
(353,516,cs),
(212,516,o),
(129,460,o),
(129,364,cs),
(129,288,o),
(182,232,o),
(262,223,cs),
(345,214,ls),
(418,206,o),
(448,185,o),
(448,143,cs),
(448,93,o),
(400,64,o),
(317,64,cs),
(233,64,o),
(187,93,o),
(181,149,c),
(81,149,l),
(86,44,o),
(170,-16,o),
(313,-16,cs)
);
}
);
width = 660;
}
);
metricLeft = "=|";
metricWidth = A;
unicode = 115;
},
{
glyphname = germandbls;
layers = (
{
anchors = (
{
name = bottom;
pos = (346,0);
},
{
name = top;
pos = (346,800);
}
);
layerId = m002;
shapes = (
{
closed = 1;
nodes = (
(219,0,l),
(219,479,ls),
(219,564,o),
(263,620,o),
(328,620,cs),
(383,620,o),
(419,581,o),
(419,522,cs),
(419,462,o),
(381,414,o),
(325,405,c),
(325,325,l),
(413,325,o),
(473,274,o),
(473,199,cs),
(473,130,o),
(420,80,o),
(345,80,cs),
(302,80,l),
(302,0,l),
(365,0,ls),
(487,0,o),
(573,80,o),
(573,193,cs),
(573,304,o),
(490,381,o),
(371,381,c),
(371,358,l),
(459,368,o),
(519,437,o),
(519,528,cs),
(519,630,o),
(442,700,o),
(330,700,cs),
(206,700,o),
(119,613,o),
(119,489,cs),
(119,0,l)
);
}
);
width = 660;
},
{
anchors = (
{
name = bottom;
pos = (311,0);
},
{
name = top;
pos = (423,800);
}
);
layerId = m003;
shapes = (
{
closed = 1;
nodes = (
(184,0,l),
(251,479,ls),
(263,565,o),
(314,620,o),
(381,620,cs),
(431,620,o),
(458,590,o),
(458,535,cs),
(458,466,o),
(415,416,o),
(347,405,c),
(335,325,l),
(418,325,o),
(467,284,o),
(467,214,cs),
(467,136,o),
(406,80,o),
(321,80,cs),
(278,80,l),
(267,0,l),
(321,0,ls),
(466,0,o),
(567,88,o),
(567,213,cs),
(567,316,o),
(499,381,o),
(389,381,c),
(386,358,l),
(489,358,o),
(560,431,o),
(560,535,cs),
(560,637,o),
(492,700,o),
(384,700,cs),
(261,700,o),
(171,618,o),
(153,489,cs),
(84,0,l)
);
}
);
width = 660;
}
);
metricLeft = "=h*1.2";
metricWidth = A;
unicode = 223;
},
{
glyphname = t;
layers = (
{
anchors = (
{
name = bottom;
pos = (370,0);
},
{
name = center;
pos = (330,250);
},
{
name = top;
pos = (520,500);
},
{
name = topright;
pos = (630,800);
}
);
layerId = m002;
shapes = (
{
closed = 1;
nodes = (
(535,0,l),
(535,80,l),
(415,80,ls),
(368,80,o),
(335,107,o),
(335,146,cs),
(335,660,l),
(235,660,l),
(235,136,ls),
(235,57,o),
(298,0,o),
(385,0,cs)
);
},
{
closed = 1;
nodes = (
(535,420,l),
(535,500,l),
(105,500,l),
(105,420,l)
);
}
);
width = 660;
},
{
anchors = (
{
name = bottom;
pos = (321,0);
},
{
name = center;
pos = (316,250);
},
{
name = top;
pos = (541,500);
},
{
name = topright;
pos = (693,800);
}
);
layerId = m003;
shapes = (
{
closed = 1;
nodes = (
(486,0,l),
(497,80,l),
(377,80,ls),
(331,80,o),
(301,108,o),
(306,146,cs),
(379,660,l),
(279,660,l),
(205,136,ls),
(194,58,o),
(250,0,o),
(336,0,cs)
);
},
{
closed = 1;
nodes = (
(545,420,l),
(556,500,l),
(126,500,l),
(115,420,l)
);
}
);
width = 660;
}
);
metricWidth = A;
unicode = 116;
},
{
glyphname = tbar;
layers = (
{
layerId = m002;
shapes = (
{
ref = t;
},
{
closed = 1;
nodes = (
(535,230,l),
(535,310,l),
(105,310,l),
(105,230,l)
);
}
);
width = 660;
},
{
layerId = m003;
shapes = (
{
ref = t;
},
{
closed = 1;
nodes = (
(518,230,l),
(529,310,l),
(99,310,l),
(88,230,l)
);
}
);
width = 660;
}
);
metricLeft = t;
metricWidth = A;
unicode = 359;
},
{
glyphname = u;
layers = (
{
anchors = (
{
name = bottom;
pos = (330,0);
},
{
name = ogonek;
pos = (594,10);
},
{
name = top;
pos = (330,500);
},
{
name = topright;
pos = (640,500);
}
);
layerId = m002;
shapes = (
{
closed = 1;
nodes = (
(404,-16,o),
(487,53,o),
(487,147,c),
(461,220,l),
(461,136,o),
(398,73,o),
(315,74,cs),
(247,75,o),
(199,119,o),
(199,181,cs),
(199,500,l),
(99,500,l),
(99,161,ls),
(99,57,o),
(179,-16,o),
(293,-16,cs)
);
},
{
closed = 1;
nodes = (
(561,0,l),
(561,500,l),
(461,500,l),
(461,0,l)
);
}
);
width = 660;
},
{
anchors = (
{
name = bottom;
pos = (295,0);
},
{
name = ogonek;
pos = (560,10);
},
{
name = top;
pos = (365,500);
},
{
name = topright;
pos = (675,500);
}
);
layerId = m003;
shapes = (
{
closed = 1;
nodes = (
(378,-16,o),
(458,48,o),
(472,147,c),
(457,220,l),
(444,130,o),
(382,73,o),
(298,74,cs),
(225,75,o),
(181,119,o),
(189,181,cs),
(234,500,l),
(134,500,l),
(86,161,ls),
(72,57,o),
(146,-16,o),
(266,-16,cs)
);
},
{
closed = 1;
nodes = (
(526,0,l),
(596,500,l),
(496,500,l),
(426,0,l)
);
}
);
width = 660;
}
);
metricLeft = "=|";
metricWidth = A;
unicode = 117;
},
{
glyphname = v;
layers = (
{
anchors = (
{
name = bottom;
pos = (330,0);
},
{
name = top;
pos = (330,500);
}
);
layerId = m002;
shapes = (
{
closed = 1;
nodes = (
(393,0,l),
(573,500,l),
(473,500,l),
(293,0,l)
);
},
{
closed = 1;
nodes = (
(367,0,l),
(187,500,l),
(87,500,l),
(267,0,l)
);
}
);
width = 660;
},
{
anchors = (
{
name = bottom;
pos = (295,0);
},
{
name = top;
pos = (365,500);
}
);
layerId = m003;
shapes = (
{
closed = 1;
nodes = (
(358,0,l),
(608,500,l),
(508,500,l),
(258,0,l)
);
},
{
closed = 1;
nodes = (
(332,0,l),
(222,500,l),
(122,500,l),
(232,0,l)
);
}
);
width = 660;
}
);
metricLeft = "=|";
metricWidth = A;
unicode = 118;
},
{
glyphname = w;
layers = (
{
anchors = (
{
name = bottom;
pos = (330,0);
},
{
name = top;
pos = (330,500);
}
);
layerId = m002;
shapes = (
{
closed = 1;
nodes = (
(521,0,l),
(611,500,l),
(524,500,l),
(434,0,l)
);
},
{
closed = 1;
nodes = (
(226,0,l),
(136,500,l),
(49,500,l),
(139,0,l)
);
},
{
closed = 1;
nodes = (
(240,0,l),
(375,500,l),
(296,500,l),
(161,0,l)
);
},
{
closed = 1;
nodes = (
(497,0,l),
(373,500,l),
(294,500,l),
(418,0,l)
);
}
);
width = 660;
},
{
anchors = (
{
name = bottom;
pos = (295,0);
},
{
name = top;
pos = (365,500);
}
);
layerId = m003;
shapes = (
{
closed = 1;
nodes = (
(486,0,l),
(646,500,l),
(559,500,l),
(399,0,l)
);
},
{
closed = 1;
nodes = (
(191,0,l),
(171,500,l),
(84,500,l),
(104,0,l)
);
},
{
closed = 1;
nodes = (
(205,0,l),
(410,500,l),
(331,500,l),
(126,0,l)
);
},
{
closed = 1;
nodes = (
(462,0,l),
(408,500,l),
(329,500,l),
(383,0,l)
);
}
);
width = 660;
}
);
metricLeft = "=|";
metricWidth = A;
unicode = 119;
},
{
glyphname = x;
layers = (
{
anchors = (
{
name = bottom;
pos = (330,0);
},
{
name = top;
pos = (330,500);
}
);
layerId = m002;
shapes = (
{
closed = 1;
nodes = (
(204,0,l),
(574,500,l),
(456,500,l),
(86,0,l)
);
},
{
closed = 1;
nodes = (
(574,0,l),
(204,500,l),
(86,500,l),
(456,0,l)
);
}
);
width = 660;
},
{
anchors = (
{
name = bottom;
pos = (295,0);
},
{
name = top;
pos = (365,500);
}
);
layerId = m003;
shapes = (
{
closed = 1;
nodes = (
(169,0,l),
(609,500,l),
(491,500,l),
(51,0,l)
);
},
{
closed = 1;
nodes = (
(539,0,l),
(239,500,l),
(121,500,l),
(421,0,l)
);
}
);
width = 660;
}
);
metricLeft = "=|";
metricWidth = A;
unicode = 120;
},
{
glyphname = y;
layers = (
{
anchors = (
{
name = bottom;
pos = (330,0);
},
{
name = top;
pos = (330,500);
}
);
layerId = m002;
shapes = (
{
closed = 1;
nodes = (
(165,-216,ls),
(244,-216,o),
(300,-184,o),
(324,-126,cs),
(582,500,l),
(480,500,l),
(238,-74,ls),
(221,-114,o),
(194,-136,o),
(160,-136,cs),
(100,-136,l),
(100,-216,l)
);
},
{
closed = 1;
nodes = (
(369,0,l),
(178,500,l),
(78,500,l),
(269,0,l)
);
}
);
width = 660;
},
{
anchors = (
{
name = bottom;
pos = (295,0);
},
{
name = top;
pos = (365,500);
}
);
layerId = m003;
shapes = (
{
closed = 1;
nodes = (
(99,-216,ls),
(182,-216,o),
(238,-187,o),
(271,-126,cs),
(617,500,l),
(515,500,l),
(192,-74,ls),
(168,-117,o),
(141,-136,o),
(106,-136,cs),
(46,-136,l),
(34,-216,l)
);
},
{
closed = 1;
nodes = (
(334,0,l),
(213,500,l),
(113,500,l),
(234,0,l)
);
}
);
width = 660;
}
);
metricLeft = "=|";
metricWidth = A;
unicode = 121;
},
{
glyphname = z;
layers = (
{
anchors = (
{
name = bottom;
pos = (330,0);
},
{
name = center;
pos = (330,250);
},
{
name = top;
pos = (330,500);
}
);
layerId = m002;
shapes = (
{
closed = 1;
nodes = (
(539,410,l),
(429,420,l),
(121,90,l),
(231,80,l)
);
},
{
closed = 1;
nodes = (
(539,0,l),
(539,80,l),
(231,80,l),
(231,90,l),
(121,90,l),
(121,0,l)
);
},
{
closed = 1;
nodes = (
(539,410,l),
(539,500,l),
(121,500,l),
(121,420,l),
(429,420,l),
(429,410,l)
);
}
);
width = 660;
},
{
anchors = (
{
name = bottom;
pos = (296,0);
},
{
name = center;
pos = (331,250);
},
{
name = top;
pos = (366,500);
}
);
layerId = m003;
shapes = (
{
closed = 1;
nodes = (
(562,410,l),
(454,420,l),
(99,90,l),
(208,80,l)
);
},
{
closed = 1;
nodes = (
(505,0,l),
(516,80,l),
(208,80,l),
(209,90,l),
(99,90,l),
(87,0,l)
);
},
{
closed = 1;
nodes = (
(562,410,l),
(575,500,l),
(157,500,l),
(146,420,l),
(454,420,l),
(452,410,l)
);
}
);
width = 660;
}
);
metricLeft = "=|";
metricWidth = A;
unicode = 122;
},
{
glyphname = Delta;
layers = (
{
layerId = m002;
name = Regular;
shapes = (
{
closed = 1;
nodes = (
(655,0,l),
(401,700,l),
(295,700,l),
(549,0,l)
);
},
{
closed = 1;
nodes = (
(595,0,l),
(595,90,l),
(65,90,l),
(65,0,l)
);
},
{
closed = 1;
nodes = (
(111,0,l),
(365,700,l),
(259,700,l),
(5,0,l)
);
}
);
width = 660;
},
{
associatedMasterId = m002;
layerId = m004;
name = "Extra Bold";
shapes = (
{
closed = 1;
nodes = (
(721,0,l),
(478,700,l),
(263,700,l),
(20,0,l)
);
},
{
closed = 1;
nodes = (
(371,595,l),
(536,119,l),
(205,118,l)
);
}
);
width = 741;
},
{
associatedMasterId = m002;
layerId = m005;
name = "Regular Ekstra Italic";
shapes = (
{
closed = 1;
nodes = (
(545,0,l),
(516,700,l),
(387,700,l),
(-42,0,l)
);
},
{
closed = 1;
nodes = (
(442,640,l),
(466,75,l),
(95,74,l)
);
}
);
width = 647;
},
{
associatedMasterId = m002;
layerId = "2A23A498-F7CD-42D2-B830-35739478EE3D";
name = "Light Ekstra Italic";
shapes = (
{
closed = 1;
nodes = (
(513,0,l),
(486,700,l),
(391,700,l),
(-36,0,l)
);
},
{
closed = 1;
nodes = (
(430,652,l),
(453,55,l),
(65,54,l)
);
}
);
width = 621;
},
{
associatedMasterId = m002;
layerId = "C25418E1-3780-4EF1-AA02-D57C429AD772";
name = "Extra Bold  Ekstra Italic";
shapes = (
{
closed = 1;
nodes = (
(653,0,l),
(610,700,l),
(391,700,l),
(-52,0,l)
);
},
{
closed = 1;
nodes = (
(477,589,l),
(506,119,l),
(179,118,l)
);
}
);
width = 745;
},
{
layerId = m003;
name = Regular;
shapes = (
{
closed = 1;
nodes = (
(620,0,l),
(464,700,l),
(358,700,l),
(514,0,l)
);
},
{
closed = 1;
nodes = (
(560,0,l),
(572,90,l),
(42,90,l),
(30,0,l)
);
},
{
closed = 1;
nodes = (
(76,0,l),
(428,700,l),
(322,700,l),
(-30,0,l)
);
}
);
width = 660;
},
{
associatedMasterId = m003;
layerId = "A1DCA166-E00D-482F-98F1-AEDF19336F8C";
name = "Extra Bold";
shapes = (
{
closed = 1;
nodes = (
(721,0,l),
(478,700,l),
(263,700,l),
(20,0,l)
);
},
{
closed = 1;
nodes = (
(371,595,l),
(536,119,l),
(205,118,l)
);
}
);
width = 741;
},
{
associatedMasterId = m003;
layerId = "EEFB5C47-8F72-400A-896D-CDEB8D1039B8";
name = "Regular Ekstra Italic";
shapes = (
{
closed = 1;
nodes = (
(545,0,l),
(516,700,l),
(387,700,l),
(-42,0,l)
);
},
{
closed = 1;
nodes = (
(442,640,l),
(466,75,l),
(95,74,l)
);
}
);
width = 647;
},
{
associatedMasterId = m003;
layerId = "15AA8927-EADB-4758-A860-29946BF54906";
name = "Light Ekstra Italic";
shapes = (
{
closed = 1;
nodes = (
(513,0,l),
(486,700,l),
(391,700,l),
(-36,0,l)
);
},
{
closed = 1;
nodes = (
(430,652,l),
(453,55,l),
(65,54,l)
);
}
);
width = 621;
},
{
associatedMasterId = m003;
layerId = "9B88A1CA-BF1A-4F3E-B20C-AB8FD6D48B6A";
name = "Extra Bold  Ekstra Italic";
shapes = (
{
closed = 1;
nodes = (
(653,0,l),
(610,700,l),
(391,700,l),
(-52,0,l)
);
},
{
closed = 1;
nodes = (
(477,589,l),
(506,119,l),
(179,118,l)
);
}
);
width = 745;
}
);
metricLeft = "=|";
metricWidth = A;
unicode = 916;
},
{
glyphname = Omega;
layers = (
{
anchors = (
{
name = bottom;
pos = (330,0);
},
{
name = topleft;
pos = (30,700);
}
);
layerId = m002;
shapes = (
{
closed = 1;
nodes = (
(270,71,l),
(270,117,l),
(188,175,o),
(142,274,o),
(142,392,cs),
(142,541,o),
(211,626,o),
(330,626,cs),
(450,626,o),
(518,541,o),
(518,392,cs),
(518,272,o),
(473,177,o),
(390,117,c),
(390,71,l),
(410,52,l),
(549,117,o),
(628,245,o),
(628,404,cs),
(628,596,o),
(513,716,o),
(330,716,cs),
(146,716,o),
(32,596,o),
(32,404,cs),
(32,244,o),
(110,118,o),
(250,52,c)
);
},
{
closed = 1;
nodes = (
(270,0,l),
(270,90,l),
(22,90,l),
(22,0,l)
);
},
{
closed = 1;
nodes = (
(638,0,l),
(638,90,l),
(390,90,l),
(390,0,l)
);
}
);
width = 660;
},
{
anchors = (
{
name = bottom;
pos = (310,0);
},
{
name = topleft;
pos = (108,700);
}
);
layerId = m003;
shapes = (
{
closed = 1;
nodes = (
(246,71,l),
(252,117,l),
(198,160,o),
(159,265,o),
(159,366,cs),
(159,516,o),
(248,626,o),
(369,626,cs),
(472,626,o),
(543,542,o),
(543,422,cs),
(543,306,o),
(475,185,o),
(372,117,c),
(366,71,l),
(383,52,l),
(545,122,o),
(655,276,o),
(655,435,cs),
(655,600,o),
(538,716,o),
(372,716,cs),
(188,716,o),
(50,574,o),
(50,386,cs),
(50,251,o),
(121,114,o),
(223,52,c)
);
},
{
closed = 1;
nodes = (
(236,0,l),
(248,90,l),
(0,90,l),
(-12,0,l)
);
},
{
closed = 1;
nodes = (
(604,0,l),
(616,90,l),
(368,90,l),
(356,0,l)
);
}
);
width = 660;
}
);
metricLeft = "=|";
metricWidth = A;
unicode = 937;
},
{
glyphname = mu;
layers = (
{
layerId = m002;
name = Regular;
shapes = (
{
closed = 1;
nodes = (
(407,-16,o),
(487,56,o),
(487,147,c),
(461,220,l),
(461,136,o),
(398,73,o),
(315,74,cs),
(247,75,o),
(199,119,o),
(199,181,cs),
(199,234,l),
(129,234,l),
(129,181,ls),
(129,61,o),
(198,-16,o),
(304,-16,cs)
);
},
{
closed = 1;
nodes = (
(561,0,l),
(561,500,l),
(461,500,l),
(461,0,l)
);
},
{
closed = 1;
nodes = (
(199,-200,l),
(199,500,l),
(99,500,l),
(99,-200,l)
);
}
);
width = 660;
},
{
associatedMasterId = m002;
layerId = m004;
name = "Extra Bold";
shapes = (
{
closed = 1;
nodes = (
(357,-16,o),
(404,52,o),
(404,252,c),
(385,322,l),
(385,152,o),
(357,103,o),
(297,103,cs),
(227,103,o),
(219,166,o),
(219,246,cs),
(219,500,l),
(55,500,l),
(55,206,ls),
(55,76,o),
(108,-16,o),
(237,-16,cs)
);
},
{
closed = 1;
nodes = (
(194,-186,l),
(194,500,l),
(54,500,l),
(54,-186,l)
);
},
{
closed = 1;
nodes = (
(549,0,l),
(549,500,l),
(385,500,l),
(385,139,l),
(390,119,l),
(390,0,l)
);
}
);
width = 603;
},
{
associatedMasterId = m002;
layerId = m005;
name = "Regular Ekstra Italic";
shapes = (
{
closed = 1;
nodes = (
(294,-16,o),
(373,66,o),
(412,210,c),
(416,267,l),
(377,132,o),
(313,59,o),
(232,59,cs),
(159,59,o),
(129,119,o),
(155,215,cs),
(237,500,l),
(153,500,l),
(63,184,ls),
(32,73,o),
(90,-16,o),
(194,-16,cs)
);
},
{
closed = 1;
nodes = (
(31,-216,l),
(236,500,l),
(152,500,l),
(-53,-216,l)
);
},
{
closed = 1;
nodes = (
(424,0,l),
(567,500,l),
(483,500,l),
(385,159,l),
(388,153,l),
(345,0,l)
);
}
);
width = 576;
},
{
associatedMasterId = m002;
layerId = "2A23A498-F7CD-42D2-B830-35739478EE3D";
name = "Light Ekstra Italic";
shapes = (
{
closed = 1;
nodes = (
(309,-16,o),
(384,59,o),
(426,199,c),
(428,257,l),
(387,112,o),
(316,39,o),
(218,39,cs),
(141,39,o),
(117,98,o),
(150,214,cs),
(232,500,l),
(168,500,l),
(75,174,ls),
(45,69,o),
(103,-16,o),
(208,-16,cs)
);
},
{
closed = 1;
nodes = (
(26,-216,l),
(231,500,l),
(167,500,l),
(-38,-216,l)
);
},
{
closed = 1;
nodes = (
(418,0,l),
(561,500,l),
(497,500,l),
(397,150,l),
(396,130,l),
(359,0,l)
);
}
);
width = 588;
},
{
associatedMasterId = m002;
layerId = "C25418E1-3780-4EF1-AA02-D57C429AD772";
name = "Extra Bold  Ekstra Italic";
shapes = (
{
closed = 1;
nodes = (
(287,-16,o),
(354,66,o),
(408,252,c),
(409,336,l),
(362,171,o),
(319,103,o),
(261,103,cs),
(204,103,o),
(191,146,o),
(221,246,cs),
(294,500,l),
(126,500,l),
(42,206,ls),
(6,80,o),
(66,-16,o),
(182,-16,cs)
);
},
{
closed = 1;
nodes = (
(73,-186,l),
(270,500,l),
(126,500,l),
(-71,-186,l)
);
},
{
closed = 1;
nodes = (
(481,0,l),
(624,500,l),
(456,500,l),
(352,139,l),
(352,119,l),
(318,0,l)
);
}
);
width = 607;
},
{
layerId = m003;
name = Regular;
shapes = (
{
closed = 1;
nodes = (
(383,-16,o),
(459,49,o),
(472,147,c),
(457,220,l),
(444,130,o),
(382,73,o),
(298,74,cs),
(225,75,o),
(181,119,o),
(189,181,cs),
(197,234,l),
(127,234,l),
(119,181,ls),
(102,64,o),
(168,-16,o),
(281,-16,cs)
);
},
{
closed = 1;
nodes = (
(526,0,l),
(596,500,l),
(496,500,l),
(426,0,l)
);
},
{
closed = 1;
nodes = (
(136,-200,l),
(234,500,l),
(134,500,l),
(36,-200,l)
);
}
);
width = 660;
},
{
associatedMasterId = m003;
layerId = "BC165E9A-81C1-4360-8536-F0CBA847938E";
name = "Extra Bold";
shapes = (
{
closed = 1;
nodes = (
(357,-16,o),
(404,52,o),
(404,252,c),
(385,322,l),
(385,152,o),
(357,103,o),
(297,103,cs),
(227,103,o),
(219,166,o),
(219,246,cs),
(219,500,l),
(55,500,l),
(55,206,ls),
(55,76,o),
(108,-16,o),
(237,-16,cs)
);
},
{
closed = 1;
nodes = (
(194,-186,l),
(194,500,l),
(54,500,l),
(54,-186,l)
);
},
{
closed = 1;
nodes = (
(549,0,l),
(549,500,l),
(385,500,l),
(385,139,l),
(390,119,l),
(390,0,l)
);
}
);
width = 603;
},
{
associatedMasterId = m003;
layerId = "0C24D750-4E77-403F-9D44-00C2C118BDDE";
name = "Regular Ekstra Italic";
shapes = (
{
closed = 1;
nodes = (
(294,-16,o),
(373,66,o),
(412,210,c),
(416,267,l),
(377,132,o),
(313,59,o),
(232,59,cs),
(159,59,o),
(129,119,o),
(155,215,cs),
(237,500,l),
(153,500,l),
(63,184,ls),
(32,73,o),
(90,-16,o),
(194,-16,cs)
);
},
{
closed = 1;
nodes = (
(31,-216,l),
(236,500,l),
(152,500,l),
(-53,-216,l)
);
},
{
closed = 1;
nodes = (
(424,0,l),
(567,500,l),
(483,500,l),
(385,159,l),
(388,153,l),
(345,0,l)
);
}
);
width = 576;
},
{
associatedMasterId = m003;
layerId = "B4FD4C2E-0962-430A-9841-13D947135118";
name = "Light Ekstra Italic";
shapes = (
{
closed = 1;
nodes = (
(309,-16,o),
(384,59,o),
(426,199,c),
(428,257,l),
(387,112,o),
(316,39,o),
(218,39,cs),
(141,39,o),
(117,98,o),
(150,214,cs),
(232,500,l),
(168,500,l),
(75,174,ls),
(45,69,o),
(103,-16,o),
(208,-16,cs)
);
},
{
closed = 1;
nodes = (
(26,-216,l),
(231,500,l),
(167,500,l),
(-38,-216,l)
);
},
{
closed = 1;
nodes = (
(418,0,l),
(561,500,l),
(497,500,l),
(397,150,l),
(396,130,l),
(359,0,l)
);
}
);
width = 588;
},
{
associatedMasterId = m003;
layerId = "034680C2-0F27-4956-879D-9D59C1F89EC4";
name = "Extra Bold  Ekstra Italic";
shapes = (
{
closed = 1;
nodes = (
(287,-16,o),
(354,66,o),
(408,252,c),
(409,336,l),
(362,171,o),
(319,103,o),
(261,103,cs),
(204,103,o),
(191,146,o),
(221,246,cs),
(294,500,l),
(126,500,l),
(42,206,ls),
(6,80,o),
(66,-16,o),
(182,-16,cs)
);
},
{
closed = 1;
nodes = (
(73,-186,l),
(270,500,l),
(126,500,l),
(-71,-186,l)
);
},
{
closed = 1;
nodes = (
(481,0,l),
(624,500,l),
(456,500,l),
(352,139,l),
(352,119,l),
(318,0,l)
);
}
);
width = 607;
}
);
metricLeft = "=|";
metricWidth = A;
unicode = 956;
},
{
glyphname = pi;
layers = (
{
layerId = m002;
shapes = (
{
closed = 1;
nodes = (
(590,0,l),
(590,80,l),
(570,80,ls),
(528,80,o),
(500,103,o),
(500,136,cs),
(500,459,l),
(400,459,l),
(400,126,ls),
(400,51,o),
(457,0,o),
(540,0,cs)
);
},
{
closed = 1;
nodes = (
(600,420,l),
(600,500,l),
(60,500,l),
(60,420,l)
);
},
{
closed = 1;
nodes = (
(260,0,l),
(260,459,l),
(160,459,l),
(160,0,l)
);
}
);
width = 660;
},
{
layerId = m003;
shapes = (
{
closed = 1;
nodes = (
(555,0,l),
(566,80,l),
(546,80,ls),
(506,80,o),
(479,104,o),
(484,136,cs),
(529,459,l),
(429,459,l),
(383,126,ls),
(372,54,o),
(425,0,o),
(505,0,cs)
);
},
{
closed = 1;
nodes = (
(624,420,l),
(635,500,l),
(95,500,l),
(84,420,l)
);
},
{
closed = 1;
nodes = (
(225,0,l),
(289,459,l),
(189,459,l),
(125,0,l)
);
}
);
width = 660;
}
);
metricLeft = "=|";
metricWidth = A;
unicode = 960;
},
{
glyphname = zero;
layers = (
{
layerId = m002;
shapes = (
{
closed = 1;
nodes = (
(484,-16,o),
(585,129,o),
(585,350,cs),
(585,571,o),
(484,716,o),
(330,716,cs),
(176,716,o),
(75,571,o),
(75,350,cs),
(75,129,o),
(176,-16,o),
(330,-16,cs)
);
},
{
closed = 1;
nodes = (
(233,74,o),
(185,166,o),
(185,350,cs),
(185,534,o),
(233,626,o),
(330,626,cs),
(427,626,o),
(475,534,o),
(475,350,cs),
(475,166,o),
(427,74,o),
(330,74,cs)
);
},
{
closed = 1;
nodes = (
(162,178,l),
(526,462,l),
(498,522,l),
(134,237,l)
);
}
);
width = 660;
},
{
layerId = m003;
shapes = (
{
closed = 1;
nodes = (
(472,-16,o),
(606,172,o),
(606,420,cs),
(606,607,o),
(528,716,o),
(393,716,cs),
(216,716,o),
(82,528,o),
(82,280,cs),
(82,93,o),
(160,-16,o),
(295,-16,cs)
);
},
{
closed = 1;
nodes = (
(225,74,o),
(191,134,o),
(191,261,cs),
(191,468,o),
(278,626,o),
(392,626,cs),
(464,626,o),
(497,567,o),
(497,439,cs),
(497,231,o),
(411,74,o),
(296,74,cs)
);
},
{
closed = 1;
nodes = (
(152,178,l),
(556,462,l),
(536,522,l),
(132,237,l)
);
}
);
width = 660;
}
);
metricLeft = "=|";
metricWidth = A;
unicode = 48;
},
{
glyphname = one;
layers = (
{
layerId = m002;
shapes = (
{
closed = 1;
nodes = (
(425,0,l),
(425,700,l),
(315,700,l),
(315,622,o),
(236,586,o),
(149,586,c),
(149,516,l),
(315,516,l),
(315,0,l)
);
}
);
width = 660;
},
{
layerId = m003;
shapes = (
{
closed = 1;
nodes = (
(389,0,l),
(487,700,l),
(377,700,l),
(367,626,o),
(303,586,o),
(195,586,c),
(186,516,l),
(352,516,l),
(279,0,l)
);
}
);
width = 660;
}
);
metricLeft = "=h*1.5";
metricWidth = A;
unicode = 49;
},
{
glyphname = two;
layers = (
{
layerId = m002;
shapes = (
{
closed = 1;
nodes = (
(577,0,l),
(577,90,l),
(176,90,l),
(181,52,l),
(377,226,ls),
(524,357,o),
(568,422,o),
(568,507,cs),
(568,631,o),
(473,716,o),
(334,716,cs),
(199,716,o),
(105,634,o),
(105,516,c),
(215,516,l),
(215,579,o),
(265,626,o),
(334,626,cs),
(407,626,o),
(458,575,o),
(458,502,cs),
(458,448,o),
(429,402,o),
(354,334,cs),
(83,90,l),
(83,0,l)
);
}
);
width = 660;
},
{
layerId = m003;
shapes = (
{
closed = 1;
nodes = (
(543,0,l),
(555,90,l),
(154,90,l),
(154,52,l),
(375,226,ls),
(558,372,o),
(607,436,o),
(607,529,cs),
(607,648,o),
(529,716,o),
(393,716,cs),
(253,716,o),
(161,643,o),
(143,516,c),
(253,516,l),
(262,583,o),
(316,626,o),
(391,626,cs),
(459,626,o),
(496,591,o),
(496,526,cs),
(496,463,o),
(460,409,o),
(367,334,cs),
(61,90,l),
(49,0,l)
);
}
);
width = 660;
}
);
metricLeft = "=|";
metricWidth = A;
unicode = 50;
},
{
glyphname = three;
layers = (
{
layerId = m002;
shapes = (
{
closed = 1;
nodes = (
(492,-16,o),
(595,65,o),
(595,183,cs),
(595,290,o),
(510,369,o),
(396,369,c),
(396,349,l),
(499,349,o),
(576,425,o),
(576,525,cs),
(576,638,o),
(479,716,o),
(340,716,cs),
(198,716,o),
(99,634,o),
(99,516,c),
(209,516,l),
(209,580,o),
(262,626,o),
(338,626,cs),
(413,626,o),
(466,582,o),
(466,519,cs),
(466,451,o),
(403,404,o),
(311,404,cs),
(284,404,l),
(284,314,l),
(311,314,ls),
(416,314,o),
(485,265,o),
(485,191,cs),
(485,122,o),
(425,74,o),
(340,74,cs),
(257,74,o),
(199,119,o),
(199,184,c),
(89,184,l),
(89,66,o),
(192,-16,o),
(342,-16,cs)
);
}
);
width = 660;
},
{
layerId = m003;
shapes = (
{
closed = 1;
nodes = (
(484,-16,o),
(588,67,o),
(588,186,cs),
(588,293,o),
(507,369,o),
(393,369,c),
(410,349,l),
(534,349,o),
(617,423,o),
(617,533,cs),
(617,645,o),
(531,716,o),
(395,716,cs),
(253,716,o),
(153,639,o),
(136,516,c),
(246,516,l),
(256,583,o),
(312,626,o),
(391,626,cs),
(463,626,o),
(505,591,o),
(505,530,cs),
(505,453,o),
(438,404,o),
(333,404,cs),
(306,404,l),
(293,314,l),
(320,314,ls),
(413,314,o),
(478,262,o),
(478,188,cs),
(478,120,o),
(419,74,o),
(332,74,cs),
(251,74,o),
(200,114,o),
(190,184,c),
(80,184,l),
(94,60,o),
(190,-16,o),
(333,-16,cs)
);
}
);
width = 660;
}
);
metricRight = "=o";
metricWidth = A;
unicode = 51;
},
{
glyphname = four;
layers = (
{
layerId = m002;
shapes = (
{
closed = 1;
nodes = (
(617,177,l),
(617,267,l),
(124,267,l),
(149,244,l),
(479,700,l),
(379,700,l),
(49,267,l),
(49,177,l)
);
},
{
closed = 1;
nodes = (
(528,0,l),
(528,700,l),
(418,700,l),
(418,0,l)
);
}
);
width = 660;
},
{
layerId = m003;
shapes = (
{
closed = 1;
nodes = (
(607,177,l),
(619,267,l),
(126,267,l),
(148,244,l),
(542,700,l),
(442,700,l),
(51,267,l),
(39,177,l)
);
},
{
closed = 1;
nodes = (
(493,0,l),
(591,700,l),
(481,700,l),
(383,0,l)
);
}
);
width = 660;
}
);
metricLeft = "=w";
metricWidth = A;
unicode = 52;
},
{
glyphname = five;
layers = (
{
layerId = m002;
shapes = (
{
closed = 1;
nodes = (
(473,-16,o),
(584,87,o),
(584,234,cs),
(584,373,o),
(486,474,o),
(352,474,cs),
(259,474,o),
(183,425,o),
(145,341,c),
(196,354,l),
(226,610,l),
(535,610,l),
(535,700,l),
(134,700,l),
(101,307,l),
(201,307,l),
(223,355,o),
(270,384,o),
(328,384,cs),
(413,384,o),
(474,320,o),
(474,231,cs),
(474,139,o),
(409,74,o),
(317,74,cs),
(239,74,o),
(184,120,o),
(184,184,c),
(74,184,l),
(74,68,o),
(175,-16,o),
(316,-16,cs)
);
}
);
width = 660;
},
{
layerId = m003;
shapes = (
{
closed = 1;
nodes = (
(474,-16,o),
(585,85,o),
(585,240,cs),
(585,380,o),
(499,474,o),
(372,474,cs),
(283,474,o),
(210,428,o),
(158,341,c),
(211,354,l),
(277,610,l),
(586,610,l),
(598,700,l),
(197,700,l),
(109,307,l),
(209,307,l),
(238,357,o),
(284,384,o),
(340,384,cs),
(420,384,o),
(474,325,o),
(474,237,cs),
(474,140,o),
(405,74,o),
(304,74,cs),
(224,74,o),
(175,115,o),
(175,184,c),
(65,184,l),
(65,61,o),
(157,-16,o),
(304,-16,cs)
);
}
);
width = 660;
}
);
metricLeft = "=h*0.75";
metricWidth = A;
unicode = 53;
},
{
glyphname = six;
layers = (
{
layerId = m002;
shapes = (
{
closed = 1;
nodes = (
(485,-16,o),
(590,85,o),
(590,227,cs),
(590,364,o),
(493,464,o),
(360,464,cs),
(231,464,o),
(137,370,o),
(134,240,c),
(159,326,l),
(180,531,o),
(242,626,o),
(356,626,cs),
(425,626,o),
(475,591,o),
(483,536,c),
(583,536,l),
(573,642,o),
(482,716,o),
(361,716,cs),
(187,716,o),
(74,562,o),
(74,327,cs),
(74,110,o),
(171,-16,o),
(337,-16,cs)
);
},
{
closed = 1;
nodes = (
(252,74,o),
(191,137,o),
(191,224,cs),
(191,311,o),
(252,374,o),
(336,374,cs),
(420,374,o),
(480,311,o),
(480,224,cs),
(480,137,o),
(420,74,o),
(336,74,cs)
);
}
);
width = 660;
},
{
layerId = m003;
shapes = (
{
closed = 1;
nodes = (
(483,-16,o),
(598,76,o),
(598,233,cs),
(598,363,o),
(520,464,o),
(382,464,cs),
(253,464,o),
(163,376,o),
(141,240,c),
(178,326,l),
(207,525,o),
(286,626,o),
(411,626,cs),
(485,626,o),
(531,591,o),
(531,536,c),
(631,536,l),
(631,645,o),
(549,716,o),
(422,716,cs),
(226,716,o),
(87,537,o),
(87,299,cs),
(87,115,o),
(170,-16,o),
(340,-16,cs)
);
},
{
closed = 1;
nodes = (
(243,74,o),
(194,127,o),
(194,209,cs),
(194,305,o),
(261,374,o),
(352,374,cs),
(441,374,o),
(487,309,o),
(487,230,cs),
(487,131,o),
(416,74,o),
(328,74,cs)
);
}
);
width = 660;
}
);
metricLeft = "=h*0.75";
metricWidth = A;
unicode = 54;
},
{
glyphname = seven;
layers = (
{
layerId = m002;
shapes = (
{
closed = 1;
nodes = (
(306,0,l),
(306,152,o),
(348,287,o),
(443,425,cs),
(563,600,l),
(563,700,l),
(99,700,l),
(99,610,l),
(453,610,l),
(353,460,ls),
(245,298,o),
(196,156,o),
(196,0,c)
);
}
);
width = 660;
},
{
layerId = m003;
shapes = (
{
closed = 1;
nodes = (
(272,0,l),
(295,161,o),
(352,284,o),
(468,425,cs),
(613,600,l),
(627,700,l),
(163,700,l),
(150,610,l),
(504,610,l),
(383,460,ls),
(246,289,o),
(185,163,o),
(162,0,c)
);
}
);
width = 660;
}
);
metricLeft = "=h";
metricWidth = A;
unicode = 55;
},
{
glyphname = eight;
layers = (
{
layerId = m002;
shapes = (
{
closed = 1;
nodes = (
(495,-16,o),
(604,66,o),
(604,188,cs),
(604,290,o),
(527,367,o),
(423,367,c),
(413,353,l),
(506,353,o),
(574,423,o),
(574,518,cs),
(574,634,o),
(472,716,o),
(330,716,cs),
(188,716,o),
(86,634,o),
(86,518,cs),
(86,423,o),
(154,353,o),
(247,353,c),
(237,367,l),
(133,367,o),
(56,290,o),
(56,188,cs),
(56,66,o),
(167,-16,o),
(331,-16,cs)
);
},
{
closed = 1;
nodes = (
(232,74,o),
(166,123,o),
(166,195,cs),
(166,267,o),
(232,316,o),
(330,316,cs),
(428,316,o),
(494,267,o),
(494,195,cs),
(494,123,o),
(428,74,o),
(330,74,cs)
);
},
{
closed = 1;
nodes = (
(252,406,o),
(196,452,o),
(196,516,cs),
(196,580,o),
(252,626,o),
(330,626,cs),
(408,626,o),
(464,580,o),
(464,516,cs),
(464,452,o),
(408,406,o),
(330,406,cs)
);
}
);
width = 660;
},
{
layerId = m003;
shapes = (
{
closed = 1;
nodes = (
(488,-16,o),
(598,66,o),
(598,195,cs),
(598,296,o),
(533,367,o),
(440,367,c),
(428,353,l),
(542,353,o),
(615,420,o),
(615,523,cs),
(615,641,o),
(523,716,o),
(377,716,cs),
(223,716,o),
(123,637,o),
(123,515,cs),
(123,420,o),
(184,353,o),
(272,353,c),
(254,367,l),
(128,367,o),
(46,296,o),
(46,185,cs),
(46,60,o),
(147,-16,o),
(313,-16,cs)
);
},
{
closed = 1;
nodes = (
(215,74,o),
(158,116,o),
(158,191,cs),
(158,267,o),
(225,316,o),
(330,316,cs),
(428,316,o),
(488,270,o),
(488,195,cs),
(488,120,o),
(422,74,o),
(315,74,cs)
);
},
{
closed = 1;
nodes = (
(281,406,o),
(233,446,o),
(233,514,cs),
(233,582,o),
(289,626,o),
(375,626,cs),
(454,626,o),
(503,585,o),
(503,519,cs),
(503,451,o),
(446,406,o),
(361,406,cs)
);
}
);
width = 660;
}
);
metricLeft = "=|";
metricWidth = A;
unicode = 56;
},
{
glyphname = nine;
layers = (
{
layerId = m002;
shapes = (
{
closed = 1;
nodes = (
(473,-16,o),
(586,138,o),
(586,373,cs),
(586,590,o),
(489,716,o),
(323,716,cs),
(175,716,o),
(70,615,o),
(70,473,cs),
(70,336,o),
(167,236,o),
(300,236,cs),
(429,236,o),
(523,330,o),
(526,460,c),
(501,374,l),
(480,169,o),
(418,74,o),
(304,74,cs),
(235,74,o),
(185,109,o),
(177,164,c),
(77,164,l),
(87,58,o),
(178,-16,o),
(299,-16,cs)
);
},
{
closed = 1;
nodes = (
(240,326,o),
(180,389,o),
(180,476,cs),
(180,563,o),
(240,626,o),
(324,626,cs),
(408,626,o),
(469,563,o),
(469,476,cs),
(469,389,o),
(408,326,o),
(324,326,cs)
);
}
);
width = 660;
},
{
layerId = m003;
shapes = (
{
closed = 1;
nodes = (
(462,-16,o),
(601,163,o),
(601,401,cs),
(601,585,o),
(518,716,o),
(348,716,cs),
(205,716,o),
(90,624,o),
(90,467,cs),
(90,337,o),
(168,236,o),
(306,236,cs),
(435,236,o),
(525,324,o),
(547,460,c),
(510,374,l),
(481,175,o),
(402,74,o),
(277,74,cs),
(203,74,o),
(157,109,o),
(157,164,c),
(57,164,l),
(57,55,o),
(139,-16,o),
(266,-16,cs)
);
},
{
closed = 1;
nodes = (
(247,326,o),
(201,391,o),
(201,470,cs),
(201,569,o),
(272,626,o),
(360,626,cs),
(445,626,o),
(494,573,o),
(494,491,cs),
(494,395,o),
(427,326,o),
(336,326,cs)
);
}
);
width = 660;
}
);
metricRight = "=h*0.75";
metricWidth = A;
unicode = 57;
},
{
glyphname = zero.blackCircled;
layers = (
{
layerId = m002;
shapes = (
{
closed = 1;
nodes = (
(154,-16,o),
(44,124,o),
(44,350,c),
(44,576,o),
(154,716,o),
(330,716,c),
(506,716,o),
(616,576,o),
(616,350,c),
(616,124,o),
(506,-16,o),
(330,-16,c)
);
},
{
pos = (0,-167);
ref = zero.numr;
}
);
width = 660;
},
{
layerId = m003;
shapes = (
{
closed = 1;
nodes = (
(162,-16,o),
(58,112,o),
(58,315,cs),
(58,551,o),
(183,716,o),
(361,716,cs),
(528,716,o),
(630,590,o),
(630,385,cs),
(630,145,o),
(509,-16,o),
(328,-16,cs)
);
},
{
pos = (-24,-167);
ref = zero.numr;
}
);
width = 660;
}
);
metricLeft = "=|";
metricWidth = A;
unicode = 9471;
},
{
glyphname = one.blackCircled;
layers = (
{
layerId = m002;
shapes = (
{
closed = 1;
nodes = (
(154,-16,o),
(44,124,o),
(44,350,cs),
(44,576,o),
(154,716,o),
(330,716,cs),
(506,716,o),
(616,576,o),
(616,350,cs),
(616,124,o),
(506,-16,o),
(330,-16,cs)
);
},
{
pos = (-20,-167);
ref = one.numr;
}
);
width = 660;
},
{
layerId = m003;
shapes = (
{
closed = 1;
nodes = (
(162,-16,o),
(58,112,o),
(58,315,cs),
(58,551,o),
(183,716,o),
(361,716,cs),
(528,716,o),
(630,590,o),
(630,385,cs),
(630,145,o),
(509,-16,o),
(328,-16,cs)
);
},
{
pos = (-50,-167);
ref = one.numr;
}
);
width = 660;
}
);
metricLeft = "=|";
metricWidth = A;
unicode = 10102;
},
{
glyphname = two.blackCircled;
layers = (
{
layerId = m002;
shapes = (
{
closed = 1;
nodes = (
(154,-16,o),
(44,124,o),
(44,350,c),
(44,576,o),
(154,716,o),
(330,716,c),
(506,716,o),
(616,576,o),
(616,350,c),
(616,124,o),
(506,-16,o),
(330,-16,c)
);
},
{
pos = (0,-171);
ref = two.numr;
}
);
width = 660;
},
{
layerId = m003;
shapes = (
{
closed = 1;
nodes = (
(162,-16,o),
(58,112,o),
(58,315,cs),
(58,551,o),
(183,716,o),
(361,716,cs),
(528,716,o),
(630,590,o),
(630,385,cs),
(630,145,o),
(509,-16,o),
(328,-16,cs)
);
},
{
pos = (-18,-171);
ref = two.numr;
}
);
width = 660;
}
);
metricLeft = "=|";
metricWidth = A;
unicode = 10103;
},
{
glyphname = three.blackCircled;
layers = (
{
layerId = m002;
shapes = (
{
closed = 1;
nodes = (
(154,-16,o),
(44,124,o),
(44,350,c),
(44,576,o),
(154,716,o),
(330,716,c),
(506,716,o),
(616,576,o),
(616,350,c),
(616,124,o),
(506,-16,o),
(330,-16,c)
);
},
{
pos = (0,-167);
ref = three.numr;
}
);
width = 660;
},
{
layerId = m003;
shapes = (
{
closed = 1;
nodes = (
(162,-16,o),
(58,112,o),
(58,315,cs),
(58,551,o),
(183,716,o),
(361,716,cs),
(528,716,o),
(630,590,o),
(630,385,cs),
(630,145,o),
(509,-16,o),
(328,-16,cs)
);
},
{
pos = (-24,-167);
ref = three.numr;
}
);
width = 660;
}
);
metricLeft = "=|";
metricWidth = A;
unicode = 10104;
},
{
glyphname = four.blackCircled;
layers = (
{
layerId = m002;
shapes = (
{
closed = 1;
nodes = (
(154,-16,o),
(44,124,o),
(44,350,c),
(44,576,o),
(154,716,o),
(330,716,c),
(506,716,o),
(616,576,o),
(616,350,c),
(616,124,o),
(506,-16,o),
(330,-16,c)
);
},
{
pos = (-8,-167);
ref = four.numr;
}
);
width = 660;
},
{
layerId = m003;
shapes = (
{
closed = 1;
nodes = (
(162,-16,o),
(58,112,o),
(58,315,cs),
(58,551,o),
(183,716,o),
(361,716,cs),
(528,716,o),
(630,590,o),
(630,385,cs),
(630,145,o),
(509,-16,o),
(328,-16,cs)
);
},
{
pos = (-27,-167);
ref = four.numr;
}
);
width = 660;
}
);
metricLeft = "=|";
metricWidth = A;
unicode = 10105;
},
{
glyphname = five.blackCircled;
layers = (
{
layerId = m002;
shapes = (
{
closed = 1;
nodes = (
(154,-16,o),
(44,124,o),
(44,350,c),
(44,576,o),
(154,716,o),
(330,716,c),
(506,716,o),
(616,576,o),
(616,350,c),
(616,124,o),
(506,-16,o),
(330,-16,c)
);
},
{
pos = (0,-167);
ref = five.numr;
}
);
width = 660;
},
{
layerId = m003;
shapes = (
{
closed = 1;
nodes = (
(162,-16,o),
(58,112,o),
(58,315,cs),
(58,551,o),
(183,716,o),
(361,716,cs),
(528,716,o),
(630,590,o),
(630,385,cs),
(630,145,o),
(509,-16,o),
(328,-16,cs)
);
},
{
pos = (-24,-167);
ref = five.numr;
}
);
width = 660;
}
);
metricLeft = "=|";
metricWidth = A;
unicode = 10106;
},
{
glyphname = six.blackCircled;
layers = (
{
layerId = m002;
shapes = (
{
closed = 1;
nodes = (
(154,-16,o),
(44,124,o),
(44,350,c),
(44,576,o),
(154,716,o),
(330,716,c),
(506,716,o),
(616,576,o),
(616,350,c),
(616,124,o),
(506,-16,o),
(330,-16,c)
);
},
{
pos = (-8,-167);
ref = six.numr;
}
);
width = 660;
},
{
layerId = m003;
shapes = (
{
closed = 1;
nodes = (
(162,-16,o),
(58,112,o),
(58,315,cs),
(58,551,o),
(183,716,o),
(361,716,cs),
(528,716,o),
(630,590,o),
(630,385,cs),
(630,145,o),
(509,-16,o),
(328,-16,cs)
);
},
{
pos = (-28,-167);
ref = six.numr;
}
);
width = 660;
}
);
metricLeft = "=|";
metricWidth = A;
unicode = 10107;
},
{
glyphname = seven.blackCircled;
layers = (
{
layerId = m002;
shapes = (
{
closed = 1;
nodes = (
(154,-16,o),
(44,124,o),
(44,350,c),
(44,576,o),
(154,716,o),
(330,716,c),
(506,716,o),
(616,576,o),
(616,350,c),
(616,124,o),
(506,-16,o),
(330,-16,c)
);
},
{
pos = (8,-167);
ref = seven.numr;
}
);
width = 660;
},
{
layerId = m003;
shapes = (
{
closed = 1;
nodes = (
(162,-16,o),
(58,112,o),
(58,315,cs),
(58,551,o),
(183,716,o),
(361,716,cs),
(528,716,o),
(630,590,o),
(630,385,cs),
(630,145,o),
(509,-16,o),
(328,-16,cs)
);
},
{
pos = (-21,-167);
ref = seven.numr;
}
);
width = 660;
}
);
metricLeft = "=|";
metricWidth = A;
unicode = 10108;
},
{
glyphname = eight.blackCircled;
layers = (
{
layerId = m002;
shapes = (
{
closed = 1;
nodes = (
(154,-16,o),
(44,124,o),
(44,350,c),
(44,576,o),
(154,716,o),
(330,716,c),
(506,716,o),
(616,576,o),
(616,350,c),
(616,124,o),
(506,-16,o),
(330,-16,c)
);
},
{
pos = (0,-167);
ref = eight.numr;
}
);
width = 660;
},
{
layerId = m003;
shapes = (
{
closed = 1;
nodes = (
(162,-16,o),
(58,112,o),
(58,315,cs),
(58,551,o),
(183,716,o),
(361,716,cs),
(528,716,o),
(630,590,o),
(630,385,cs),
(630,145,o),
(509,-16,o),
(328,-16,cs)
);
},
{
pos = (-22,-167);
ref = eight.numr;
}
);
width = 660;
}
);
metricLeft = "=|";
metricWidth = A;
unicode = 10109;
},
{
glyphname = nine.blackCircled;
layers = (
{
layerId = m002;
shapes = (
{
closed = 1;
nodes = (
(154,-16,o),
(44,124,o),
(44,350,c),
(44,576,o),
(154,716,o),
(330,716,c),
(506,716,o),
(616,576,o),
(616,350,c),
(616,124,o),
(506,-16,o),
(330,-16,c)
);
},
{
pos = (8,-165);
ref = nine.numr;
}
);
width = 660;
},
{
layerId = m003;
shapes = (
{
closed = 1;
nodes = (
(162,-16,o),
(58,112,o),
(58,315,cs),
(58,551,o),
(183,716,o),
(361,716,cs),
(528,716,o),
(630,590,o),
(630,385,cs),
(630,145,o),
(509,-16,o),
(328,-16,cs)
);
},
{
pos = (-25,-165);
ref = nine.numr;
}
);
width = 660;
}
);
metricLeft = "=|";
metricWidth = A;
unicode = 10110;
},
{
glyphname = zero.numr;
layers = (
{
layerId = m002;
shapes = (
{
closed = 1;
nodes = (
(418,326,o),
(480,405,o),
(480,517,cs),
(480,629,o),
(418,708,o),
(330,708,cs),
(242,708,o),
(180,630,o),
(180,517,cs),
(180,404,o),
(242,326,o),
(330,326,cs)
);
},
{
closed = 1;
nodes = (
(280,387,o),
(251,435,o),
(251,517,cs),
(251,599,o),
(280,647,o),
(330,647,cs),
(380,647,o),
(409,599,o),
(409,517,cs),
(409,435,o),
(380,387,o),
(330,387,cs)
);
},
{
closed = 1;
nodes = (
(238,435,l),
(435,559,l),
(422,599,l),
(225,475,l)
);
}
);
width = 660;
},
{
layerId = m003;
shapes = (
{
closed = 1;
nodes = (
(449,326,o),
(518,414,o),
(518,539,cs),
(518,645,o),
(468,708,o),
(385,708,cs),
(287,708,o),
(218,620,o),
(218,495,cs),
(218,389,o),
(268,326,o),
(351,326,cs)
);
},
{
closed = 1;
nodes = (
(313,387,o),
(289,426,o),
(289,495,cs),
(289,583,o),
(328,647,o),
(382,647,cs),
(423,647,o),
(447,608,o),
(447,539,cs),
(447,451,o),
(408,387,o),
(355,387,cs)
);
},
{
closed = 1;
nodes = (
(265,435,l),
(479,559,l),
(472,599,l),
(258,475,l)
);
}
);
width = 660;
}
);
metricLeft = "=|";
metricWidth = A;
},
{
glyphname = one.numr;
layers = (
{
layerId = m002;
shapes = (
{
closed = 1;
nodes = (
(406,334,l),
(406,700,l),
(334,700,l),
(334,662,o),
(296,643,o),
(254,643,c),
(254,592,l),
(335,592,l),
(335,334,l)
);
}
);
width = 660;
},
{
layerId = m003;
shapes = (
{
closed = 1;
nodes = (
(418,334,l),
(469,700,l),
(397,700,l),
(393,664,o),
(361,643,o),
(309,643,c),
(302,592,l),
(383,592,l),
(347,334,l)
);
}
);
width = 660;
}
);
metricLeft = "=|";
metricWidth = A;
},
{
glyphname = two.numr;
layers = (
{
layerId = m002;
shapes = (
{
closed = 1;
nodes = (
(461,334,l),
(461,395,l),
(250,395,l),
(250,352,l),
(359,449,ls),
(430,512,o),
(457,549,o),
(457,596,cs),
(457,662,o),
(406,708,o),
(334,708,cs),
(262,708,o),
(210,660,o),
(210,592,c),
(281,592,l),
(281,624,o),
(303,647,o),
(333,647,cs),
(364,647,o),
(386,625,o),
(386,593,cs),
(386,568,o),
(372,546,o),
(337,515,cs),
(199,391,l),
(199,334,l)
);
}
);
width = 660;
},
{
layerId = m003;
shapes = (
{
closed = 1;
nodes = (
(473,334,l),
(481,395,l),
(270,395,l),
(264,352,l),
(387,449,ls),
(481,523,o),
(506,556,o),
(506,606,cs),
(506,670,o),
(464,708,o),
(394,708,cs),
(320,708,o),
(269,665,o),
(258,592,c),
(329,592,l),
(334,625,o),
(357,647,o),
(388,647,cs),
(417,647,o),
(434,629,o),
(434,598,cs),
(434,571,o),
(421,553,o),
(374,515,cs),
(219,391,l),
(211,334,l)
);
}
);
width = 660;
}
);
metricLeft = "=|";
metricWidth = A;
},
{
glyphname = three.numr;
layers = (
{
layerId = m002;
shapes = (
{
closed = 1;
nodes = (
(411,326,o),
(467,370,o),
(467,433,cs),
(467,492,o),
(418,535,o),
(351,535,c),
(351,509,l),
(412,509,o),
(457,551,o),
(457,606,cs),
(457,666,o),
(405,708,o),
(331,708,cs),
(253,708,o),
(198,660,o),
(198,592,c),
(270,592,l),
(270,624,o),
(295,647,o),
(331,647,cs),
(363,647,o),
(386,628,o),
(386,601,cs),
(386,572,o),
(358,552,o),
(317,552,cs),
(295,552,l),
(295,491,l),
(317,491,ls),
(365,491,o),
(396,470,o),
(396,438,cs),
(396,408,o),
(369,387,o),
(331,387,cs),
(292,387,o),
(265,410,o),
(265,442,c),
(193,442,l),
(193,373,o),
(249,326,o),
(331,326,cs)
);
}
);
width = 660;
},
{
layerId = m003;
shapes = (
{
closed = 1;
nodes = (
(437,326,o),
(493,373,o),
(493,437,cs),
(493,494,o),
(450,535,o),
(391,535,c),
(377,509,l),
(455,509,o),
(507,548,o),
(507,607,cs),
(507,665,o),
(456,708,o),
(387,708,cs),
(314,708,o),
(256,660,o),
(246,592,c),
(318,592,l),
(323,624,o),
(352,647,o),
(385,647,cs),
(414,647,o),
(435,629,o),
(435,603,cs),
(435,572,o),
(405,552,o),
(359,552,cs),
(337,552,l),
(329,491,l),
(351,491,ls),
(392,491,o),
(422,468,o),
(422,437,cs),
(422,408,o),
(395,387,o),
(358,387,cs),
(322,387,o),
(297,408,o),
(292,442,c),
(220,442,l),
(230,372,o),
(286,326,o),
(361,326,cs)
);
}
);
width = 660;
}
);
metricLeft = "=|";
metricWidth = A;
},
{
glyphname = four.numr;
layers = (
{
layerId = m002;
shapes = (
{
closed = 1;
nodes = (
(483,423,l),
(483,484,l),
(202,484,l),
(236,452,l),
(416,700,l),
(346,700,l),
(177,479,l),
(177,423,l)
);
},
{
closed = 1;
nodes = (
(432,334,l),
(432,700,l),
(361,700,l),
(361,334,l)
);
}
);
width = 660;
},
{
layerId = m003;
shapes = (
{
closed = 1;
nodes = (
(507,423,l),
(516,484,l),
(235,484,l),
(264,452,l),
(479,700,l),
(409,700,l),
(209,479,l),
(201,423,l)
);
},
{
closed = 1;
nodes = (
(444,334,l),
(495,700,l),
(424,700,l),
(373,334,l)
);
}
);
width = 660;
}
);
metricLeft = "=|";
metricWidth = A;
},
{
glyphname = five.numr;
layers = (
{
layerId = m002;
shapes = (
{
closed = 1;
nodes = (
(406,326,o),
(465,381,o),
(465,459,cs),
(465,532,o),
(412,587,o),
(340,587,cs),
(285,587,o),
(241,555,o),
(225,502,c),
(271,512,l),
(286,639,l),
(441,639,l),
(441,700,l),
(226,700,l),
(207,488,l),
(271,488,l),
(278,511,o),
(300,526,o),
(327,526,cs),
(366,526,o),
(394,497,o),
(394,457,cs),
(394,416,o),
(365,387,o),
(326,387,cs),
(292,387,o),
(267,408,o),
(267,437,c),
(195,437,l),
(195,372,o),
(249,326,o),
(324,326,cs)
);
}
);
width = 660;
},
{
layerId = m003;
shapes = (
{
closed = 1;
nodes = (
(435,326,o),
(494,382,o),
(494,464,cs),
(494,538,o),
(449,587,o),
(381,587,cs),
(328,587,o),
(285,557,o),
(260,502,c),
(306,512,l),
(339,639,l),
(496,639,l),
(504,700,l),
(289,700,l),
(240,488,l),
(304,488,l),
(315,512,o),
(336,526,o),
(363,526,cs),
(399,526,o),
(423,500,o),
(423,461,cs),
(423,418,o),
(392,387,o),
(348,387,cs),
(315,387,o),
(296,404,o),
(293,437,c),
(221,437,l),
(226,367,o),
(272,326,o),
(347,326,cs)
);
}
);
width = 660;
}
);
metricLeft = "=|";
metricWidth = A;
},
{
glyphname = six.numr;
layers = (
{
layerId = m002;
shapes = (
{
closed = 1;
nodes = (
(414,326,o),
(467,379,o),
(467,454,cs),
(467,528,o),
(417,582,o),
(347,582,cs),
(283,582,o),
(235,535,o),
(223,462,c),
(252,503,l),
(260,602,o),
(287,647,o),
(340,647,cs),
(372,647,o),
(396,631,o),
(399,607,c),
(464,607,l),
(463,665,o),
(413,708,o),
(345,708,cs),
(255,708,o),
(193,628,o),
(193,512,cs),
(193,400,o),
(251,326,o),
(339,326,cs)
);
},
{
closed = 1;
nodes = (
(295,387,o),
(268,415,o),
(268,454,cs),
(268,493,o),
(295,521,o),
(332,521,cs),
(369,521,o),
(396,493,o),
(396,454,cs),
(396,415,o),
(369,387,o),
(332,387,cs)
);
}
);
width = 660;
},
{
layerId = m003;
shapes = (
{
closed = 1;
nodes = (
(444,326,o),
(498,385,o),
(498,470,cs),
(498,537,o),
(453,582,o),
(386,582,cs),
(316,582,o),
(275,532,o),
(254,462,c),
(289,503,l),
(300,580,o),
(326,647,o),
(397,647,cs),
(425,647,o),
(447,634,o),
(450,607,c),
(515,607,l),
(508,668,o),
(466,708,o),
(405,708,cs),
(288,708,o),
(228,608,o),
(228,482,cs),
(228,393,o),
(276,326,o),
(360,326,cs)
);
},
{
closed = 1;
nodes = (
(320,387,o),
(297,408,o),
(297,441,cs),
(297,487,o),
(325,521,o),
(370,521,cs),
(403,521,o),
(427,500,o),
(427,468,cs),
(427,421,o),
(399,387,o),
(353,387,cs)
);
}
);
width = 660;
}
);
metricLeft = "=|";
metricWidth = A;
},
{
glyphname = seven.numr;
layers = (
{
layerId = m002;
shapes = (
{
closed = 1;
nodes = (
(325,334,l),
(323,411,o),
(345,480,o),
(393,550,cs),
(454,640,l),
(454,700,l),
(206,700,l),
(206,639,l),
(376,639,l),
(334,576,ls),
(277,491,o),
(252,416,o),
(254,334,c)
);
}
);
width = 660;
},
{
layerId = m003;
shapes = (
{
closed = 1;
nodes = (
(337,334,l),
(346,414,o),
(375,477,o),
(435,550,cs),
(509,640,l),
(517,700,l),
(269,700,l),
(261,639,l),
(431,639,l),
(380,576,ls),
(308,488,o),
(276,421,o),
(266,334,c)
);
}
);
width = 660;
}
);
metricLeft = "=|";
metricWidth = A;
},
{
glyphname = eight.numr;
layers = (
{
layerId = m002;
shapes = (
{
closed = 1;
nodes = (
(416,326,o),
(475,371,o),
(475,437,cs),
(475,493,o),
(432,534,o),
(371,534,c),
(371,511,l),
(422,511,o),
(460,550,o),
(460,602,cs),
(460,664,o),
(406,708,o),
(330,708,cs),
(254,708,o),
(200,664,o),
(200,602,cs),
(200,550,o),
(238,511,o),
(289,511,c),
(289,534,l),
(228,534,o),
(185,493,o),
(185,437,cs),
(185,371,o),
(244,326,o),
(330,326,cs)
);
},
{
closed = 1;
nodes = (
(286,387,o),
(256,408,o),
(256,440,cs),
(256,471,o),
(287,492,o),
(331,492,cs),
(375,492,o),
(404,471,o),
(404,440,cs),
(404,409,o),
(374,387,o),
(330,387,cs)
);
},
{
closed = 1;
nodes = (
(296,553,o),
(271,573,o),
(271,600,cs),
(271,628,o),
(295,647,o),
(330,647,cs),
(365,647,o),
(389,628,o),
(389,600,cs),
(389,573,o),
(364,553,o),
(330,553,cs)
);
}
);
width = 660;
},
{
layerId = m003;
shapes = (
{
closed = 1;
nodes = (
(437,326,o),
(501,376,o),
(501,444,cs),
(501,497,o),
(464,534,o),
(411,534,c),
(398,511,l),
(459,511,o),
(509,557,o),
(509,612,cs),
(509,669,o),
(457,708,o),
(383,708,cs),
(304,708,o),
(249,664,o),
(249,601,cs),
(249,549,o),
(286,511,o),
(336,511,c),
(319,534,l),
(259,534,o),
(211,487,o),
(211,430,cs),
(211,368,o),
(266,326,o),
(348,326,cs)
);
},
{
closed = 1;
nodes = (
(310,387,o),
(283,406,o),
(283,435,cs),
(283,467,o),
(317,492,o),
(361,492,cs),
(403,492,o),
(431,472,o),
(431,442,cs),
(431,410,o),
(398,387,o),
(352,387,cs)
);
},
{
closed = 1;
nodes = (
(342,553,o),
(320,571,o),
(320,598,cs),
(320,627,o),
(346,647,o),
(382,647,cs),
(415,647,o),
(438,630,o),
(438,604,cs),
(438,576,o),
(410,553,o),
(374,553,cs)
);
}
);
width = 660;
}
);
metricLeft = "=|";
metricWidth = A;
},
{
glyphname = nine.numr;
layers = (
{
layerId = m002;
shapes = (
{
closed = 1;
nodes = (
(405,326,o),
(467,406,o),
(467,522,cs),
(467,634,o),
(409,708,o),
(321,708,cs),
(246,708,o),
(193,655,o),
(193,580,cs),
(193,506,o),
(243,452,o),
(313,452,cs),
(377,452,o),
(425,499,o),
(437,572,c),
(408,531,l),
(400,432,o),
(373,387,o),
(320,387,cs),
(288,387,o),
(264,403,o),
(261,427,c),
(196,427,l),
(197,369,o),
(247,326,o),
(315,326,cs)
);
},
{
closed = 1;
nodes = (
(291,513,o),
(264,541,o),
(264,580,cs),
(264,619,o),
(291,647,o),
(328,647,cs),
(365,647,o),
(392,619,o),
(392,580,cs),
(392,541,o),
(365,513,o),
(328,513,cs)
);
}
);
width = 660;
},
{
layerId = m003;
shapes = (
{
closed = 1;
nodes = (
(448,326,o),
(508,426,o),
(508,552,cs),
(508,641,o),
(460,708,o),
(376,708,cs),
(292,708,o),
(238,649,o),
(238,564,cs),
(238,497,o),
(283,452,o),
(350,452,cs),
(420,452,o),
(461,502,o),
(482,572,c),
(447,531,l),
(436,454,o),
(410,387,o),
(339,387,cs),
(311,387,o),
(289,400,o),
(286,427,c),
(221,427,l),
(228,366,o),
(270,326,o),
(331,326,cs)
);
},
{
closed = 1;
nodes = (
(333,513,o),
(309,534,o),
(309,566,cs),
(309,613,o),
(337,647,o),
(383,647,cs),
(416,647,o),
(439,626,o),
(439,593,cs),
(439,547,o),
(411,513,o),
(366,513,cs)
);
}
);
width = 660;
}
);
metricLeft = "=|";
metricWidth = A;
},
{
glyphname = fraction;
layers = (
{
layerId = m002;
shapes = (
{
closed = 1;
nodes = (
(525,696,l),
(467,722,l),
(135,11,l),
(193,-16,l)
);
}
);
width = 660;
},
{
layerId = m003;
shapes = (
{
closed = 1;
nodes = (
(588,696,l),
(533,722,l),
(101,11,l),
(155,-16,l)
);
}
);
width = 660;
}
);
metricLeft = "=|";
metricWidth = A;
unicode = 8260;
},
{
glyphname = onehalf;
layers = (
{
layerId = m002;
shapes = (
{
closed = 1;
nodes = (
(525,696,l),
(467,722,l),
(135,11,l),
(193,-16,l)
);
},
{
closed = 1;
nodes = (
(182,334,l),
(182,700,l),
(110,700,l),
(110,662,o),
(72,643,o),
(30,643,c),
(30,592,l),
(111,592,l),
(111,334,l)
);
},
{
closed = 1;
nodes = (
(630,0,l),
(630,61,l),
(419,61,l),
(419,18,l),
(528,115,ls),
(604,183,o),
(626,217,o),
(626,266,cs),
(626,331,o),
(584,374,o),
(519,374,cs),
(452,374,o),
(409,328,o),
(409,258,c),
(480,258,l),
(480,293,o),
(494,313,o),
(518,313,cs),
(541,313,o),
(555,295,o),
(555,265,cs),
(555,237,o),
(542,214,o),
(506,181,cs),
(368,57,l),
(368,0,l)
);
}
);
width = 660;
},
{
layerId = m003;
shapes = (
{
closed = 1;
nodes = (
(588,696,l),
(533,722,l),
(101,11,l),
(156,-16,l)
);
},
{
closed = 1;
nodes = (
(194,334,l),
(245,700,l),
(173,700,l),
(168,659,o),
(130,643,o),
(85,643,c),
(78,592,l),
(159,592,l),
(123,334,l)
);
},
{
closed = 1;
nodes = (
(595,0,l),
(603,61,l),
(392,61,l),
(386,18,l),
(509,115,ls),
(601,187,o),
(629,225,o),
(629,279,cs),
(629,338,o),
(593,374,o),
(533,374,cs),
(466,374,o),
(420,330,o),
(410,258,c),
(481,258,l),
(486,293,o),
(502,313,o),
(526,313,cs),
(546,313,o),
(558,298,o),
(558,272,cs),
(558,241,o),
(542,217,o),
(496,181,cs),
(341,57,l),
(333,0,l)
);
}
);
width = 660;
}
);
metricLeft = "=|";
metricWidth = A;
unicode = 189;
},
{
glyphname = onethird;
layers = (
{
layerId = m002;
shapes = (
{
closed = 1;
nodes = (
(525,696,l),
(467,722,l),
(135,11,l),
(193,-16,l)
);
},
{
closed = 1;
nodes = (
(182,334,l),
(182,700,l),
(110,700,l),
(110,662,o),
(72,643,o),
(30,643,c),
(30,592,l),
(111,592,l),
(111,334,l)
);
},
{
closed = 1;
nodes = (
(574,-8,o),
(630,36,o),
(630,99,cs),
(630,158,o),
(581,201,o),
(514,201,c),
(514,175,l),
(585,175,o),
(630,214,o),
(630,274,cs),
(630,334,o),
(586,374,o),
(524,374,cs),
(462,374,o),
(421,335,o),
(421,278,c),
(493,278,l),
(493,299,o),
(507,313,o),
(527,313,cs),
(549,313,o),
(559,295,o),
(559,274,cs),
(559,239,o),
(530,218,o),
(480,218,cs),
(458,218,l),
(458,157,l),
(480,157,ls),
(528,157,o),
(559,136,o),
(559,104,cs),
(559,74,o),
(532,53,o),
(494,53,cs),
(455,53,o),
(428,76,o),
(428,108,c),
(356,108,l),
(356,39,o),
(412,-8,o),
(494,-8,cs)
);
}
);
width = 660;
},
{
layerId = m003;
shapes = (
{
closed = 1;
nodes = (
(588,696,l),
(533,722,l),
(101,11,l),
(156,-16,l)
);
},
{
closed = 1;
nodes = (
(194,334,l),
(245,700,l),
(173,700,l),
(168,659,o),
(130,643,o),
(85,643,c),
(78,592,l),
(159,592,l),
(123,334,l)
);
},
{
closed = 1;
nodes = (
(550,-8,o),
(609,40,o),
(609,107,cs),
(609,164,o),
(569,201,o),
(506,201,c),
(502,175,l),
(581,175,o),
(633,217,o),
(633,282,cs),
(633,338,o),
(595,374,o),
(536,374,cs),
(476,374,o),
(433,337,o),
(424,278,c),
(496,278,l),
(499,299,o),
(514,313,o),
(533,313,cs),
(551,313,o),
(562,300,o),
(562,279,cs),
(562,242,o),
(528,218,o),
(474,218,cs),
(452,218,l),
(444,157,l),
(466,157,ls),
(513,157,o),
(538,140,o),
(538,109,cs),
(538,76,o),
(510,53,o),
(470,53,cs),
(433,53,o),
(411,73,o),
(407,108,c),
(335,108,l),
(341,34,o),
(389,-8,o),
(467,-8,cs)
);
}
);
width = 660;
}
);
metricLeft = "=|";
metricWidth = A;
unicode = 8531;
},
{
glyphname = twothirds;
layers = (
{
layerId = m002;
shapes = (
{
closed = 1;
nodes = (
(525,696,l),
(467,722,l),
(135,11,l),
(193,-16,l)
);
},
{
closed = 1;
nodes = (
(574,-8,o),
(630,36,o),
(630,99,cs),
(630,158,o),
(581,201,o),
(514,201,c),
(514,175,l),
(585,175,o),
(630,214,o),
(630,274,cs),
(630,334,o),
(586,374,o),
(524,374,cs),
(462,374,o),
(421,335,o),
(421,278,c),
(493,278,l),
(493,299,o),
(507,313,o),
(527,313,cs),
(549,313,o),
(559,295,o),
(559,274,cs),
(559,239,o),
(530,218,o),
(480,218,cs),
(458,218,l),
(458,157,l),
(480,157,ls),
(528,157,o),
(559,136,o),
(559,104,cs),
(559,74,o),
(532,53,o),
(494,53,cs),
(455,53,o),
(428,76,o),
(428,108,c),
(356,108,l),
(356,39,o),
(412,-8,o),
(494,-8,cs)
);
},
{
closed = 1;
nodes = (
(232,334,l),
(232,395,l),
(81,395,l),
(81,352,l),
(190,449,ls),
(261,512,o),
(288,549,o),
(288,596,cs),
(288,662,o),
(237,708,o),
(165,708,cs),
(93,708,o),
(41,660,o),
(41,592,c),
(112,592,l),
(112,624,o),
(134,647,o),
(164,647,cs),
(195,647,o),
(217,625,o),
(217,593,cs),
(217,568,o),
(203,546,o),
(168,515,cs),
(30,391,l),
(30,334,l)
);
}
);
width = 660;
},
{
layerId = m003;
shapes = (
{
closed = 1;
nodes = (
(588,696,l),
(533,722,l),
(101,11,l),
(156,-16,l)
);
},
{
closed = 1;
nodes = (
(550,-8,o),
(609,40,o),
(609,107,cs),
(609,164,o),
(569,201,o),
(506,201,c),
(502,175,l),
(581,175,o),
(633,217,o),
(633,282,cs),
(633,338,o),
(595,374,o),
(536,374,cs),
(476,374,o),
(433,337,o),
(424,278,c),
(496,278,l),
(499,299,o),
(514,313,o),
(533,313,cs),
(551,313,o),
(562,300,o),
(562,279,cs),
(562,242,o),
(528,218,o),
(474,218,cs),
(452,218,l),
(444,157,l),
(466,157,ls),
(513,157,o),
(538,140,o),
(538,109,cs),
(538,76,o),
(510,53,o),
(470,53,cs),
(433,53,o),
(411,73,o),
(407,108,c),
(335,108,l),
(341,34,o),
(389,-8,o),
(467,-8,cs)
);
},
{
closed = 1;
nodes = (
(244,334,l),
(252,395,l),
(101,395,l),
(95,352,l),
(218,449,ls),
(311,523,o),
(338,558,o),
(338,608,cs),
(338,670,o),
(296,708,o),
(226,708,cs),
(151,708,o),
(100,665,o),
(89,592,c),
(160,592,l),
(165,626,o),
(188,647,o),
(219,647,cs),
(249,647,o),
(266,630,o),
(266,600,cs),
(266,573,o),
(252,553,o),
(205,515,cs),
(50,391,l),
(42,334,l)
);
}
);
width = 660;
}
);
metricLeft = "=|";
metricWidth = A;
unicode = 8532;
},
{
glyphname = onequarter;
layers = (
{
layerId = m002;
shapes = (
{
closed = 1;
nodes = (
(525,696,l),
(467,722,l),
(135,11,l),
(193,-16,l)
);
},
{
closed = 1;
nodes = (
(182,334,l),
(182,700,l),
(110,700,l),
(110,662,o),
(72,643,o),
(30,643,c),
(30,592,l),
(111,592,l),
(111,334,l)
);
},
{
closed = 1;
nodes = (
(630,89,l),
(630,150,l),
(370,150,l),
(394,118,l),
(554,366,l),
(494,366,l),
(345,145,l),
(345,89,l)
);
},
{
closed = 1;
nodes = (
(580,0,l),
(580,366,l),
(509,366,l),
(509,0,l)
);
}
);
width = 660;
},
{
layerId = m003;
shapes = (
{
closed = 1;
nodes = (
(588,696,l),
(533,722,l),
(101,11,l),
(156,-16,l)
);
},
{
closed = 1;
nodes = (
(194,334,l),
(245,700,l),
(173,700,l),
(168,659,o),
(130,643,o),
(85,643,c),
(78,592,l),
(159,592,l),
(123,334,l)
);
},
{
closed = 1;
nodes = (
(607,89,l),
(616,150,l),
(356,150,l),
(375,118,l),
(570,366,l),
(510,366,l),
(330,145,l),
(322,89,l)
);
},
{
closed = 1;
nodes = (
(545,0,l),
(596,366,l),
(525,366,l),
(474,0,l)
);
}
);
width = 660;
}
);
metricLeft = "=|";
metricWidth = A;
unicode = 188;
},
{
glyphname = threequarters;
layers = (
{
layerId = m002;
shapes = (
{
closed = 1;
nodes = (
(525,696,l),
(467,722,l),
(135,11,l),
(193,-16,l)
);
},
{
closed = 1;
nodes = (
(205,326,o),
(254,371,o),
(254,433,cs),
(254,491,o),
(217,535,o),
(168,535,c),
(188,509,l),
(249,509,o),
(294,551,o),
(294,606,cs),
(294,666,o),
(242,708,o),
(168,708,cs),
(90,708,o),
(35,660,o),
(35,592,c),
(107,592,l),
(107,624,o),
(132,647,o),
(168,647,cs),
(200,647,o),
(223,628,o),
(223,601,cs),
(223,572,o),
(195,552,o),
(154,552,cs),
(132,552,l),
(132,491,l),
(144,491,ls),
(166,491,o),
(183,468,o),
(183,438,cs),
(183,409,o),
(166,387,o),
(138,387,cs),
(114,387,o),
(102,405,o),
(102,442,c),
(30,442,l),
(30,372,o),
(73,326,o),
(138,326,cs)
);
},
{
closed = 1;
nodes = (
(630,89,l),
(630,150,l),
(370,150,l),
(394,118,l),
(554,366,l),
(494,366,l),
(345,145,l),
(345,89,l)
);
},
{
closed = 1;
nodes = (
(580,0,l),
(580,366,l),
(509,366,l),
(509,0,l)
);
}
);
width = 660;
},
{
layerId = m003;
shapes = (
{
closed = 1;
nodes = (
(588,696,l),
(533,722,l),
(101,11,l),
(156,-16,l)
);
},
{
closed = 1;
nodes = (
(233,326,o),
(281,373,o),
(281,442,cs),
(281,498,o),
(252,535,o),
(208,535,c),
(224,509,l),
(297,509,o),
(345,548,o),
(345,609,cs),
(345,669,o),
(299,708,o),
(226,708,cs),
(148,708,o),
(93,663,o),
(83,592,c),
(155,592,l),
(161,626,o),
(186,647,o),
(223,647,cs),
(254,647,o),
(273,632,o),
(273,606,cs),
(273,573,o),
(243,552,o),
(196,552,cs),
(174,552,l),
(166,491,l),
(178,491,ls),
(198,491,o),
(210,473,o),
(210,443,cs),
(210,408,o),
(194,387,o),
(169,387,cs),
(147,387,o),
(134,405,o),
(129,442,c),
(57,442,l),
(58,370,o),
(98,326,o),
(164,326,cs)
);
},
{
closed = 1;
nodes = (
(607,89,l),
(616,150,l),
(356,150,l),
(375,118,l),
(570,366,l),
(510,366,l),
(330,145,l),
(322,89,l)
);
},
{
closed = 1;
nodes = (
(545,0,l),
(596,366,l),
(525,366,l),
(474,0,l)
);
}
);
width = 660;
}
);
metricLeft = "=|";
metricWidth = A;
unicode = 190;
},
{
glyphname = oneeighth;
layers = (
{
layerId = m002;
shapes = (
{
closed = 1;
nodes = (
(525,696,l),
(467,722,l),
(135,11,l),
(193,-16,l)
);
},
{
closed = 1;
nodes = (
(448,53,o),
(421,74,o),
(421,106,cs),
(421,138,o),
(448,158,o),
(490,158,cs),
(532,158,o),
(559,138,o),
(559,106,cs),
(559,74,o),
(532,53,o),
(490,53,cs)
);
},
{
closed = 1;
nodes = (
(182,334,l),
(182,700,l),
(110,700,l),
(110,662,o),
(72,643,o),
(30,643,c),
(30,592,l),
(111,592,l),
(111,334,l)
);
},
{
closed = 1;
nodes = (
(575,-8,o),
(630,35,o),
(630,103,cs),
(630,161,o),
(589,200,o),
(526,200,c),
(525,183,l),
(580,183,o),
(615,218,o),
(615,271,cs),
(615,332,o),
(572,374,o),
(510,374,cs),
(449,374,o),
(405,330,o),
(405,269,cs),
(405,216,o),
(440,183,o),
(495,183,c),
(454,200,l),
(391,200,o),
(350,161,o),
(350,103,cs),
(350,35,o),
(405,-8,o),
(490,-8,cs)
);
},
{
closed = 1;
nodes = (
(485,219,o),
(468,238,o),
(468,266,cs),
(468,294,o),
(485,313,o),
(510,313,cs),
(535,313,o),
(552,294,o),
(552,266,cs),
(552,238,o),
(535,219,o),
(510,219,cs)
);
}
);
width = 660;
},
{
layerId = m003;
shapes = (
{
closed = 1;
nodes = (
(588,696,l),
(533,722,l),
(101,11,l),
(156,-16,l)
);
},
{
closed = 1;
nodes = (
(423,53,o),
(399,70,o),
(399,101,cs),
(399,135,o),
(429,158,o),
(473,158,cs),
(513,158,o),
(538,139,o),
(538,107,cs),
(538,74,o),
(510,53,o),
(464,53,cs)
);
},
{
closed = 1;
nodes = (
(194,334,l),
(245,700,l),
(173,700,l),
(168,659,o),
(130,643,o),
(85,643,c),
(78,592,l),
(159,592,l),
(123,334,l)
);
},
{
closed = 1;
nodes = (
(550,-8,o),
(609,37,o),
(609,105,cs),
(609,162,o),
(569,200,o),
(508,200,c),
(505,183,l),
(575,183,o),
(618,219,o),
(618,278,cs),
(618,335,o),
(577,374,o),
(516,374,cs),
(451,374,o),
(406,331,o),
(406,267,cs),
(406,216,o),
(433,183,o),
(475,183,c),
(447,200,l),
(375,200,o),
(327,159,o),
(327,98,cs),
(327,33,o),
(379,-8,o),
(463,-8,cs)
);
},
{
closed = 1;
nodes = (
(483,219,o),
(468,237,o),
(468,264,cs),
(468,294,o),
(487,313,o),
(515,313,cs),
(539,313,o),
(554,298,o),
(554,272,cs),
(554,241,o),
(534,219,o),
(507,219,cs)
);
}
);
width = 660;
}
);
metricLeft = "=|";
metricWidth = A;
unicode = 8539;
},
{
glyphname = threeeighths;
layers = (
{
layerId = m002;
shapes = (
{
closed = 1;
nodes = (
(525,696,l),
(467,722,l),
(135,11,l),
(193,-16,l)
);
},
{
closed = 1;
nodes = (
(448,53,o),
(421,74,o),
(421,106,cs),
(421,138,o),
(448,158,o),
(490,158,cs),
(532,158,o),
(559,138,o),
(559,106,cs),
(559,74,o),
(532,53,o),
(490,53,cs)
);
},
{
closed = 1;
nodes = (
(575,-8,o),
(630,35,o),
(630,103,cs),
(630,161,o),
(589,200,o),
(526,200,c),
(525,183,l),
(580,183,o),
(615,218,o),
(615,271,cs),
(615,332,o),
(572,374,o),
(510,374,cs),
(449,374,o),
(405,330,o),
(405,269,cs),
(405,216,o),
(440,183,o),
(495,183,c),
(454,200,l),
(391,200,o),
(350,161,o),
(350,103,cs),
(350,35,o),
(405,-8,o),
(490,-8,cs)
);
},
{
closed = 1;
nodes = (
(205,326,o),
(254,371,o),
(254,433,cs),
(254,491,o),
(217,535,o),
(168,535,c),
(188,509,l),
(249,509,o),
(294,551,o),
(294,606,cs),
(294,666,o),
(242,708,o),
(168,708,cs),
(90,708,o),
(35,660,o),
(35,592,c),
(107,592,l),
(107,624,o),
(132,647,o),
(168,647,cs),
(200,647,o),
(223,628,o),
(223,601,cs),
(223,572,o),
(195,552,o),
(154,552,cs),
(132,552,l),
(132,491,l),
(144,491,ls),
(166,491,o),
(183,468,o),
(183,438,cs),
(183,409,o),
(166,387,o),
(138,387,cs),
(114,387,o),
(102,405,o),
(102,442,c),
(30,442,l),
(30,372,o),
(73,326,o),
(138,326,cs)
);
},
{
closed = 1;
nodes = (
(485,219,o),
(468,238,o),
(468,266,cs),
(468,294,o),
(485,313,o),
(510,313,cs),
(535,313,o),
(552,294,o),
(552,266,cs),
(552,238,o),
(535,219,o),
(510,219,cs)
);
}
);
width = 660;
},
{
layerId = m003;
shapes = (
{
closed = 1;
nodes = (
(588,696,l),
(533,722,l),
(101,11,l),
(156,-16,l)
);
},
{
closed = 1;
nodes = (
(423,53,o),
(399,70,o),
(399,101,cs),
(399,135,o),
(429,158,o),
(473,158,cs),
(513,158,o),
(538,139,o),
(538,107,cs),
(538,74,o),
(510,53,o),
(464,53,cs)
);
},
{
closed = 1;
nodes = (
(550,-8,o),
(609,37,o),
(609,105,cs),
(609,162,o),
(569,200,o),
(508,200,c),
(505,183,l),
(575,183,o),
(618,219,o),
(618,278,cs),
(618,335,o),
(577,374,o),
(516,374,cs),
(451,374,o),
(406,331,o),
(406,267,cs),
(406,216,o),
(433,183,o),
(475,183,c),
(447,200,l),
(375,200,o),
(327,159,o),
(327,98,cs),
(327,33,o),
(379,-8,o),
(463,-8,cs)
);
},
{
closed = 1;
nodes = (
(233,326,o),
(281,373,o),
(281,442,cs),
(281,498,o),
(252,535,o),
(208,535,c),
(224,509,l),
(297,509,o),
(345,548,o),
(345,609,cs),
(345,669,o),
(299,708,o),
(226,708,cs),
(148,708,o),
(93,663,o),
(83,592,c),
(155,592,l),
(161,626,o),
(186,647,o),
(223,647,cs),
(254,647,o),
(273,632,o),
(273,606,cs),
(273,573,o),
(243,552,o),
(196,552,cs),
(174,552,l),
(166,491,l),
(178,491,ls),
(198,491,o),
(210,473,o),
(210,443,cs),
(210,408,o),
(194,387,o),
(169,387,cs),
(147,387,o),
(134,405,o),
(129,442,c),
(57,442,l),
(58,370,o),
(98,326,o),
(164,326,cs)
);
},
{
closed = 1;
nodes = (
(483,219,o),
(468,237,o),
(468,264,cs),
(468,294,o),
(487,313,o),
(515,313,cs),
(539,313,o),
(554,298,o),
(554,272,cs),
(554,241,o),
(534,219,o),
(507,219,cs)
);
}
);
width = 660;
}
);
metricLeft = "=|";
metricWidth = A;
unicode = 8540;
},
{
glyphname = fiveeighths;
layers = (
{
layerId = m002;
shapes = (
{
closed = 1;
nodes = (
(525,696,l),
(467,722,l),
(135,11,l),
(193,-16,l)
);
},
{
closed = 1;
nodes = (
(448,53,o),
(421,74,o),
(421,106,cs),
(421,138,o),
(448,158,o),
(490,158,cs),
(532,158,o),
(559,138,o),
(559,106,cs),
(559,74,o),
(532,53,o),
(490,53,cs)
);
},
{
closed = 1;
nodes = (
(201,326,o),
(260,361,o),
(260,459,cs),
(260,537,o),
(227,587,o),
(175,587,cs),
(127,587,o),
(86,553,o),
(70,502,c),
(106,512,l),
(121,639,l),
(276,639,l),
(276,700,l),
(61,700,l),
(42,488,l),
(106,488,l),
(113,510,o),
(132,526,o),
(152,526,cs),
(175,526,o),
(189,500,o),
(189,457,cs),
(189,412,o),
(172,387,o),
(141,387,cs),
(116,387,o),
(102,405,o),
(102,437,c),
(30,437,l),
(30,368,o),
(71,326,o),
(139,326,cs)
);
},
{
closed = 1;
nodes = (
(575,-8,o),
(630,35,o),
(630,103,cs),
(630,161,o),
(589,200,o),
(526,200,c),
(525,183,l),
(580,183,o),
(615,218,o),
(615,271,cs),
(615,332,o),
(572,374,o),
(510,374,cs),
(449,374,o),
(405,330,o),
(405,269,cs),
(405,216,o),
(440,183,o),
(495,183,c),
(454,200,l),
(391,200,o),
(350,161,o),
(350,103,cs),
(350,35,o),
(405,-8,o),
(490,-8,cs)
);
},
{
closed = 1;
nodes = (
(485,219,o),
(468,238,o),
(468,266,cs),
(468,294,o),
(485,313,o),
(510,313,cs),
(535,313,o),
(552,294,o),
(552,266,cs),
(552,238,o),
(535,219,o),
(510,219,cs)
);
}
);
width = 660;
},
{
layerId = m003;
shapes = (
{
closed = 1;
nodes = (
(588,696,l),
(533,722,l),
(101,11,l),
(156,-16,l)
);
},
{
closed = 1;
nodes = (
(423,53,o),
(399,70,o),
(399,101,cs),
(399,135,o),
(429,158,o),
(473,158,cs),
(513,158,o),
(538,139,o),
(538,107,cs),
(538,74,o),
(510,53,o),
(464,53,cs)
);
},
{
closed = 1;
nodes = (
(246,326,o),
(291,379,o),
(291,470,cs),
(291,545,o),
(262,587,o),
(212,587,cs),
(169,587,o),
(131,557,o),
(105,502,c),
(138,512,l),
(171,639,l),
(331,639,l),
(339,700,l),
(124,700,l),
(75,488,l),
(139,488,l),
(151,514,o),
(165,526,o),
(185,526,cs),
(210,526,o),
(220,510,o),
(220,470,cs),
(220,417,o),
(202,387,o),
(170,387,cs),
(145,387,o),
(129,406,o),
(128,437,c),
(56,437,l),
(58,369,o),
(103,326,o),
(170,326,cs)
);
},
{
closed = 1;
nodes = (
(550,-8,o),
(609,37,o),
(609,105,cs),
(609,162,o),
(569,200,o),
(508,200,c),
(505,183,l),
(575,183,o),
(618,219,o),
(618,278,cs),
(618,335,o),
(577,374,o),
(516,374,cs),
(451,374,o),
(406,331,o),
(406,267,cs),
(406,216,o),
(433,183,o),
(475,183,c),
(447,200,l),
(375,200,o),
(327,159,o),
(327,98,cs),
(327,33,o),
(379,-8,o),
(463,-8,cs)
);
},
{
closed = 1;
nodes = (
(483,219,o),
(468,237,o),
(468,264,cs),
(468,294,o),
(487,313,o),
(515,313,cs),
(539,313,o),
(554,298,o),
(554,272,cs),
(554,241,o),
(534,219,o),
(507,219,cs)
);
}
);
width = 660;
}
);
metricLeft = "=|";
metricWidth = A;
unicode = 8541;
},
{
glyphname = seveneighths;
layers = (
{
layerId = m002;
shapes = (
{
closed = 1;
nodes = (
(525,696,l),
(467,722,l),
(135,11,l),
(193,-16,l)
);
},
{
closed = 1;
nodes = (
(448,53,o),
(421,74,o),
(421,106,cs),
(421,138,o),
(448,158,o),
(490,158,cs),
(532,158,o),
(559,138,o),
(559,106,cs),
(559,74,o),
(532,53,o),
(490,53,cs)
);
},
{
closed = 1;
nodes = (
(575,-8,o),
(630,35,o),
(630,103,cs),
(630,161,o),
(589,200,o),
(526,200,c),
(525,183,l),
(580,183,o),
(615,218,o),
(615,271,cs),
(615,332,o),
(572,374,o),
(510,374,cs),
(449,374,o),
(405,330,o),
(405,269,cs),
(405,216,o),
(440,183,o),
(495,183,c),
(454,200,l),
(391,200,o),
(350,161,o),
(350,103,cs),
(350,35,o),
(405,-8,o),
(490,-8,cs)
);
},
{
closed = 1;
nodes = (
(159,334,l),
(157,413,o),
(179,482,o),
(229,554,cs),
(288,640,l),
(288,700,l),
(30,700,l),
(30,639,l),
(210,639,l),
(172,580,ls),
(110,481,o),
(86,410,o),
(88,334,c)
);
},
{
closed = 1;
nodes = (
(485,219,o),
(468,238,o),
(468,266,cs),
(468,294,o),
(485,313,o),
(510,313,cs),
(535,313,o),
(552,294,o),
(552,266,cs),
(552,238,o),
(535,219,o),
(510,219,cs)
);
}
);
width = 660;
},
{
layerId = m003;
shapes = (
{
closed = 1;
nodes = (
(588,696,l),
(533,722,l),
(101,11,l),
(156,-16,l)
);
},
{
closed = 1;
nodes = (
(423,53,o),
(399,70,o),
(399,101,cs),
(399,135,o),
(429,158,o),
(473,158,cs),
(513,158,o),
(538,139,o),
(538,107,cs),
(538,74,o),
(510,53,o),
(464,53,cs)
);
},
{
closed = 1;
nodes = (
(550,-8,o),
(609,37,o),
(609,105,cs),
(609,162,o),
(569,200,o),
(508,200,c),
(505,183,l),
(575,183,o),
(618,219,o),
(618,278,cs),
(618,335,o),
(577,374,o),
(516,374,cs),
(451,374,o),
(406,331,o),
(406,267,cs),
(406,216,o),
(433,183,o),
(475,183,c),
(447,200,l),
(375,200,o),
(327,159,o),
(327,98,cs),
(327,33,o),
(379,-8,o),
(463,-8,cs)
);
},
{
closed = 1;
nodes = (
(171,334,l),
(180,414,o),
(208,476,o),
(272,554,cs),
(343,640,l),
(351,700,l),
(93,700,l),
(85,639,l),
(265,639,l),
(218,580,ls),
(136,477,o),
(109,415,o),
(100,334,c)
);
},
{
closed = 1;
nodes = (
(483,219,o),
(468,237,o),
(468,264,cs),
(468,294,o),
(487,313,o),
(515,313,cs),
(539,313,o),
(554,298,o),
(554,272,cs),
(554,241,o),
(534,219,o),
(507,219,cs)
);
}
);
width = 660;
}
);
metricLeft = "=|";
metricWidth = A;
unicode = 8542;
},
{
glyphname = period;
layers = (
{
layerId = m002;
shapes = (
{
closed = 1;
nodes = (
(395,0,l),
(395,140,l),
(265,140,l),
(265,0,l)
);
}
);
width = 660;
},
{
layerId = m003;
shapes = (
{
closed = 1;
nodes = (
(361,0,l),
(380,140,l),
(250,140,l),
(231,0,l)
);
}
);
width = 660;
}
);
metricLeft = "=|";
metricWidth = A;
unicode = 46;
},
{
glyphname = comma;
layers = (
{
layerId = m002;
shapes = (
{
closed = 1;
nodes = (
(333,-191,l),
(333,0,l),
(265,0,l),
(265,-191,l)
);
},
{
closed = 1;
nodes = (
(395,0,l),
(395,140,l),
(265,140,l),
(265,0,l)
);
}
);
width = 660;
},
{
layerId = m003;
shapes = (
{
closed = 1;
nodes = (
(272,-191,l),
(299,0,l),
(231,0,l),
(204,-191,l)
);
},
{
closed = 1;
nodes = (
(361,0,l),
(380,140,l),
(250,140,l),
(231,0,l)
);
}
);
width = 660;
}
);
metricLeft = "=|";
metricWidth = A;
unicode = 44;
},
{
glyphname = ellipsis;
layers = (
{
layerId = m002;
shapes = (
{
closed = 1;
nodes = (
(165,0,l),
(165,130,l),
(65,130,l),
(65,0,l)
);
},
{
closed = 1;
nodes = (
(595,0,l),
(595,130,l),
(495,130,l),
(495,0,l)
);
},
{
closed = 1;
nodes = (
(380,0,l),
(380,130,l),
(280,130,l),
(280,0,l)
);
}
);
width = 660;
},
{
layerId = m003;
shapes = (
{
closed = 1;
nodes = (
(130,0,l),
(148,130,l),
(48,130,l),
(30,0,l)
);
},
{
closed = 1;
nodes = (
(560,0,l),
(578,130,l),
(478,130,l),
(460,0,l)
);
},
{
closed = 1;
nodes = (
(345,0,l),
(363,130,l),
(263,130,l),
(245,0,l)
);
}
);
width = 660;
}
);
metricLeft = "=|";
metricWidth = A;
unicode = 8230;
},
{
glyphname = exclam;
layers = (
{
layerId = m002;
shapes = (
{
closed = 1;
nodes = (
(375,220,l),
(385,700,l),
(275,700,l),
(285,220,l)
);
},
{
closed = 1;
nodes = (
(410,0,l),
(410,120,l),
(250,120,l),
(250,0,l)
);
}
);
width = 660;
},
{
layerId = m003;
shapes = (
{
closed = 1;
nodes = (
(371,220,l),
(448,700,l),
(338,700,l),
(281,220,l)
);
},
{
closed = 1;
nodes = (
(375,0,l),
(392,120,l),
(232,120,l),
(215,0,l)
);
}
);
width = 660;
}
);
metricLeft = "=|";
metricWidth = A;
unicode = 33;
},
{
glyphname = question;
layers = (
{
layerId = m002;
shapes = (
{
closed = 1;
nodes = (
(358,220,l),
(358,249,o),
(394,296,o),
(468,352,cs),
(540,407,o),
(572,460,o),
(572,524,cs),
(572,643,o),
(482,716,o),
(335,716,cs),
(185,716,o),
(88,637,o),
(88,516,c),
(198,516,l),
(198,581,o),
(254,626,o),
(335,626,cs),
(412,626,o),
(462,586,o),
(462,524,cs),
(462,477,o),
(428,430,o),
(361,386,cs),
(285,335,o),
(248,277,o),
(248,220,c)
);
},
{
closed = 1;
nodes = (
(373,0,l),
(373,120,l),
(213,120,l),
(213,0,l)
);
}
);
width = 660;
},
{
layerId = m003;
shapes = (
{
closed = 1;
nodes = (
(354,220,l),
(364,289,o),
(424,312,o),
(497,362,cs),
(555,402,o),
(612,453,o),
(612,541,cs),
(612,649,o),
(526,716,o),
(389,716,cs),
(243,716,o),
(142,639,o),
(125,516,c),
(235,516,l),
(245,583,o),
(304,626,o),
(388,626,cs),
(461,626,o),
(501,593,o),
(501,534,cs),
(501,464,o),
(445,426,o),
(389,392,cs),
(310,343,o),
(255,300,o),
(244,220,c)
);
},
{
closed = 1;
nodes = (
(338,0,l),
(355,120,l),
(195,120,l),
(178,0,l)
);
}
);
width = 660;
}
);
metricLeft = "=|";
metricWidth = A;
unicode = 63;
},
{
glyphname = bullet;
layers = (
{
layerId = m002;
shapes = (
{
closed = 1;
nodes = (
(424,110,o),
(490,176,o),
(490,270,c),
(490,364,o),
(424,430,o),
(330,430,c),
(236,430,o),
(170,364,o),
(170,270,c),
(170,176,o),
(236,110,o),
(330,110,c)
);
}
);
width = 660;
},
{
layerId = m003;
shapes = (
{
closed = 1;
nodes = (
(416,110,o),
(493,185,o),
(493,287,cs),
(493,374,o),
(438,430,o),
(355,430,c),
(249,430,o),
(173,356,o),
(173,254,cs),
(173,167,o),
(228,110,o),
(310,110,c)
);
}
);
width = 660;
}
);
metricLeft = "=|";
metricWidth = A;
unicode = 8226;
},
{
glyphname = asterisk;
layers = (
{
layerId = m002;
shapes = (
{
closed = 1;
nodes = (
(330,445,l),
(417,320,l),
(476,359,l),
(389,484,l),
(525,537,l),
(495,604,l),
(366,550,l),
(366,696,l),
(294,696,l),
(294,550,l),
(165,604,l),
(135,537,l),
(271,484,l),
(184,359,l),
(243,320,l)
);
}
);
width = 660;
},
{
layerId = m003;
shapes = (
{
closed = 1;
nodes = (
(357,445,l),
(427,320,l),
(491,359,l),
(422,484,l),
(565,537,l),
(545,604,l),
(408,550,l),
(429,696,l),
(357,696,l),
(336,550,l),
(215,604,l),
(175,537,l),
(304,484,l),
(199,359,l),
(253,320,l)
);
}
);
width = 660;
}
);
metricLeft = "=|";
metricWidth = A;
unicode = 42;
},
{
glyphname = numbersign;
layers = (
{
layerId = m002;
shapes = (
{
closed = 1;
nodes = (
(505,0,l),
(505,700,l),
(420,700,l),
(420,0,l)
);
},
{
closed = 1;
nodes = (
(240,0,l),
(240,700,l),
(155,700,l),
(155,0,l)
);
},
{
closed = 1;
nodes = (
(605,180,l),
(605,260,l),
(55,260,l),
(55,180,l)
);
},
{
closed = 1;
nodes = (
(605,440,l),
(605,520,l),
(55,520,l),
(55,440,l)
);
}
);
width = 660;
},
{
layerId = m003;
shapes = (
{
closed = 1;
nodes = (
(470,0,l),
(568,700,l),
(483,700,l),
(385,0,l)
);
},
{
closed = 1;
nodes = (
(205,0,l),
(303,700,l),
(218,700,l),
(120,0,l)
);
},
{
closed = 1;
nodes = (
(595,180,l),
(606,260,l),
(56,260,l),
(45,180,l)
);
},
{
closed = 1;
nodes = (
(632,440,l),
(643,520,l),
(93,520,l),
(82,440,l)
);
}
);
width = 660;
}
);
metricLeft = "=|";
metricWidth = A;
unicode = 35;
},
{
glyphname = slash;
layers = (
{
layerId = m002;
shapes = (
{
closed = 1;
nodes = (
(583,668,l),
(501,716,l),
(77,-17,l),
(159,-65,l)
);
}
);
width = 660;
},
{
layerId = m003;
shapes = (
{
closed = 1;
nodes = (
(642,668,l),
(566,716,l),
(39,-17,l),
(115,-65,l)
);
}
);
width = 660;
}
);
metricLeft = "=|";
metricWidth = A;
unicode = 47;
},
{
glyphname = hyphen;
layers = (
{
layerId = m002;
shapes = (
{
closed = 1;
nodes = (
(500,225,l),
(500,315,l),
(160,315,l),
(160,225,l)
);
}
);
width = 660;
},
{
layerId = m003;
shapes = (
{
closed = 1;
nodes = (
(496,225,l),
(509,315,l),
(169,315,l),
(156,225,l)
);
}
);
width = 660;
}
);
metricLeft = "=|";
metricWidth = A;
unicode = 45;
},
{
glyphname = endash;
layers = (
{
layerId = m002;
shapes = (
{
closed = 1;
nodes = (
(550,225,l),
(550,315,l),
(110,315,l),
(110,225,l)
);
}
);
width = 660;
},
{
layerId = m003;
shapes = (
{
closed = 1;
nodes = (
(546,225,l),
(559,315,l),
(119,315,l),
(106,225,l)
);
}
);
width = 660;
}
);
metricLeft = "=|";
metricWidth = A;
unicode = 8211;
},
{
glyphname = emdash;
layers = (
{
layerId = m002;
shapes = (
{
closed = 1;
nodes = (
(630,225,l),
(630,315,l),
(30,315,l),
(30,225,l)
);
}
);
width = 660;
},
{
layerId = m003;
shapes = (
{
closed = 1;
nodes = (
(626,225,l),
(639,315,l),
(39,315,l),
(26,225,l)
);
}
);
width = 660;
}
);
metricLeft = "=|";
metricWidth = A;
unicode = 8212;
},
{
glyphname = underscore;
layers = (
{
layerId = m002;
shapes = (
{
closed = 1;
nodes = (
(540,-110,l),
(540,-25,l),
(120,-25,l),
(120,-110,l)
);
}
);
width = 660;
},
{
layerId = m003;
shapes = (
{
closed = 1;
nodes = (
(489,-110,l),
(501,-25,l),
(81,-25,l),
(69,-110,l)
);
}
);
width = 660;
}
);
metricLeft = "=|";
metricWidth = A;
unicode = 95;
},
{
glyphname = parenleft;
layers = (
{
layerId = m002;
shapes = (
{
closed = 1;
nodes = (
(450,-166,l),
(364,-46,o),
(320,105,o),
(320,275,cs),
(320,445,o),
(364,596,o),
(450,716,c),
(370,716,l),
(265,580,o),
(210,428,o),
(210,275,cs),
(210,122,o),
(265,-30,o),
(370,-166,c)
);
}
);
width = 660;
},
{
layerId = m003;
shapes = (
{
closed = 1;
nodes = (
(392,-166,l),
(336,-69,o),
(315,20,o),
(315,154,cs),
(315,380,o),
(377,553,o),
(516,716,c),
(436,716,l),
(276,540,o),
(208,382,o),
(208,186,cs),
(208,55,o),
(238,-48,o),
(312,-166,c)
);
}
);
width = 660;
}
);
metricLeft = "=|";
metricWidth = A;
unicode = 40;
},
{
glyphname = braceleft;
layers = (
{
layerId = m002;
shapes = (
{
closed = 1;
nodes = (
(501,-166,l),
(501,-86,l),
(462,-86,ls),
(388,-86,o),
(353,-52,o),
(361,14,cs),
(371,96,ls),
(383,198,o),
(296,276,o),
(170,276,c),
(170,256,l),
(295,256,o),
(382,334,o),
(371,436,cs),
(361,520,ls),
(353,585,o),
(389,620,o),
(462,620,cs),
(501,620,l),
(501,700,l),
(434,700,ls),
(318,700,o),
(239,617,o),
(261,520,cs),
(271,476,ls),
(289,393,o),
(240,320,o),
(159,311,c),
(159,221,l),
(241,212,o),
(290,139,o),
(271,56,cs),
(261,14,ls),
(238,-83,o),
(317,-166,o),
(434,-166,cs)
);
}
);
width = 660;
},
{
layerId = m003;
shapes = (
{
closed = 1;
nodes = (
(442,-166,l),
(454,-86,l),
(395,-86,ls),
(341,-86,o),
(313,-45,o),
(328,14,cs),
(349,96,ls),
(376,201,o),
(304,276,o),
(174,276,c),
(171,256,l),
(306,256,o),
(394,326,o),
(397,436,cs),
(399,520,ls),
(400,580,o),
(446,620,o),
(514,620,cs),
(553,620,l),
(564,700,l),
(497,700,ls),
(372,700,o),
(289,625,o),
(299,520,cs),
(303,476,ls),
(311,386,o),
(257,320,o),
(168,311,c),
(155,221,l),
(239,212,o),
(280,146,o),
(244,56,cs),
(234,31,l),
(195,-72,o),
(262,-166,o),
(375,-166,cs)
);
}
);
width = 660;
}
);
metricLeft = "=|";
metricWidth = A;
unicode = 123;
},
{
glyphname = bracketleft;
layers = (
{
layerId = m002;
shapes = (
{
closed = 1;
nodes = (
(280,-166,l),
(280,700,l),
(180,700,l),
(180,-166,l)
);
},
{
closed = 1;
nodes = (
(480,-166,l),
(480,-86,l),
(235,-86,l),
(235,-166,l)
);
},
{
closed = 1;
nodes = (
(480,620,l),
(480,700,l),
(235,700,l),
(235,620,l)
);
}
);
width = 660;
},
{
layerId = m003;
shapes = (
{
closed = 1;
nodes = (
(222,-166,l),
(344,700,l),
(244,700,l),
(122,-166,l)
);
},
{
closed = 1;
nodes = (
(422,-166,l),
(434,-86,l),
(189,-86,l),
(177,-166,l)
);
},
{
closed = 1;
nodes = (
(533,620,l),
(544,700,l),
(299,700,l),
(288,620,l)
);
}
);
width = 660;
}
);
metricLeft = "=|";
metricWidth = A;
unicode = 91;
},
{
glyphname = guilsinglleft;
layers = (
{
layerId = m002;
shapes = (
{
closed = 1;
nodes = (
(445,63,l),
(308,302,l),
(308,262,l),
(445,500,l),
(345,500,l),
(215,282,l),
(345,63,l)
);
}
);
width = 660;
},
{
layerId = m003;
shapes = (
{
closed = 1;
nodes = (
(419,63,l),
(315,302,l),
(310,262,l),
(480,500,l),
(380,500,l),
(219,282,l),
(319,63,l)
);
}
);
width = 660;
}
);
metricLeft = "=|";
metricWidth = A;
unicode = 8249;
},
{
glyphname = quotesingle;
layers = (
{
layerId = m002;
shapes = (
{
closed = 1;
nodes = (
(370,460,l),
(385,700,l),
(275,700,l),
(290,460,l)
);
}
);
width = 660;
},
{
layerId = m003;
shapes = (
{
closed = 1;
nodes = (
(399,460,l),
(448,700,l),
(338,700,l),
(319,460,l)
);
}
);
width = 660;
}
);
metricLeft = "=|";
metricWidth = A;
unicode = 39;
},
{
glyphname = florin;
layers = (
{
layerId = m002;
shapes = (
{
closed = 1;
nodes = (
(225,-216,o),
(306,-159,o),
(320,-70,cs),
(420,570,ls),
(426,609,o),
(458,636,o),
(500,636,cs),
(550,636,l),
(550,716,l),
(470,716,ls),
(392,716,o),
(332,662,o),
(320,580,cs),
(220,-60,ls),
(213,-107,o),
(171,-136,o),
(110,-136,c),
(110,-216,l)
);
},
{
closed = 1;
nodes = (
(550,300,l),
(550,380,l),
(140,380,l),
(140,300,l)
);
}
);
width = 660;
},
{
layerId = m003;
shapes = (
{
closed = 1;
nodes = (
(160,-216,o),
(249,-159,o),
(276,-70,cs),
(466,570,ls),
(477,609,o),
(513,636,o),
(555,636,cs),
(605,636,l),
(616,716,l),
(536,716,ls),
(458,716,o),
(391,662,o),
(367,580,cs),
(177,-60,ls),
(164,-107,o),
(118,-136,o),
(57,-136,c),
(45,-216,l)
);
},
{
closed = 1;
nodes = (
(558,300,l),
(569,380,l),
(159,380,l),
(148,300,l)
);
}
);
width = 660;
}
);
metricLeft = "=|";
metricWidth = A;
unicode = 402;
},
{
glyphname = baht;
layers = (
{
layerId = m002;
shapes = (
{
closed = 1;
nodes = (
(381,0,ls),
(504,0,o),
(594,77,o),
(594,182,cs),
(594,296,o),
(490,373,o),
(335,373,c),
(335,333,l),
(471,333,o),
(565,407,o),
(565,514,cs),
(565,623,o),
(468,700,o),
(331,700,cs),
(112,700,l),
(112,610,l),
(341,610,ls),
(407,610,o),
(455,565,o),
(455,503,cs),
(455,441,o),
(407,396,o),
(341,396,cs),
(112,396,l),
(112,306,l),
(341,306,ls),
(426,306,o),
(484,263,o),
(484,199,cs),
(484,135,o),
(425,90,o),
(341,90,cs),
(112,90,l),
(112,0,l)
);
},
{
closed = 1;
nodes = (
(176,0,l),
(176,700,l),
(66,700,l),
(66,0,l)
);
},
{
closed = 1;
nodes = (
(323,-111,l),
(323,800,l),
(277,800,l),
(277,-111,l)
);
}
);
width = 660;
},
{
layerId = m003;
shapes = (
{
closed = 1;
nodes = (
(345,0,ls),
(487,0,o),
(586,83,o),
(586,201,cs),
(586,311,o),
(501,373,o),
(351,373,c),
(346,333,l),
(505,333,o),
(603,405,o),
(603,521,cs),
(603,629,o),
(519,700,o),
(393,700,cs),
(174,700,l),
(162,610,l),
(391,610,ls),
(453,610,o),
(491,574,o),
(491,516,cs),
(491,446,o),
(436,396,o),
(360,396,cs),
(131,396,l),
(119,306,l),
(348,306,ls),
(428,306,o),
(477,269,o),
(477,207,cs),
(477,136,o),
(414,90,o),
(317,90,cs),
(88,90,l),
(76,0,l)
);
},
{
closed = 1;
nodes = (
(140,0,l),
(238,700,l),
(128,700,l),
(30,0,l)
);
},
{
closed = 1;
nodes = (
(271,-111,l),
(399,800,l),
(353,800,l),
(225,-111,l)
);
}
);
width = 660;
}
);
metricLeft = "=|";
metricWidth = A;
unicode = 3647;
},
{
glyphname = at;
layers = (
{
layerId = m002;
shapes = (
{
closed = 1;
nodes = (
(565,-145,l),
(565,-65,l),
(413,-65,ls),
(245,-65,o),
(140,60,o),
(140,262,cs),
(140,437,o),
(216,545,o),
(338,545,cs),
(456,545,o),
(520,445,o),
(520,261,c),
(520,81,l),
(605,81,l),
(605,281,l),
(605,497,o),
(507,625,o),
(341,625,cs),
(168,625,o),
(55,480,o),
(55,257,cs),
(55,10,o),
(194,-145,o),
(414,-145,cs)
);
},
{
closed = 1;
nodes = (
(463,39,o),
(520,98,o),
(520,178,cs),
(520,299,ls),
(520,380,o),
(463,439,o),
(384,439,cs),
(291,439,o),
(223,355,o),
(223,239,cs),
(223,123,o),
(291,39,o),
(384,39,cs)
);
},
{
closed = 1;
nodes = (
(358,119,o),
(323,167,o),
(323,239,cs),
(323,311,o),
(358,359,o),
(410,359,cs),
(463,359,o),
(497,311,o),
(497,239,cs),
(497,167,o),
(463,119,o),
(410,119,cs)
);
}
);
width = 660;
},
{
layerId = m003;
shapes = (
{
closed = 1;
nodes = (
(512,-145,l),
(524,-65,l),
(381,-65,ls),
(225,-65,o),
(140,33,o),
(140,213,cs),
(140,406,o),
(235,545,o),
(367,545,cs),
(487,545,o),
(548,434,o),
(524,261,cs),
(499,81,l),
(584,81,l),
(612,281,l),
(640,484,o),
(541,625,o),
(372,625,cs),
(188,625,o),
(53,451,o),
(53,213,cs),
(53,-11,o),
(176,-145,o),
(381,-145,cs)
);
},
{
closed = 1;
nodes = (
(443,39,o),
(506,108,o),
(520,209,c),
(531,286,ls),
(544,376,o),
(491,439,o),
(403,439,cs),
(297,439,o),
(221,349,o),
(221,225,cs),
(221,117,o),
(281,39,o),
(364,39,cs)
);
},
{
closed = 1;
nodes = (
(353,119,o),
(322,161,o),
(322,225,cs),
(322,302,o),
(366,359,o),
(424,359,cs),
(471,359,o),
(500,321,o),
(500,258,cs),
(500,180,o),
(455,119,o),
(399,119,cs)
);
}
);
width = 660;
}
);
metricLeft = "=|";
metricWidth = A;
unicode = 64;
},
{
glyphname = ampersand;
layers = (
{
layerId = m002;
shapes = (
{
closed = 1;
nodes = (
(643,0,l),
(285,376,ls),
(203,462,o),
(184,492,o),
(184,533,cs),
(184,589,o),
(220,626,o),
(275,626,cs),
(330,626,o),
(366,590,o),
(366,535,cs),
(366,480,o),
(329,449,o),
(212,409,c),
(275,339,l),
(417,400,o),
(476,460,o),
(476,544,cs),
(476,645,o),
(393,716,o),
(275,716,cs),
(156,716,o),
(74,644,o),
(74,540,cs),
(74,475,o),
(105,422,o),
(200,324,cs),
(513,0,l)
);
},
{
closed = 1;
nodes = (
(424,-16,o),
(551,124,o),
(576,342,c),
(466,342,l),
(453,178,o),
(373,74,o),
(261,74,cs),
(183,74,o),
(127,125,o),
(127,196,cs),
(127,265,o),
(179,318,o),
(262,334,c),
(192,404,l),
(82,369,o),
(17,290,o),
(17,192,cs),
(17,72,o),
(116,-16,o),
(252,-16,cs)
);
}
);
width = 660;
},
{
layerId = m003;
shapes = (
{
closed = 1;
nodes = (
(609,0,l),
(305,376,ls),
(247,449,o),
(225,490,o),
(225,531,cs),
(225,587,o),
(267,626,o),
(325,626,cs),
(375,626,o),
(409,597,o),
(409,553,cs),
(409,496,o),
(349,446,o),
(236,409,c),
(289,339,l),
(457,405,o),
(521,465,o),
(521,558,cs),
(521,656,o),
(449,716,o),
(330,716,cs),
(201,716,o),
(115,646,o),
(115,543,cs),
(115,478,o),
(150,399,o),
(212,324,cs),
(479,0,l)
);
},
{
closed = 1;
nodes = (
(416,-16,o),
(543,115,o),
(591,342,c),
(481,342,l),
(443,167,o),
(364,74,o),
(253,74,cs),
(175,74,o),
(120,120,o),
(120,185,cs),
(120,256,o),
(184,317,o),
(276,334,c),
(216,404,l),
(81,364,o),
(9,289,o),
(9,187,cs),
(9,68,o),
(107,-16,o),
(244,-16,cs)
);
}
);
width = 660;
}
);
metricLeft = "=|";
metricWidth = A;
unicode = 38;
},
{
glyphname = paragraph;
layers = (
{
layerId = m002;
shapes = (
{
closed = 1;
nodes = (
(392,-140,l),
(392,700,l),
(302,700,l),
(302,-140,l)
);
},
{
closed = 1;
nodes = (
(582,-140,l),
(582,700,l),
(492,700,l),
(492,-140,l)
);
},
{
closed = 1;
nodes = (
(302,700,l),
(172,700,o),
(78,610,o),
(78,487,cs),
(78,363,o),
(173,273,o),
(302,273,c)
);
}
);
width = 660;
},
{
layerId = m003;
shapes = (
{
closed = 1;
nodes = (
(337,-140,l),
(455,700,l),
(365,700,l),
(247,-140,l)
);
},
{
closed = 1;
nodes = (
(527,-140,l),
(645,700,l),
(555,700,l),
(437,-140,l)
);
},
{
closed = 1;
nodes = (
(365,700,l),
(235,700,o),
(129,610,o),
(111,487,cs),
(94,363,o),
(176,273,o),
(305,273,c)
);
}
);
width = 660;
}
);
metricLeft = "=|";
metricWidth = A;
unicode = 182;
},
{
glyphname = section;
layers = (
{
layerId = m002;
shapes = (
{
closed = 1;
nodes = (
(460,164,o),
(540,214,o),
(540,298,cs),
(540,362,o),
(494,410,o),
(393,451,cs),
(303,486,ls),
(244,509,o),
(220,533,o),
(220,567,cs),
(220,610,o),
(260,640,o),
(316,640,cs),
(377,640,o),
(422,604,o),
(431,546,c),
(531,546,l),
(527,646,o),
(440,716,o),
(318,716,cs),
(200,716,o),
(120,653,o),
(120,560,cs),
(120,488,o),
(169,428,o),
(252,398,cs),
(347,364,ls),
(415,339,o),
(440,318,o),
(440,285,cs),
(440,244,o),
(403,224,o),
(327,224,c),
(327,164,l)
);
},
{
closed = 1;
nodes = (
(459,-110,o),
(540,-46,o),
(540,46,cs),
(540,118,o),
(491,178,o),
(408,208,cs),
(313,242,ls),
(245,267,o),
(220,288,o),
(220,321,cs),
(220,362,o),
(257,382,o),
(333,382,c),
(333,442,l),
(200,442,o),
(120,392,o),
(120,308,cs),
(120,244,o),
(166,196,o),
(267,155,cs),
(357,120,ls),
(416,97,o),
(440,73,o),
(440,39,cs),
(440,-4,o),
(400,-34,o),
(344,-34,cs),
(283,-34,o),
(238,2,o),
(229,60,c),
(129,60,l),
(133,-41,o),
(220,-110,o),
(342,-110,cs)
);
}
);
width = 660;
},
{
layerId = m003;
shapes = (
{
closed = 1;
nodes = (
(454,164,o),
(549,227,o),
(549,317,cs),
(549,373,o),
(511,413,o),
(422,451,cs),
(337,486,ls),
(293,504,o),
(265,535,o),
(265,567,cs),
(265,608,o),
(311,640,o),
(369,640,cs),
(432,640,o),
(474,603,o),
(474,546,c),
(574,546,l),
(574,649,o),
(497,716,o),
(379,716,cs),
(257,716,o),
(163,643,o),
(163,547,cs),
(163,482,o),
(206,424,o),
(274,398,cs),
(364,364,ls),
(427,340,o),
(447,325,o),
(447,297,cs),
(447,253,o),
(398,224,o),
(324,224,c),
(316,164,l)
);
},
{
closed = 1;
nodes = (
(423,-110,o),
(514,-35,o),
(514,66,cs),
(514,132,o),
(476,180,o),
(403,208,cs),
(313,242,ls),
(262,261,o),
(230,290,o),
(230,318,cs),
(230,354,o),
(283,382,o),
(352,382,c),
(361,442,l),
(229,442,o),
(128,381,o),
(128,300,cs),
(128,244,o),
(177,187,o),
(255,155,cs),
(340,120,ls),
(393,97,o),
(412,78,o),
(412,47,cs),
(412,0,o),
(369,-34,o),
(309,-34,cs),
(246,-34,o),
(203,4,o),
(203,60,c),
(103,60,l),
(103,-41,o),
(182,-110,o),
(300,-110,cs)
);
}
);
width = 660;
}
);
metricLeft = "=|";
metricWidth = A;
unicode = 167;
},
{
glyphname = copyright;
layers = (
{
layerId = m002;
shapes = (
{
closed = 1;
nodes = (
(410,135,o),
(456,193,o),
(456,287,c),
(365,287,l),
(365,227,o),
(358,210,o),
(335,210,cs),
(301,210,o),
(288,250,o),
(288,351,cs),
(288,451,o),
(301,490,o),
(334,490,cs),
(357,490,o),
(364,472,o),
(364,413,c),
(456,413,l),
(456,508,o),
(410,565,o),
(334,565,cs),
(246,565,o),
(198,490,o),
(198,354,cs),
(198,215,o),
(248,135,o),
(335,135,cs)
);
},
{
ref = whiteCircle;
}
);
width = 660;
},
{
layerId = m003;
shapes = (
{
closed = 1;
nodes = (
(402,135,o),
(448,188,o),
(462,287,c),
(371,287,l),
(363,229,o),
(352,210,o),
(328,210,cs),
(301,210,o),
(297,232,o),
(297,305,cs),
(297,426,o),
(315,490,o),
(356,490,cs),
(376,490,o),
(383,473,o),
(385,413,c),
(477,413,l),
(472,512,o),
(431,565,o),
(360,565,cs),
(265,565,o),
(206,470,o),
(206,327,cs),
(206,204,o),
(248,135,o),
(330,135,cs)
);
},
{
ref = whiteCircle;
}
);
width = 660;
}
);
metricLeft = "=|";
metricWidth = A;
unicode = 169;
},
{
glyphname = registered;
layers = (
{
layerId = m002;
shapes = (
{
closed = 1;
nodes = (
(507,184,o),
(616,285,o),
(616,450,cs),
(616,615,o),
(507,716,o),
(330,716,cs),
(153,716,o),
(44,615,o),
(44,450,cs),
(44,285,o),
(153,184,o),
(330,184,cs)
);
},
{
closed = 1;
nodes = (
(290,330,l),
(290,570,l),
(230,570,l),
(230,330,l)
);
},
{
closed = 1;
nodes = (
(186,244,o),
(104,318,o),
(104,450,cs),
(104,582,o),
(186,656,o),
(330,656,cs),
(474,656,o),
(556,582,o),
(556,450,cs),
(556,318,o),
(474,244,o),
(330,244,cs)
);
},
{
closed = 1;
nodes = (
(337,406,ls),
(409,406,o),
(452,437,o),
(452,490,cs),
(452,541,o),
(411,570,o),
(337,570,cs),
(282,570,l),
(282,522,l),
(347,522,ls),
(377,522,o),
(392,511,o),
(392,490,cs),
(392,467,o),
(375,454,o),
(347,454,cs),
(282,454,l),
(282,406,l)
);
},
{
closed = 1;
nodes = (
(373,330,l),
(441,330,l),
(371,435,l),
(303,435,l)
);
}
);
width = 660;
},
{
layerId = m003;
shapes = (
{
closed = 1;
nodes = (
(525,184,o),
(648,298,o),
(648,462,cs),
(648,617,o),
(539,716,o),
(369,716,cs),
(190,716,o),
(70,606,o),
(70,443,cs),
(70,286,o),
(180,184,o),
(348,184,cs)
);
},
{
closed = 1;
nodes = (
(302,330,l),
(336,570,l),
(276,570,l),
(242,330,l)
);
},
{
closed = 1;
nodes = (
(216,244,o),
(130,322,o),
(130,446,cs),
(130,575,o),
(221,656,o),
(364,656,cs),
(503,656,o),
(588,580,o),
(588,458,cs),
(588,330,o),
(494,244,o),
(352,244,cs)
);
},
{
closed = 1;
nodes = (
(360,406,ls),
(430,406,o),
(488,432,o),
(488,493,cs),
(488,547,o),
(441,570,o),
(383,570,cs),
(328,570,l),
(321,522,l),
(386,522,ls),
(408,522,o),
(427,515,o),
(427,493,cs),
(427,469,o),
(405,454,o),
(377,454,cs),
(312,454,l),
(305,406,l)
);
},
{
closed = 1;
nodes = (
(385,330,l),
(453,330,l),
(398,435,l),
(330,435,l)
);
}
);
width = 660;
}
);
metricLeft = "=|";
metricWidth = A;
unicode = 174;
},
{
glyphname = published;
layers = (
{
layerId = m002;
shapes = (
{
closed = 1;
nodes = (
(507,184,o),
(616,285,o),
(616,450,cs),
(616,615,o),
(507,716,o),
(330,716,cs),
(153,716,o),
(44,615,o),
(44,450,cs),
(44,285,o),
(153,184,o),
(330,184,cs)
);
},
{
closed = 1;
nodes = (
(296,330,l),
(296,570,l),
(236,570,l),
(236,330,l)
);
},
{
closed = 1;
nodes = (
(186,244,o),
(104,318,o),
(104,450,cs),
(104,582,o),
(186,656,o),
(330,656,cs),
(474,656,o),
(556,582,o),
(556,450,cs),
(556,318,o),
(474,244,o),
(330,244,cs)
);
},
{
closed = 1;
nodes = (
(343,406,ls),
(415,406,o),
(458,437,o),
(458,490,cs),
(458,541,o),
(417,570,o),
(343,570,cs),
(288,570,l),
(288,522,l),
(353,522,ls),
(383,522,o),
(398,511,o),
(398,490,cs),
(398,467,o),
(381,454,o),
(353,454,cs),
(288,454,l),
(288,406,l)
);
}
);
width = 660;
},
{
layerId = m003;
shapes = (
{
closed = 1;
nodes = (
(525,184,o),
(648,298,o),
(648,462,cs),
(648,617,o),
(539,716,o),
(369,716,cs),
(190,716,o),
(70,606,o),
(70,443,cs),
(70,286,o),
(180,184,o),
(348,184,cs)
);
},
{
closed = 1;
nodes = (
(302,330,l),
(336,570,l),
(276,570,l),
(242,330,l)
);
},
{
closed = 1;
nodes = (
(216,244,o),
(130,322,o),
(130,446,cs),
(130,575,o),
(221,656,o),
(364,656,cs),
(503,656,o),
(588,580,o),
(588,458,cs),
(588,330,o),
(494,244,o),
(352,244,cs)
);
},
{
closed = 1;
nodes = (
(360,406,ls),
(430,406,o),
(488,432,o),
(488,493,cs),
(488,547,o),
(441,570,o),
(383,570,cs),
(328,570,l),
(321,522,l),
(386,522,ls),
(408,522,o),
(427,515,o),
(427,493,cs),
(427,469,o),
(405,454,o),
(377,454,cs),
(312,454,l),
(305,406,l)
);
}
);
width = 660;
}
);
metricLeft = "=|";
metricWidth = A;
unicode = 8471;
},
{
glyphname = trademark;
layers = (
{
layerId = m002;
shapes = (
{
closed = 1;
nodes = (
(170,360,l),
(170,639,l),
(265,639,l),
(265,700,l),
(5,700,l),
(5,639,l),
(100,639,l),
(100,360,l)
);
},
{
closed = 1;
nodes = (
(386,360,l),
(386,626,l),
(354,626,l),
(454,360,l),
(516,360,l),
(616,626,l),
(585,626,l),
(585,360,l),
(655,360,l),
(655,700,l),
(576,700,l),
(464,399,l),
(506,399,l),
(394,700,l),
(315,700,l),
(315,360,l)
);
}
);
width = 660;
},
{
layerId = m003;
shapes = (
{
closed = 1;
nodes = (
(185,360,l),
(225,639,l),
(320,639,l),
(328,700,l),
(68,700,l),
(60,639,l),
(155,639,l),
(115,360,l)
);
},
{
closed = 1;
nodes = (
(401,360,l),
(439,626,l),
(407,626,l),
(469,360,l),
(531,360,l),
(669,626,l),
(638,626,l),
(600,360,l),
(670,360,l),
(718,700,l),
(639,700,l),
(485,399,l),
(527,399,l),
(457,700,l),
(378,700,l),
(330,360,l)
);
}
);
width = 660;
}
);
metricLeft = "=|";
metricWidth = A;
unicode = 8482;
},
{
glyphname = degree;
layers = (
{
layerId = m002;
shapes = (
{
closed = 1;
nodes = (
(423,396,o),
(490,463,o),
(490,556,cs),
(490,649,o),
(423,716,o),
(330,716,cs),
(237,716,o),
(170,649,o),
(170,556,cs),
(170,463,o),
(237,396,o),
(330,396,cs)
);
},
{
closed = 1;
nodes = (
(287,481,o),
(255,513,o),
(255,556,cs),
(255,599,o),
(287,631,o),
(330,631,cs),
(373,631,o),
(405,599,o),
(405,556,cs),
(405,513,o),
(373,481,o),
(330,481,cs)
);
}
);
width = 660;
},
{
layerId = m003;
shapes = (
{
closed = 1;
nodes = (
(463,396,o),
(533,467,o),
(533,565,cs),
(533,656,o),
(473,716,o),
(382,716,cs),
(283,716,o),
(213,646,o),
(213,548,cs),
(213,457,o),
(273,396,o),
(364,396,cs)
);
},
{
closed = 1;
nodes = (
(324,481,o),
(298,507,o),
(298,548,cs),
(298,596,o),
(333,631,o),
(381,631,cs),
(422,631,o),
(448,605,o),
(448,564,cs),
(448,517,o),
(413,481,o),
(365,481,cs)
);
}
);
width = 660;
}
);
metricLeft = "=|";
metricWidth = A;
unicode = 176;
},
{
glyphname = bar;
layers = (
{
layerId = m002;
shapes = (
{
closed = 1;
nodes = (
(380,-200,l),
(380,700,l),
(280,700,l),
(280,-200,l)
);
}
);
width = 660;
},
{
layerId = m003;
shapes = (
{
closed = 1;
nodes = (
(317,-200,l),
(443,700,l),
(343,700,l),
(217,-200,l)
);
}
);
width = 660;
}
);
metricLeft = "=|";
metricWidth = A;
unicode = 124;
},
{
glyphname = brokenbar;
layers = (
{
layerId = m002;
shapes = (
{
closed = 1;
nodes = (
(380,330,l),
(380,700,l),
(280,700,l),
(280,330,l)
);
},
{
closed = 1;
nodes = (
(380,-200,l),
(380,170,l),
(280,170,l),
(280,-200,l)
);
}
);
width = 660;
},
{
layerId = m003;
shapes = (
{
closed = 1;
nodes = (
(391,330,l),
(443,700,l),
(343,700,l),
(291,330,l)
);
},
{
closed = 1;
nodes = (
(317,-200,l),
(369,170,l),
(269,170,l),
(217,-200,l)
);
}
);
width = 660;
}
);
metricLeft = "=|";
metricWidth = A;
unicode = 166;
},
{
glyphname = dagger;
layers = (
{
layerId = m002;
shapes = (
{
closed = 1;
nodes = (
(370,220,l),
(370,700,l),
(290,700,l),
(290,220,l)
);
},
{
closed = 1;
nodes = (
(480,510,l),
(480,580,l),
(180,580,l),
(180,510,l)
);
}
);
width = 660;
},
{
layerId = m003;
shapes = (
{
closed = 1;
nodes = (
(367,220,l),
(434,700,l),
(354,700,l),
(287,220,l)
);
},
{
closed = 1;
nodes = (
(517,510,l),
(527,580,l),
(227,580,l),
(217,510,l)
);
}
);
width = 660;
}
);
metricLeft = "=|";
metricWidth = A;
unicode = 8224;
},
{
glyphname = daggerdbl;
layers = (
{
layerId = m002;
shapes = (
{
closed = 1;
nodes = (
(370,220,l),
(370,700,l),
(290,700,l),
(290,220,l)
);
},
{
closed = 1;
nodes = (
(480,340,l),
(480,410,l),
(180,410,l),
(180,340,l)
);
},
{
closed = 1;
nodes = (
(480,510,l),
(480,580,l),
(180,580,l),
(180,510,l)
);
}
);
width = 660;
},
{
layerId = m003;
shapes = (
{
closed = 1;
nodes = (
(367,220,l),
(434,700,l),
(354,700,l),
(287,220,l)
);
},
{
closed = 1;
nodes = (
(494,340,l),
(503,410,l),
(203,410,l),
(194,340,l)
);
},
{
closed = 1;
nodes = (
(517,510,l),
(527,580,l),
(227,580,l),
(217,510,l)
);
}
);
width = 660;
}
);
metricLeft = "=|";
metricWidth = A;
unicode = 8225;
},
{
glyphname = numero;
layers = (
{
anchors = (
{
name = bottom;
pos = (275,0);
},
{
name = top;
pos = (275,700);
}
);
layerId = m002;
shapes = (
{
closed = 1;
nodes = (
(291,0,l),
(100,700,l),
(35,700,l),
(226,0,l)
);
},
{
closed = 1;
nodes = (
(100,0,l),
(100,700,l),
(5,700,l),
(5,0,l)
);
},
{
closed = 1;
nodes = (
(321,0,l),
(321,700,l),
(226,700,l),
(226,0,l)
);
},
{
closed = 1;
nodes = (
(614,324,o),
(655,413,o),
(655,520,cs),
(655,627,o),
(614,716,o),
(518,716,cs),
(422,716,o),
(381,627,o),
(381,520,cs),
(381,413,o),
(422,324,o),
(518,324,cs)
);
},
{
closed = 1;
nodes = (
(468,404,o),
(476,462,o),
(476,520,cs),
(476,578,o),
(468,636,o),
(518,636,cs),
(568,636,o),
(560,578,o),
(560,520,cs),
(560,462,o),
(568,404,o),
(518,404,cs)
);
},
{
closed = 1;
nodes = (
(593,170,l),
(593,250,l),
(443,250,l),
(443,170,l)
);
}
);
width = 660;
},
{
anchors = (
{
name = bottom;
pos = (239,0);
},
{
name = top;
pos = (337,700);
}
);
layerId = m003;
shapes = (
{
closed = 1;
nodes = (
(255,0,l),
(162,700,l),
(97,700,l),
(190,0,l)
);
},
{
closed = 1;
nodes = (
(64,0,l),
(162,700,l),
(67,700,l),
(-31,0,l)
);
},
{
closed = 1;
nodes = (
(285,0,l),
(383,700,l),
(288,700,l),
(190,0,l)
);
},
{
closed = 1;
nodes = (
(624,324,o),
(695,423,o),
(695,552,cs),
(695,654,o),
(650,716,o),
(577,716,cs),
(485,716,o),
(413,615,o),
(413,487,cs),
(413,386,o),
(458,324,o),
(532,324,cs)
);
},
{
closed = 1;
nodes = (
(515,404,o),
(503,429,o),
(503,478,cs),
(503,565,o),
(534,636,o),
(571,636,cs),
(594,636,o),
(605,612,o),
(605,562,cs),
(605,476,o),
(574,404,o),
(537,404,cs)
);
},
{
closed = 1;
nodes = (
(580,170,l),
(591,250,l),
(441,250,l),
(430,170,l)
);
}
);
width = 660;
}
);
metricLeft = "=|";
metricWidth = A;
unicode = 8470;
},
{
glyphname = bitcoin;
layers = (
{
layerId = m002;
shapes = (
{
closed = 1;
nodes = (
(381,0,ls),
(504,0,o),
(594,77,o),
(594,182,cs),
(594,296,o),
(490,373,o),
(335,373,c),
(335,333,l),
(471,333,o),
(565,407,o),
(565,514,cs),
(565,623,o),
(468,700,o),
(331,700,cs),
(112,700,l),
(112,610,l),
(341,610,ls),
(407,610,o),
(455,565,o),
(455,503,cs),
(455,441,o),
(407,396,o),
(341,396,cs),
(112,396,l),
(112,306,l),
(341,306,ls),
(426,306,o),
(484,263,o),
(484,199,cs),
(484,135,o),
(425,90,o),
(341,90,cs),
(112,90,l),
(112,0,l)
);
},
{
closed = 1;
nodes = (
(253,-100,l),
(253,71,l),
(193,71,l),
(193,-100,l)
);
},
{
closed = 1;
nodes = (
(383,-100,l),
(383,71,l),
(323,71,l),
(323,-100,l)
);
},
{
closed = 1;
nodes = (
(176,0,l),
(176,700,l),
(66,700,l),
(66,0,l)
);
},
{
closed = 1;
nodes = (
(253,647,l),
(253,800,l),
(193,800,l),
(193,647,l)
);
},
{
closed = 1;
nodes = (
(383,647,l),
(383,800,l),
(323,800,l),
(323,647,l)
);
}
);
width = 660;
},
{
layerId = m003;
shapes = (
{
closed = 1;
nodes = (
(345,0,ls),
(487,0,o),
(586,83,o),
(586,201,cs),
(586,311,o),
(501,373,o),
(351,373,c),
(346,333,l),
(505,333,o),
(603,405,o),
(603,521,cs),
(603,629,o),
(519,700,o),
(393,700,cs),
(174,700,l),
(162,610,l),
(391,610,ls),
(453,610,o),
(491,574,o),
(491,516,cs),
(491,446,o),
(436,396,o),
(360,396,cs),
(131,396,l),
(119,306,l),
(348,306,ls),
(428,306,o),
(477,269,o),
(477,207,cs),
(477,136,o),
(414,90,o),
(317,90,cs),
(88,90,l),
(76,0,l)
);
},
{
closed = 1;
nodes = (
(203,-100,l),
(227,71,l),
(167,71,l),
(143,-100,l)
);
},
{
closed = 1;
nodes = (
(333,-100,l),
(357,71,l),
(297,71,l),
(273,-100,l)
);
},
{
closed = 1;
nodes = (
(140,0,l),
(238,700,l),
(128,700,l),
(30,0,l)
);
},
{
closed = 1;
nodes = (
(308,647,l),
(329,800,l),
(269,800,l),
(248,647,l)
);
},
{
closed = 1;
nodes = (
(438,647,l),
(459,800,l),
(399,800,l),
(378,647,l)
);
}
);
width = 660;
}
);
metricLeft = "=|";
metricWidth = A;
unicode = 8383;
},
{
glyphname = cent;
layers = (
{
layerId = m002;
shapes = (
{
closed = 1;
nodes = (
(452,84,o),
(539,160,o),
(553,270,c),
(452,270,l),
(444,207,o),
(397,164,o),
(336,164,cs),
(257,164,o),
(207,237,o),
(207,351,cs),
(207,464,o),
(256,536,o),
(334,536,cs),
(394,536,o),
(441,494,o),
(451,430,c),
(553,430,l),
(539,540,o),
(451,616,o),
(338,616,cs),
(203,616,o),
(107,506,o),
(107,350,cs),
(107,194,o),
(202,84,o),
(338,84,cs)
);
},
{
closed = 1;
nodes = (
(365,0,l),
(365,700,l),
(305,700,l),
(305,0,l)
);
}
);
width = 660;
},
{
layerId = m003;
shapes = (
{
closed = 1;
nodes = (
(441,84,o),
(527,153,o),
(558,270,c),
(457,270,l),
(439,204,o),
(392,164,o),
(332,164,cs),
(261,164,o),
(220,222,o),
(220,322,cs),
(220,448,o),
(286,536,o),
(380,536,cs),
(437,536,o),
(467,503,o),
(478,430,c),
(580,430,l),
(571,545,o),
(495,616,o),
(380,616,cs),
(228,616,o),
(119,491,o),
(119,317,cs),
(119,171,o),
(197,84,o),
(326,84,cs)
);
},
{
closed = 1;
nodes = (
(332,0,l),
(430,700,l),
(370,700,l),
(272,0,l)
);
}
);
width = 660;
}
);
metricLeft = "=|";
metricWidth = A;
unicode = 162;
},
{
glyphname = currency;
layers = (
{
layerId = m002;
shapes = (
{
closed = 1;
nodes = (
(456,109,o),
(548,201,o),
(548,327,cs),
(549,454,o),
(456,547,o),
(328,546,cs),
(203,545,o),
(111,454,o),
(110,328,cs),
(109,202,o),
(202,109,o),
(329,109,cs)
);
},
{
closed = 1;
nodes = (
(240,172,l),
(174,238,l),
(73,139,l),
(139,71,l)
);
},
{
closed = 1;
nodes = (
(261,207,o),
(210,258,o),
(210,327,cs),
(210,396,o),
(261,447,o),
(330,447,cs),
(399,447,o),
(450,396,o),
(450,327,cs),
(450,258,o),
(399,207,o),
(330,207,cs)
);
},
{
closed = 1;
nodes = (
(587,139,l),
(487,238,l),
(420,172,l),
(521,71,l)
);
},
{
closed = 1;
nodes = (
(240,485,l),
(139,586,l),
(73,518,l),
(174,418,l)
);
},
{
closed = 1;
nodes = (
(587,518,l),
(521,586,l),
(420,485,l),
(487,418,l)
);
}
);
width = 660;
},
{
layerId = m003;
shapes = (
{
closed = 1;
nodes = (
(460,109,o),
(557,204,o),
(557,337,cs),
(557,463,o),
(471,547,o),
(344,546,cs),
(209,545,o),
(113,450,o),
(113,317,cs),
(113,192,o),
(198,109,o),
(325,109,cs)
);
},
{
closed = 1;
nodes = (
(234,172,l),
(177,238,l),
(62,139,l),
(119,71,l)
);
},
{
closed = 1;
nodes = (
(260,207,o),
(215,251,o),
(215,319,cs),
(215,393,o),
(269,447,o),
(344,447,cs),
(412,447,o),
(457,403,o),
(457,335,cs),
(457,261,o),
(403,207,o),
(328,207,cs)
);
},
{
closed = 1;
nodes = (
(586,139,l),
(500,238,l),
(424,172,l),
(511,71,l)
);
},
{
closed = 1;
nodes = (
(258,485,l),
(171,586,l),
(96,518,l),
(183,418,l)
);
},
{
closed = 1;
nodes = (
(600,518,l),
(543,586,l),
(428,485,l),
(486,418,l)
);
}
);
width = 660;
}
);
metricLeft = "=|";
metricWidth = A;
unicode = 164;
},
{
glyphname = dollar;
layers = (
{
layerId = m002;
shapes = (
{
closed = 1;
nodes = (
(488,-16,o),
(593,74,o),
(592,201,cs),
(591,304,o),
(522,385,o),
(419,403,cs),
(288,426,ls),
(240,434,o),
(208,471,o),
(208,517,cs),
(208,574,o),
(260,616,o),
(332,616,cs),
(402,616,o),
(452,577,o),
(458,517,c),
(568,517,l),
(556,630,o),
(460,706,o),
(329,706,cs),
(193,706,o),
(98,625,o),
(98,511,cs),
(98,418,o),
(161,347,o),
(256,331,cs),
(375,311,ls),
(439,301,o),
(481,255,o),
(482,195,cs),
(483,124,o),
(425,74,o),
(342,74,cs),
(258,74,o),
(194,126,o),
(178,208,c),
(68,208,l),
(80,75,o),
(190,-16,o),
(339,-16,cs)
);
},
{
closed = 1;
nodes = (
(359,-111,l),
(359,800,l),
(302,800,l),
(302,-111,l)
);
}
);
width = 660;
},
{
layerId = m003;
shapes = (
{
closed = 1;
nodes = (
(482,-16,o),
(585,71,o),
(585,204,cs),
(585,311,o),
(519,388,o),
(410,408,cs),
(311,426,ls),
(268,434,o),
(242,466,o),
(242,512,cs),
(242,575,o),
(290,616,o),
(364,616,cs),
(435,616,o),
(484,579,o),
(493,517,c),
(603,517,l),
(593,633,o),
(502,706,o),
(367,706,cs),
(225,706,o),
(131,625,o),
(131,503,cs),
(131,410,o),
(185,345,o),
(276,329,cs),
(350,316,ls),
(428,302,o),
(473,257,o),
(473,193,cs),
(473,121,o),
(416,74,o),
(329,74,cs),
(238,74,o),
(177,126,o),
(170,208,c),
(60,208,l),
(63,72,o),
(166,-16,o),
(324,-16,cs)
);
},
{
closed = 1;
nodes = (
(306,-111,l),
(434,800,l),
(377,800,l),
(249,-111,l)
);
}
);
width = 660;
}
);
metricLeft = "=|";
metricWidth = A;
unicode = 36;
},
{
glyphname = euro;
layers = (
{
layerId = m002;
shapes = (
{
closed = 1;
nodes = (
(509,-16,o),
(612,75,o),
(630,209,c),
(519,209,l),
(505,127,o),
(447,74,o),
(372,74,cs),
(267,74,o),
(204,178,o),
(204,351,cs),
(204,523,o),
(267,626,o),
(372,626,cs),
(447,626,o),
(505,574,o),
(519,492,c),
(630,492,l),
(613,625,o),
(510,716,o),
(378,716,cs),
(209,716,o),
(94,567,o),
(94,349,cs),
(94,132,o),
(208,-16,o),
(377,-16,cs)
);
},
{
closed = 1;
nodes = (
(405,250,l),
(405,320,l),
(30,320,l),
(30,250,l)
);
},
{
closed = 1;
nodes = (
(405,380,l),
(405,450,l),
(30,450,l),
(30,380,l)
);
}
);
width = 660;
},
{
layerId = m003;
shapes = (
{
closed = 1;
nodes = (
(473,-16,o),
(588,76,o),
(624,209,c),
(513,209,l),
(489,130,o),
(421,74,o),
(347,74,cs),
(260,74,o),
(212,151,o),
(212,290,cs),
(212,482,o),
(303,626,o),
(424,626,cs),
(496,626,o),
(546,574,o),
(553,492,c),
(664,492,l),
(656,627,o),
(564,716,o),
(431,716,cs),
(243,716,o),
(102,537,o),
(102,297,cs),
(102,104,o),
(194,-16,o),
(343,-16,cs)
);
},
{
closed = 1;
nodes = (
(405,250,l),
(415,320,l),
(40,320,l),
(30,250,l)
);
},
{
closed = 1;
nodes = (
(423,380,l),
(433,450,l),
(58,450,l),
(48,380,l)
);
}
);
width = 660;
}
);
metricLeft = "=|";
metricWidth = A;
unicode = 8364;
},
{
glyphname = liraTurkish;
layers = (
{
layerId = m002;
shapes = (
{
closed = 1;
nodes = (
(307,0,ls),
(503,0,o),
(610,160,o),
(610,369,c),
(500,369,l),
(500,349,ls),
(500,204,o),
(431,90,o),
(297,90,cs),
(217,90,l),
(217,0,l)
);
},
{
closed = 1;
nodes = (
(385,328,l),
(385,398,l),
(50,308,l),
(50,238,l)
);
},
{
closed = 1;
nodes = (
(250,0,l),
(250,700,l),
(140,700,l),
(140,0,l)
);
},
{
closed = 1;
nodes = (
(385,460,l),
(385,530,l),
(50,440,l),
(50,370,l)
);
}
);
width = 660;
},
{
layerId = m003;
shapes = (
{
closed = 1;
nodes = (
(272,0,ls),
(462,0,o),
(593,136,o),
(627,369,c),
(517,369,l),
(514,349,ls),
(491,185,o),
(403,90,o),
(274,90,cs),
(194,90,l),
(182,0,l)
);
},
{
closed = 1;
nodes = (
(396,330,l),
(406,400,l),
(58,310,l),
(49,240,l)
);
},
{
closed = 1;
nodes = (
(215,0,l),
(313,700,l),
(203,700,l),
(105,0,l)
);
},
{
closed = 1;
nodes = (
(414,460,l),
(424,530,l),
(77,440,l),
(67,370,l)
);
}
);
width = 660;
}
);
metricLeft = "=|";
metricWidth = A;
unicode = 8378;
},
{
glyphname = sterling;
layers = (
{
layerId = m002;
shapes = (
{
closed = 1;
nodes = (
(248,130,o),
(282,204,o),
(282,284,cs),
(282,369,o),
(243,430,o),
(243,499,cs),
(243,574,o),
(289,626,o),
(356,626,cs),
(419,626,o),
(466,580,o),
(466,516,c),
(576,516,l),
(576,636,o),
(479,716,o),
(354,716,cs),
(231,716,o),
(133,638,o),
(133,516,cs),
(133,439,o),
(172,375,o),
(172,288,cs),
(172,219,o),
(147,154,o),
(93,100,c),
(93,0,l),
(556,0,l),
(556,90,l),
(158,90,l),
(182,67,l)
);
},
{
closed = 1;
nodes = (
(439,280,l),
(439,350,l),
(84,350,l),
(84,280,l)
);
}
);
width = 660;
},
{
layerId = m003;
shapes = (
{
closed = 1;
nodes = (
(259,148,o),
(294,210,o),
(294,298,cs),
(294,363,o),
(275,421,o),
(275,480,cs),
(275,574,o),
(322,626,o),
(391,626,cs),
(456,626,o),
(489,579,o),
(500,516,c),
(610,516,l),
(597,637,o),
(516,716,o),
(388,716,cs),
(265,716,o),
(167,642,o),
(167,494,cs),
(167,433,o),
(184,371,o),
(184,311,cs),
(184,205,o),
(133,155,o),
(75,100,c),
(61,0,l),
(518,0,l),
(530,90,l),
(132,90,l),
(163,67,l)
);
},
{
closed = 1;
nodes = (
(446,280,l),
(456,350,l),
(101,350,l),
(91,280,l)
);
}
);
width = 660;
}
);
metricLeft = "=|";
metricWidth = A;
unicode = 163;
},
{
glyphname = won;
layers = (
{
layerId = m002;
shapes = (
{
closed = 1;
nodes = (
(145,200,l),
(145,270,l),
(20,270,l),
(20,200,l)
);
},
{
closed = 1;
nodes = (
(125,400,l),
(125,470,l),
(20,470,l),
(20,400,l)
);
},
{
closed = 1;
nodes = (
(140,0,l),
(246,0,l),
(367,365,l),
(295,365,l),
(414,0,l),
(520,0,l),
(560,700,l),
(464,700,l),
(431,99,l),
(446,108,l),
(363,430,l),
(298,430,l),
(214,108,l),
(229,99,l),
(196,700,l),
(100,700,l)
);
},
{
closed = 1;
nodes = (
(640,200,l),
(640,270,l),
(515,270,l),
(515,200,l)
);
},
{
closed = 1;
nodes = (
(640,400,l),
(640,470,l),
(535,470,l),
(535,400,l)
);
}
);
width = 660;
},
{
layerId = m003;
shapes = (
{
closed = 1;
nodes = (
(138,200,l),
(148,270,l),
(23,270,l),
(13,200,l)
);
},
{
closed = 1;
nodes = (
(146,400,l),
(156,470,l),
(51,470,l),
(41,400,l)
);
},
{
closed = 1;
nodes = (
(105,0,l),
(211,0,l),
(383,365,l),
(311,365,l),
(379,0,l),
(485,0,l),
(623,700,l),
(527,700,l),
(410,99,l),
(426,108,l),
(388,430,l),
(323,430,l),
(194,108,l),
(208,99,l),
(259,700,l),
(163,700,l)
);
},
{
closed = 1;
nodes = (
(633,200,l),
(643,270,l),
(518,270,l),
(508,200,l)
);
},
{
closed = 1;
nodes = (
(661,400,l),
(671,470,l),
(566,470,l),
(556,400,l)
);
}
);
width = 660;
}
);
metricLeft = "=|";
metricWidth = A;
unicode = 8361;
},
{
glyphname = yen;
layers = (
{
layerId = m002;
shapes = (
{
closed = 1;
nodes = (
(385,0,l),
(385,240,l),
(625,680,l),
(515,680,l),
(307,294,l),
(353,294,l),
(145,680,l),
(35,680,l),
(275,240,l),
(275,0,l)
);
},
{
closed = 1;
nodes = (
(588,160,l),
(588,230,l),
(72,230,l),
(72,160,l)
);
},
{
closed = 1;
nodes = (
(271,320,l),
(271,390,l),
(72,390,l),
(72,320,l)
);
},
{
closed = 1;
nodes = (
(588,320,l),
(588,390,l),
(389,390,l),
(389,320,l)
);
}
);
width = 660;
},
{
layerId = m003;
shapes = (
{
closed = 1;
nodes = (
(350,0,l),
(384,240,l),
(685,680,l),
(575,680,l),
(313,294,l),
(359,294,l),
(205,680,l),
(95,680,l),
(274,240,l),
(240,0,l)
);
},
{
closed = 1;
nodes = (
(575,160,l),
(585,230,l),
(69,230,l),
(59,160,l)
);
},
{
closed = 1;
nodes = (
(281,320,l),
(291,390,l),
(92,390,l),
(82,320,l)
);
},
{
closed = 1;
nodes = (
(598,320,l),
(608,390,l),
(409,390,l),
(399,320,l)
);
}
);
width = 660;
}
);
metricLeft = "=|";
metricWidth = A;
unicode = 165;
},
{
glyphname = plus;
layers = (
{
layerId = m002;
shapes = (
{
closed = 1;
nodes = (
(375,70,l),
(375,530,l),
(285,530,l),
(285,70,l)
);
},
{
closed = 1;
nodes = (
(560,255,l),
(560,345,l),
(100,345,l),
(100,255,l)
);
}
);
width = 660;
},
{
layerId = m003;
shapes = (
{
closed = 1;
nodes = (
(351,70,l),
(415,530,l),
(323,530,l),
(259,70,l)
);
},
{
closed = 1;
nodes = (
(561,255,l),
(573,345,l),
(113,345,l),
(101,255,l)
);
}
);
width = 660;
}
);
metricLeft = "=|";
metricWidth = A;
unicode = 43;
},
{
glyphname = minus;
layers = (
{
layerId = m002;
shapes = (
{
closed = 1;
nodes = (
(560,255,l),
(560,345,l),
(100,345,l),
(100,255,l)
);
}
);
width = 660;
},
{
layerId = m003;
shapes = (
{
closed = 1;
nodes = (
(561,255,l),
(573,345,l),
(113,345,l),
(101,255,l)
);
}
);
width = 660;
}
);
metricLeft = "=|";
metricWidth = A;
unicode = 8722;
},
{
glyphname = multiply;
layers = (
{
layerId = m002;
shapes = (
{
closed = 1;
nodes = (
(538,154,l),
(185,508,l),
(122,444,l),
(474,91,l)
);
},
{
closed = 1;
nodes = (
(538,444,l),
(474,508,l),
(122,154,l),
(185,91,l)
);
}
);
width = 660;
},
{
layerId = m003;
shapes = (
{
closed = 1;
nodes = (
(520,154,l),
(217,508,l),
(154,444,l),
(457,91,l)
);
},
{
closed = 1;
nodes = (
(570,444,l),
(506,508,l),
(104,154,l),
(168,91,l)
);
}
);
width = 660;
}
);
metricLeft = "=|";
metricWidth = A;
unicode = 215;
},
{
glyphname = divide;
layers = (
{
layerId = m002;
shapes = (
{
closed = 1;
nodes = (
(560,255,l),
(560,345,l),
(100,345,l),
(100,255,l)
);
},
{
closed = 1;
nodes = (
(385,55,l),
(385,175,l),
(275,175,l),
(275,55,l)
);
},
{
closed = 1;
nodes = (
(385,425,l),
(385,545,l),
(275,545,l),
(275,425,l)
);
}
);
width = 660;
},
{
layerId = m003;
shapes = (
{
closed = 1;
nodes = (
(561,255,l),
(573,345,l),
(113,345,l),
(101,255,l)
);
},
{
closed = 1;
nodes = (
(358,55,l),
(374,175,l),
(264,175,l),
(248,55,l)
);
},
{
closed = 1;
nodes = (
(410,425,l),
(426,545,l),
(316,545,l),
(300,425,l)
);
}
);
width = 660;
}
);
metricLeft = "=|";
metricWidth = A;
unicode = 247;
},
{
glyphname = equal;
layers = (
{
layerId = m002;
shapes = (
{
closed = 1;
nodes = (
(560,345,l),
(560,435,l),
(100,435,l),
(100,345,l)
);
},
{
closed = 1;
nodes = (
(560,165,l),
(560,255,l),
(100,255,l),
(100,165,l)
);
}
);
width = 660;
},
{
layerId = m003;
shapes = (
{
closed = 1;
nodes = (
(573,345,l),
(586,435,l),
(126,435,l),
(113,345,l)
);
},
{
closed = 1;
nodes = (
(548,165,l),
(561,255,l),
(101,255,l),
(88,165,l)
);
}
);
width = 660;
}
);
metricLeft = "=|";
metricWidth = A;
unicode = 61;
},
{
glyphname = notequal;
layers = (
{
layerId = m002;
shapes = (
{
closed = 1;
nodes = (
(471,521,l),
(407,550,l),
(188,79,l),
(251,49,l)
);
},
{
closed = 1;
nodes = (
(560,165,l),
(560,255,l),
(100,255,l),
(100,165,l)
);
},
{
closed = 1;
nodes = (
(560,345,l),
(560,435,l),
(100,435,l),
(100,345,l)
);
}
);
width = 660;
},
{
layerId = m003;
shapes = (
{
closed = 1;
nodes = (
(509,521,l),
(449,550,l),
(164,79,l),
(223,49,l)
);
},
{
closed = 1;
nodes = (
(548,165,l),
(561,255,l),
(101,255,l),
(88,165,l)
);
},
{
closed = 1;
nodes = (
(573,345,l),
(586,435,l),
(126,435,l),
(113,345,l)
);
}
);
width = 660;
}
);
metricLeft = "=|";
metricWidth = A;
unicode = 8800;
},
{
glyphname = greater;
layers = (
{
layerId = m002;
shapes = (
{
closed = 1;
nodes = (
(560,255,l),
(560,345,l),
(100,615,l),
(100,511,l),
(480,290,l),
(480,310,l),
(100,89,l),
(100,-15,l)
);
}
);
width = 660;
},
{
layerId = m003;
shapes = (
{
closed = 1;
nodes = (
(562,255,l),
(574,345,l),
(152,615,l),
(138,517,l),
(487,296,l),
(489,316,l),
(78,95,l),
(64,-15,l)
);
}
);
width = 660;
}
);
metricLeft = "=|";
metricWidth = A;
unicode = 62;
},
{
glyphname = less;
layers = (
{
layerId = m002;
shapes = (
{
closed = 1;
nodes = (
(560,89,l),
(180,310,l),
(180,290,l),
(560,511,l),
(560,615,l),
(100,345,l),
(100,255,l),
(560,-15,l)
);
}
);
width = 660;
},
{
layerId = m003;
shapes = (
{
closed = 1;
nodes = (
(537,83,l),
(188,304,l),
(186,284,l),
(597,505,l),
(611,615,l),
(113,345,l),
(101,255,l),
(523,-15,l)
);
}
);
width = 660;
}
);
metricLeft = "=|";
metricWidth = A;
unicode = 60;
},
{
glyphname = greaterequal;
layers = (
{
layerId = m002;
shapes = (
{
closed = 1;
nodes = (
(560,0,l),
(560,90,l),
(100,90,l),
(100,0,l)
);
},
{
closed = 1;
nodes = (
(560,295,l),
(560,385,l),
(100,525,l),
(100,435,l),
(480,324,l),
(480,356,l),
(100,245,l),
(100,155,l)
);
}
);
width = 660;
},
{
layerId = m003;
shapes = (
{
closed = 1;
nodes = (
(526,0,l),
(538,90,l),
(78,90,l),
(66,0,l)
);
},
{
closed = 1;
nodes = (
(567,295,l),
(580,385,l),
(140,525,l),
(127,441,l),
(491,330,l),
(496,362,l),
(100,251,l),
(88,155,l)
);
}
);
width = 660;
}
);
metricLeft = "=|";
metricWidth = A;
unicode = 8805;
},
{
glyphname = lessequal;
layers = (
{
layerId = m002;
shapes = (
{
closed = 1;
nodes = (
(560,245,l),
(180,356,l),
(180,324,l),
(560,435,l),
(560,525,l),
(100,385,l),
(100,295,l),
(560,155,l)
);
},
{
closed = 1;
nodes = (
(560,0,l),
(560,90,l),
(100,90,l),
(100,0,l)
);
}
);
width = 660;
},
{
layerId = m003;
shapes = (
{
closed = 1;
nodes = (
(559,239,l),
(195,350,l),
(190,318,l),
(586,429,l),
(599,525,l),
(119,385,l),
(106,295,l),
(547,155,l)
);
},
{
closed = 1;
nodes = (
(525,0,l),
(537,90,l),
(77,90,l),
(65,0,l)
);
}
);
width = 660;
}
);
metricLeft = "=|";
metricWidth = A;
unicode = 8804;
},
{
glyphname = plusminus;
layers = (
{
layerId = m002;
shapes = (
{
closed = 1;
nodes = (
(560,0,l),
(560,90,l),
(100,90,l),
(100,0,l)
);
},
{
closed = 1;
nodes = (
(375,175,l),
(375,565,l),
(285,565,l),
(285,175,l)
);
},
{
closed = 1;
nodes = (
(560,325,l),
(560,415,l),
(100,415,l),
(100,325,l)
);
}
);
width = 660;
},
{
layerId = m003;
shapes = (
{
closed = 1;
nodes = (
(526,0,l),
(538,90,l),
(78,90,l),
(66,0,l)
);
},
{
closed = 1;
nodes = (
(365,175,l),
(420,565,l),
(330,565,l),
(275,175,l)
);
},
{
closed = 1;
nodes = (
(571,325,l),
(584,415,l),
(124,415,l),
(111,325,l)
);
}
);
width = 660;
}
);
metricLeft = "=|";
metricWidth = A;
unicode = 177;
},
{
glyphname = approxequal;
layers = (
{
layerId = m002;
shapes = (
{
closed = 1;
nodes = (
(186,350,o),
(216,371,o),
(253,371,cs),
(314,371,o),
(357,315,o),
(427,315,cs),
(490,315,o),
(542,360,o),
(560,428,c),
(495,459,l),
(478,427,o),
(449,408,o),
(412,408,cs),
(348,408,o),
(305,464,o),
(236,464,cs),
(169,464,o),
(120,412,o),
(100,341,c),
(165,310,l)
);
},
{
closed = 1;
nodes = (
(183,143,o),
(211,169,o),
(253,169,cs),
(314,169,o),
(357,113,o),
(427,113,cs),
(490,113,o),
(542,158,o),
(560,226,c),
(495,257,l),
(478,225,o),
(449,206,o),
(412,206,cs),
(348,206,o),
(305,262,o),
(236,262,cs),
(169,262,o),
(120,210,o),
(100,139,c),
(165,108,l)
);
}
);
width = 660;
},
{
layerId = m003;
shapes = (
{
closed = 1;
nodes = (
(202,353,o),
(231,371,o),
(269,371,cs),
(335,371,o),
(371,315,o),
(444,315,cs),
(509,315,o),
(557,359,o),
(585,428,c),
(524,459,l),
(502,426,o),
(474,408,o),
(436,408,cs),
(368,408,o),
(332,464,o),
(259,464,cs),
(190,464,o),
(143,413,o),
(113,341,c),
(173,310,l)
);
},
{
closed = 1;
nodes = (
(169,145,o),
(198,169,o),
(241,169,cs),
(307,169,o),
(343,113,o),
(416,113,cs),
(481,113,o),
(529,157,o),
(557,226,c),
(496,257,l),
(474,224,o),
(446,206,o),
(408,206,cs),
(340,206,o),
(304,262,o),
(231,262,cs),
(161,262,o),
(115,211,o),
(84,139,c),
(145,108,l)
);
}
);
width = 660;
}
);
metricLeft = "=|";
metricWidth = A;
unicode = 8776;
},
{
glyphname = asciitilde;
layers = (
{
layerId = m002;
shapes = (
{
closed = 1;
nodes = (
(189,267,o),
(211,284,o),
(244,284,cs),
(305,284,o),
(344,228,o),
(416,228,cs),
(480,228,o),
(542,272,o),
(560,341,c),
(495,372,l),
(479,340,o),
(453,321,o),
(416,321,cs),
(353,321,o),
(314,377,o),
(244,377,cs),
(176,377,o),
(120,325,o),
(100,254,c),
(165,223,l)
);
}
);
width = 660;
},
{
layerId = m003;
shapes = (
{
closed = 1;
nodes = (
(191,266,o),
(217,284,o),
(251,284,cs),
(314,284,o),
(349,228,o),
(425,228,cs),
(490,228,o),
(544,269,o),
(573,341,c),
(512,372,l),
(492,339,o),
(464,321,o),
(427,321,cs),
(362,321,o),
(326,377,o),
(252,377,cs),
(183,377,o),
(131,329,o),
(101,254,c),
(161,223,l)
);
}
);
width = 660;
}
);
metricLeft = "=|";
metricWidth = A;
unicode = 126;
},
{
glyphname = logicalnot;
layers = (
{
layerId = m002;
shapes = (
{
closed = 1;
nodes = (
(560,255,l),
(560,345,l),
(100,345,l),
(100,255,l)
);
},
{
closed = 1;
nodes = (
(560,95,l),
(560,345,l),
(470,345,l),
(470,95,l)
);
}
);
width = 660;
},
{
layerId = m003;
shapes = (
{
closed = 1;
nodes = (
(561,255,l),
(573,345,l),
(113,345,l),
(101,255,l)
);
},
{
closed = 1;
nodes = (
(538,95,l),
(573,345,l),
(483,345,l),
(448,95,l)
);
}
);
width = 660;
}
);
metricLeft = "=|";
metricWidth = A;
unicode = 172;
},
{
glyphname = asciicircum;
layers = (
{
layerId = m002;
shapes = (
{
closed = 1;
nodes = (
(195,321,l),
(351,651,l),
(309,651,l),
(465,321,l),
(560,321,l),
(375,701,l),
(285,701,l),
(100,321,l)
);
}
);
width = 660;
},
{
layerId = m003;
shapes = (
{
closed = 1;
nodes = (
(205,321,l),
(407,651,l),
(365,651,l),
(475,321,l),
(570,321,l),
(438,701,l),
(348,701,l),
(110,321,l)
);
}
);
width = 660;
}
);
metricLeft = "=|";
metricWidth = A;
unicode = 94;
},
{
glyphname = infinity;
layers = (
{
layerId = m002;
shapes = (
{
closed = 1;
nodes = (
(556,119,o),
(625,190,o),
(625,289,cs),
(625,388,o),
(556,459,o),
(461,459,cs),
(283,459,o),
(323,209,o),
(201,209,cs),
(155,209,o),
(125,244,o),
(125,289,cs),
(125,334,o),
(155,369,o),
(201,369,cs),
(323,369,o),
(283,119,o),
(461,119,cs)
);
},
{
closed = 1;
nodes = (
(383,119,o),
(337,369,o),
(459,369,cs),
(505,369,o),
(535,334,o),
(535,289,cs),
(535,244,o),
(505,209,o),
(459,209,cs),
(337,209,o),
(378,459,o),
(199,459,cs),
(103,459,o),
(35,387,o),
(35,290,cs),
(35,192,o),
(103,119,o),
(200,119,c)
);
}
);
width = 660;
},
{
layerId = m003;
shapes = (
{
closed = 1;
nodes = (
(557,119,o),
(629,193,o),
(629,297,cs),
(629,393,o),
(569,459,o),
(482,459,cs),
(313,459,o),
(317,209,o),
(199,209,cs),
(158,209,o),
(130,240,o),
(130,285,cs),
(130,334,o),
(164,369,o),
(212,369,cs),
(340,369,o),
(264,119,o),
(454,119,cs)
);
},
{
closed = 1;
nodes = (
(365,119,o),
(354,369,o),
(471,369,cs),
(512,369,o),
(539,338,o),
(539,293,cs),
(539,244,o),
(506,209,o),
(458,209,cs),
(331,209,o),
(407,459,o),
(217,459,cs),
(114,459,o),
(41,385,o),
(41,281,cs),
(41,186,o),
(102,119,o),
(189,119,c)
);
}
);
width = 660;
}
);
metricLeft = "=|";
metricWidth = A;
unicode = 8734;
},
{
glyphname = integral;
layers = (
{
layerId = m002;
shapes = (
{
closed = 1;
nodes = (
(225,-216,o),
(306,-159,o),
(320,-70,cs),
(420,570,ls),
(426,609,o),
(458,636,o),
(500,636,cs),
(550,636,l),
(550,716,l),
(470,716,ls),
(392,716,o),
(332,662,o),
(320,580,cs),
(220,-60,ls),
(213,-107,o),
(171,-136,o),
(110,-136,c),
(110,-216,l)
);
}
);
width = 660;
},
{
layerId = m003;
shapes = (
{
closed = 1;
nodes = (
(166,-216,o),
(248,-165,o),
(276,-70,cs),
(466,570,ls),
(479,613,o),
(510,636,o),
(555,636,cs),
(604,636,l),
(615,716,l),
(536,716,ls),
(453,716,o),
(393,668,o),
(367,580,cs),
(177,-60,ls),
(162,-109,o),
(121,-136,o),
(57,-136,c),
(45,-216,l)
);
}
);
width = 660;
}
);
metricLeft = "=|";
metricWidth = A;
unicode = 8747;
},
{
glyphname = increment;
layers = (
{
layerId = m002;
shapes = (
{
closed = 1;
nodes = (
(655,0,l),
(401,700,l),
(295,700,l),
(549,0,l)
);
},
{
closed = 1;
nodes = (
(595,0,l),
(595,90,l),
(65,90,l),
(65,0,l)
);
},
{
closed = 1;
nodes = (
(111,0,l),
(365,700,l),
(259,700,l),
(5,0,l)
);
}
);
width = 660;
},
{
layerId = m003;
shapes = (
{
closed = 1;
nodes = (
(620,0,l),
(464,700,l),
(358,700,l),
(514,0,l)
);
},
{
closed = 1;
nodes = (
(560,0,l),
(572,90,l),
(42,90,l),
(30,0,l)
);
},
{
closed = 1;
nodes = (
(76,0,l),
(428,700,l),
(322,700,l),
(-30,0,l)
);
}
);
width = 660;
}
);
metricLeft = "=|";
metricWidth = A;
unicode = 8710;
},
{
glyphname = product;
layers = (
{
layerId = m002;
shapes = (
{
closed = 1;
nodes = (
(546,-100,l),
(546,700,l),
(436,700,l),
(436,-100,l)
);
},
{
closed = 1;
nodes = (
(224,-100,l),
(224,700,l),
(114,700,l),
(114,-100,l)
);
},
{
closed = 1;
nodes = (
(670,610,l),
(670,700,l),
(-10,700,l),
(-10,610,l)
);
}
);
width = 660;
},
{
layerId = m003;
shapes = (
{
closed = 1;
nodes = (
(497,-100,l),
(609,700,l),
(499,700,l),
(387,-100,l)
);
},
{
closed = 1;
nodes = (
(175,-100,l),
(287,700,l),
(177,700,l),
(65,-100,l)
);
},
{
closed = 1;
nodes = (
(721,610,l),
(733,700,l),
(53,700,l),
(41,610,l)
);
}
);
width = 660;
}
);
metricLeft = "=|";
metricWidth = A;
unicode = 8719;
},
{
glyphname = summation;
layers = (
{
layerId = m002;
shapes = (
{
closed = 1;
nodes = (
(469,300,l),
(236,610,l),
(121,600,l),
(349,300,l)
);
},
{
closed = 1;
nodes = (
(539,-100,l),
(539,-10,l),
(236,-10,l),
(121,0,l),
(121,-100,l)
);
},
{
closed = 1;
nodes = (
(469,300,l),
(349,300,l),
(121,0,l),
(236,-10,l)
);
},
{
closed = 1;
nodes = (
(236,610,l),
(539,610,l),
(539,700,l),
(121,700,l),
(121,600,l)
);
}
);
width = 660;
},
{
layerId = m003;
shapes = (
{
closed = 1;
nodes = (
(476,300,l),
(287,610,l),
(170,600,l),
(356,300,l)
);
},
{
closed = 1;
nodes = (
(490,-100,l),
(502,-10,l),
(199,-10,l),
(86,0,l),
(72,-100,l)
);
},
{
closed = 1;
nodes = (
(476,300,l),
(356,300,l),
(86,0,l),
(199,-10,l)
);
},
{
closed = 1;
nodes = (
(287,610,l),
(590,610,l),
(602,700,l),
(184,700,l),
(170,600,l)
);
}
);
width = 660;
}
);
metricLeft = "=|";
metricWidth = A;
unicode = 8721;
},
{
glyphname = radical;
layers = (
{
layerId = m002;
shapes = (
{
closed = 1;
nodes = (
(284,-100,l),
(516,700,l),
(417,700,l),
(185,-100,l)
);
},
{
closed = 1;
nodes = (
(242,-100,l),
(70,440,l),
(-31,440,l),
(141,-100,l)
);
},
{
closed = 1;
nodes = (
(691,610,l),
(691,700,l),
(442,700,l),
(442,610,l)
);
}
);
width = 660;
},
{
layerId = m003;
shapes = (
{
closed = 1;
nodes = (
(235,-100,l),
(579,700,l),
(480,700,l),
(136,-100,l)
);
},
{
closed = 1;
nodes = (
(193,-100,l),
(97,440,l),
(-4,440,l),
(92,-100,l)
);
},
{
closed = 1;
nodes = (
(742,610,l),
(754,700,l),
(505,700,l),
(493,610,l)
);
}
);
width = 660;
}
);
metricLeft = "=|";
metricWidth = A;
unicode = 8730;
},
{
glyphname = micro;
layers = (
{
layerId = m002;
shapes = (
{
closed = 1;
nodes = (
(407,-16,o),
(487,56,o),
(487,147,c),
(461,220,l),
(461,136,o),
(398,73,o),
(315,74,cs),
(247,75,o),
(199,119,o),
(199,181,cs),
(199,234,l),
(129,234,l),
(129,181,ls),
(129,61,o),
(198,-16,o),
(304,-16,cs)
);
},
{
closed = 1;
nodes = (
(561,0,l),
(561,500,l),
(461,500,l),
(461,0,l)
);
},
{
closed = 1;
nodes = (
(199,-200,l),
(199,500,l),
(99,500,l),
(99,-200,l)
);
}
);
width = 660;
},
{
layerId = m003;
shapes = (
{
closed = 1;
nodes = (
(370,-16,o),
(460,56,o),
(472,147,c),
(457,220,l),
(445,136,o),
(373,73,o),
(290,74,cs),
(222,75,o),
(181,119,o),
(189,181,cs),
(197,234,l),
(127,234,l),
(119,181,ls),
(102,61,o),
(161,-16,o),
(267,-16,cs)
);
},
{
closed = 1;
nodes = (
(526,0,l),
(596,500,l),
(496,500,l),
(426,0,l)
);
},
{
closed = 1;
nodes = (
(136,-200,l),
(234,500,l),
(134,500,l),
(36,-200,l)
);
}
);
width = 660;
}
);
metricLeft = "=|";
metricWidth = A;
unicode = 181;
},
{
glyphname = partialdiff;
layers = (
{
layerId = m002;
shapes = (
{
closed = 1;
nodes = (
(471,-16,o),
(578,115,o),
(578,303,cs),
(578,543,o),
(402,716,o),
(159,716,c),
(159,626,l),
(339,626,o),
(474,505,o),
(493,326,c),
(538,224,l),
(535,364,o),
(440,464,o),
(310,464,cs),
(179,464,o),
(82,363,o),
(82,226,cs),
(82,87,o),
(183,-16,o),
(319,-16,cs)
);
},
{
closed = 1;
nodes = (
(248,74,o),
(192,137,o),
(192,224,cs),
(192,311,o),
(248,374,o),
(326,374,cs),
(404,374,o),
(461,311,o),
(461,224,cs),
(461,137,o),
(404,74,o),
(326,74,cs)
);
}
);
width = 660;
},
{
layerId = m003;
shapes = (
{
closed = 1;
nodes = (
(474,-16,o),
(584,123,o),
(584,334,cs),
(584,567,o),
(445,716,o),
(228,716,c),
(216,626,l),
(382,626,o),
(493,511,o),
(493,339,c),
(520,250,l),
(520,382,o),
(444,464,o),
(321,464,cs),
(181,464,o),
(80,358,o),
(80,213,cs),
(80,76,o),
(172,-16,o),
(308,-16,cs)
);
},
{
closed = 1;
nodes = (
(236,74,o),
(190,127,o),
(190,212,cs),
(190,308,o),
(248,374,o),
(333,374,cs),
(408,374,o),
(453,324,o),
(453,240,cs),
(453,143,o),
(393,74,o),
(310,74,cs)
);
}
);
width = 660;
}
);
metricLeft = "=|";
metricWidth = A;
unicode = 8706;
},
{
glyphname = percent;
layers = (
{
layerId = m002;
shapes = (
{
closed = 1;
nodes = (
(584,522,l),
(534,578,l),
(76,178,l),
(125,121,l)
);
},
{
closed = 1;
nodes = (
(276,416,o),
(337,479,o),
(337,566,cs),
(337,653,o),
(276,716,o),
(192,716,cs),
(108,716,o),
(47,653,o),
(47,566,cs),
(47,479,o),
(108,416,o),
(192,416,cs)
);
},
{
closed = 1;
nodes = (
(154,496,o),
(127,525,o),
(127,566,cs),
(127,607,o),
(154,636,o),
(192,636,cs),
(230,636,o),
(257,607,o),
(257,566,cs),
(257,525,o),
(230,496,o),
(192,496,cs)
);
},
{
closed = 1;
nodes = (
(552,-16,o),
(613,47,o),
(613,134,cs),
(613,221,o),
(552,284,o),
(468,284,cs),
(384,284,o),
(323,221,o),
(323,134,cs),
(323,47,o),
(384,-16,o),
(468,-16,cs)
);
},
{
closed = 1;
nodes = (
(430,64,o),
(403,93,o),
(403,134,cs),
(403,175,o),
(430,204,o),
(468,204,cs),
(506,204,o),
(533,175,o),
(533,134,cs),
(533,93,o),
(506,64,o),
(468,64,cs)
);
}
);
width = 660;
},
{
layerId = m003;
shapes = (
{
closed = 1;
nodes = (
(622,522,l),
(580,578,l),
(66,178,l),
(107,121,l)
);
},
{
closed = 1;
nodes = (
(321,416,o),
(383,479,o),
(383,571,cs),
(383,658,o),
(327,716,o),
(241,716,cs),
(151,716,o),
(89,653,o),
(89,561,cs),
(89,474,o),
(145,416,o),
(231,416,cs)
);
},
{
closed = 1;
nodes = (
(194,496,o),
(170,521,o),
(170,561,cs),
(170,605,o),
(199,636,o),
(241,636,cs),
(278,636,o),
(302,611,o),
(302,571,cs),
(302,527,o),
(273,496,o),
(231,496,cs)
);
},
{
closed = 1;
nodes = (
(537,-16,o),
(599,47,o),
(599,139,cs),
(599,226,o),
(543,284,o),
(457,284,cs),
(367,284,o),
(305,221,o),
(305,129,cs),
(305,42,o),
(361,-16,o),
(447,-16,cs)
);
},
{
closed = 1;
nodes = (
(410,64,o),
(386,89,o),
(386,129,cs),
(386,173,o),
(415,204,o),
(457,204,cs),
(494,204,o),
(518,179,o),
(518,139,cs),
(518,95,o),
(489,64,o),
(447,64,cs)
);
}
);
width = 660;
}
);
metricLeft = "=|";
metricWidth = A;
unicode = 37;
},
{
glyphname = perthousand;
layers = (
{
layerId = m002;
shapes = (
{
closed = 1;
nodes = (
(400,-155,o),
(461,-92,o),
(461,-5,cs),
(461,82,o),
(400,145,o),
(316,145,cs),
(232,145,o),
(171,82,o),
(171,-5,cs),
(171,-92,o),
(232,-155,o),
(316,-155,cs)
);
},
{
closed = 1;
nodes = (
(278,-75,o),
(251,-46,o),
(251,-5,cs),
(251,36,o),
(278,65,o),
(316,65,cs),
(354,65,o),
(381,36,o),
(381,-5,cs),
(381,-46,o),
(354,-75,o),
(316,-75,cs)
);
},
{
closed = 1;
nodes = (
(568,-16,o),
(629,47,o),
(629,134,cs),
(629,221,o),
(568,284,o),
(484,284,cs),
(400,284,o),
(339,221,o),
(339,134,cs),
(339,47,o),
(400,-16,o),
(484,-16,cs)
);
},
{
closed = 1;
nodes = (
(446,64,o),
(419,93,o),
(419,134,cs),
(419,175,o),
(446,204,o),
(484,204,cs),
(522,204,o),
(549,175,o),
(549,134,cs),
(549,93,o),
(522,64,o),
(484,64,cs)
);
},
{
closed = 1;
nodes = (
(568,522,l),
(518,578,l),
(60,178,l),
(109,121,l)
);
},
{
closed = 1;
nodes = (
(260,416,o),
(321,479,o),
(321,566,cs),
(321,653,o),
(260,716,o),
(176,716,cs),
(92,716,o),
(31,653,o),
(31,566,cs),
(31,479,o),
(92,416,o),
(176,416,cs)
);
},
{
closed = 1;
nodes = (
(138,496,o),
(111,525,o),
(111,566,cs),
(111,607,o),
(138,636,o),
(176,636,cs),
(214,636,o),
(241,607,o),
(241,566,cs),
(241,525,o),
(214,496,o),
(176,496,cs)
);
}
);
width = 660;
},
{
layerId = m003;
shapes = (
{
closed = 1;
nodes = (
(365,-155,o),
(427,-91,o),
(427,1,cs),
(427,88,o),
(371,145,o),
(286,145,cs),
(195,145,o),
(133,81,o),
(133,-11,cs),
(133,-98,o),
(189,-155,o),
(274,-155,cs)
);
},
{
closed = 1;
nodes = (
(238,-75,o),
(214,-50,o),
(214,-10,cs),
(214,34,o),
(243,65,o),
(285,65,cs),
(322,65,o),
(346,40,o),
(346,0,cs),
(346,-44,o),
(317,-75,o),
(275,-75,cs)
);
},
{
closed = 1;
nodes = (
(553,-16,o),
(615,47,o),
(615,139,cs),
(615,226,o),
(559,284,o),
(473,284,cs),
(383,284,o),
(321,221,o),
(321,129,cs),
(321,42,o),
(377,-16,o),
(463,-16,cs)
);
},
{
closed = 1;
nodes = (
(426,64,o),
(402,89,o),
(402,129,cs),
(402,173,o),
(431,204,o),
(473,204,cs),
(510,204,o),
(534,179,o),
(534,139,cs),
(534,95,o),
(505,64,o),
(463,64,cs)
);
},
{
closed = 1;
nodes = (
(606,522,l),
(564,578,l),
(50,178,l),
(91,121,l)
);
},
{
closed = 1;
nodes = (
(305,416,o),
(367,479,o),
(367,571,cs),
(367,658,o),
(311,716,o),
(225,716,cs),
(135,716,o),
(73,653,o),
(73,561,cs),
(73,474,o),
(129,416,o),
(215,416,cs)
);
},
{
closed = 1;
nodes = (
(178,496,o),
(154,521,o),
(154,561,cs),
(154,605,o),
(183,636,o),
(225,636,cs),
(262,636,o),
(286,611,o),
(286,571,cs),
(286,527,o),
(257,496,o),
(215,496,cs)
);
}
);
width = 660;
}
);
metricLeft = "=|";
metricWidth = A;
unicode = 8240;
},
{
glyphname = upArrow;
layers = (
{
layerId = m002;
shapes = (
{
closed = 1;
nodes = (
(375,5,l),
(375,529,l),
(557,348,l),
(617,409,l),
(330,696,l),
(43,409,l),
(104,348,l),
(285,529,l),
(285,5,l)
);
}
);
width = 660;
},
{
layerId = m003;
shapes = (
{
closed = 1;
nodes = (
(341,5,l),
(414,529,l),
(571,348,l),
(639,409,l),
(393,696,l),
(65,409,l),
(118,348,l),
(324,529,l),
(251,5,l)
);
}
);
width = 660;
}
);
metricLeft = "=|";
metricWidth = A;
unicode = 8593;
},
{
glyphname = northEastArrow;
layers = (
{
layerId = m002;
shapes = (
{
closed = 1;
nodes = (
(544,458,l),
(480,522,l),
(70,112,l),
(134,48,l)
);
},
{
closed = 1;
nodes = (
(590,163,l),
(590,568,l),
(185,568,l),
(185,483,l),
(545,483,l),
(505,523,l),
(505,163,l)
);
}
);
width = 660;
},
{
layerId = m003;
shapes = (
{
closed = 1;
nodes = (
(573,458,l),
(518,522,l),
(51,112,l),
(106,48,l)
);
},
{
closed = 1;
nodes = (
(578,163,l),
(635,568,l),
(230,568,l),
(218,483,l),
(578,483,l),
(543,523,l),
(493,163,l)
);
}
);
width = 660;
}
);
metricLeft = "=|";
metricWidth = A;
unicode = 8599;
},
{
glyphname = rightArrow;
layers = (
{
layerId = m002;
shapes = (
{
closed = 1;
nodes = (
(611,350,l),
(324,637,l),
(263,576,l),
(518,321,l),
(518,379,l),
(263,123,l),
(324,63,l)
);
},
{
closed = 1;
nodes = (
(500,305,l),
(500,395,l),
(49,395,l),
(49,305,l)
);
}
);
width = 660;
},
{
layerId = m003;
shapes = (
{
closed = 1;
nodes = (
(625,350,l),
(378,637,l),
(309,576,l),
(528,321,l),
(536,379,l),
(245,123,l),
(298,63,l)
);
},
{
closed = 1;
nodes = (
(508,305,l),
(520,395,l),
(69,395,l),
(57,305,l)
);
}
);
width = 660;
}
);
metricLeft = "=|";
metricWidth = A;
unicode = 8594;
},
{
glyphname = southEastArrow;
layers = (
{
layerId = m002;
shapes = (
{
closed = 1;
nodes = (
(544,192,l),
(134,602,l),
(70,538,l),
(480,128,l)
);
},
{
closed = 1;
nodes = (
(590,82,l),
(590,487,l),
(505,487,l),
(505,127,l),
(545,167,l),
(185,167,l),
(185,82,l)
);
}
);
width = 660;
},
{
layerId = m003;
shapes = (
{
closed = 1;
nodes = (
(536,192,l),
(183,602,l),
(110,538,l),
(463,128,l)
);
},
{
closed = 1;
nodes = (
(566,82,l),
(623,487,l),
(538,487,l),
(488,127,l),
(533,167,l),
(173,167,l),
(161,82,l)
);
}
);
width = 660;
}
);
metricLeft = "=|";
metricWidth = A;
unicode = 8600;
},
{
glyphname = downArrow;
layers = (
{
layerId = m002;
shapes = (
{
closed = 1;
nodes = (
(617,292,l),
(557,353,l),
(375,172,l),
(375,696,l),
(285,696,l),
(285,172,l),
(104,353,l),
(43,292,l),
(330,5,l)
);
}
);
width = 660;
},
{
layerId = m003;
shapes = (
{
closed = 1;
nodes = (
(623,292,l),
(571,353,l),
(364,172,l),
(438,696,l),
(348,696,l),
(274,172,l),
(118,353,l),
(49,292,l),
(296,5,l)
);
}
);
width = 660;
}
);
metricLeft = "=|";
metricWidth = A;
unicode = 8595;
},
{
glyphname = southWestArrow;
layers = (
{
layerId = m002;
shapes = (
{
closed = 1;
nodes = (
(590,538,l),
(526,602,l),
(116,192,l),
(180,128,l)
);
},
{
closed = 1;
nodes = (
(475,82,l),
(475,167,l),
(115,167,l),
(155,127,l),
(155,487,l),
(70,487,l),
(70,82,l)
);
}
);
width = 660;
},
{
layerId = m003;
shapes = (
{
closed = 1;
nodes = (
(630,538,l),
(575,602,l),
(108,192,l),
(163,128,l)
);
},
{
closed = 1;
nodes = (
(451,82,l),
(463,167,l),
(103,167,l),
(138,127,l),
(188,487,l),
(103,487,l),
(46,82,l)
);
}
);
width = 660;
}
);
metricLeft = "=|";
metricWidth = A;
unicode = 8601;
},
{
glyphname = leftArrow;
layers = (
{
layerId = m002;
shapes = (
{
closed = 1;
nodes = (
(397,123,l),
(142,379,l),
(142,321,l),
(397,576,l),
(336,637,l),
(49,350,l),
(336,63,l)
);
},
{
closed = 1;
nodes = (
(611,305,l),
(611,395,l),
(160,395,l),
(160,305,l)
);
}
);
width = 660;
},
{
layerId = m003;
shapes = (
{
closed = 1;
nodes = (
(379,123,l),
(160,379,l),
(152,321,l),
(443,576,l),
(390,637,l),
(63,350,l),
(310,63,l)
);
},
{
closed = 1;
nodes = (
(619,305,l),
(631,395,l),
(180,395,l),
(168,305,l)
);
}
);
width = 660;
}
);
metricLeft = "=|";
metricWidth = A;
unicode = 8592;
},
{
glyphname = northWestArrow;
layers = (
{
layerId = m002;
shapes = (
{
closed = 1;
nodes = (
(590,112,l),
(180,522,l),
(116,458,l),
(526,48,l)
);
},
{
closed = 1;
nodes = (
(155,163,l),
(155,523,l),
(115,483,l),
(475,483,l),
(475,568,l),
(70,568,l),
(70,163,l)
);
}
);
width = 660;
},
{
layerId = m003;
shapes = (
{
closed = 1;
nodes = (
(571,112,l),
(218,522,l),
(145,458,l),
(498,48,l)
);
},
{
closed = 1;
nodes = (
(143,163,l),
(193,523,l),
(148,483,l),
(508,483,l),
(520,568,l),
(115,568,l),
(58,163,l)
);
}
);
width = 660;
}
);
metricLeft = "=|";
metricWidth = A;
unicode = 8598;
},
{
glyphname = blackCircle;
layers = (
{
layerId = m002;
shapes = (
{
closed = 1;
nodes = (
(506,-16,o),
(616,124,o),
(616,350,c),
(616,576,o),
(506,716,o),
(330,716,c),
(154,716,o),
(44,576,o),
(44,350,c),
(44,124,o),
(154,-16,o),
(330,-16,c)
);
}
);
width = 660;
},
{
layerId = m003;
shapes = (
{
closed = 1;
nodes = (
(509,-16,o),
(630,145,o),
(630,385,cs),
(630,590,o),
(528,716,o),
(361,716,cs),
(183,716,o),
(58,551,o),
(58,315,cs),
(58,112,o),
(162,-16,o),
(328,-16,cs)
);
}
);
width = 660;
}
);
metricLeft = "=|";
metricWidth = A;
unicode = 9679;
},
